SplineFontDB: 3.2
FontName: KAAlmouziosFthora-Regular
FullName: KA Almouzios Fthora Regular
FamilyName: KA Almouzios Fthora
Weight: Book
Copyright: SIL OPEN FONT LICENSE Version 1.1
Version: 1.000
ItalicAngle: 0
UnderlinePosition: -100
UnderlineWidth: 50
Ascent: 800
Descent: 200
InvalidEm: 0
sfntRevision: 0x00010000
LayerCount: 2
Layer: 0 1 "Back" 1
Layer: 1 1 "Fore" 0
XUID: [1021 596 -667042339 4845419]
StyleMap: 0x0040
FSType: 8
OS2Version: 3
OS2_WeightWidthSlopeOnly: 0
OS2_UseTypoMetrics: 0
CreationTime: 1489463466
ModificationTime: 1728388714
PfmFamily: 81
TTFWeight: 400
TTFWidth: 5
LineGap: 0
VLineGap: 0
Panose: 0 0 5 0 0 0 0 0 0 0
OS2TypoAscent: 800
OS2TypoAOffset: 0
OS2TypoDescent: -200
OS2TypoDOffset: 0
OS2TypoLinegap: 200
OS2WinAscent: 1000
OS2WinAOffset: 0
OS2WinDescent: 200
OS2WinDOffset: 0
HheadAscent: 1000
HheadAOffset: 0
HheadDescent: -200
HheadDOffset: 0
OS2SubXSize: 650
OS2SubYSize: 600
OS2SubXOff: 0
OS2SubYOff: 75
OS2SupXSize: 650
OS2SupYSize: 600
OS2SupXOff: 0
OS2SupYOff: 350
OS2StrikeYSize: 50
OS2StrikeYPos: 300
OS2CapHeight: 700
OS2XHeight: 500
OS2Vendor: 'UKWN'
OS2CodePages: 00000001.00000000
OS2UnicodeRanges: 00000001.00000000.00000000.00000000
DEI: 91125
ShortTable: maxp 16
  1
  0
  81
  128
  10
  128
  3
  1
  2
  30
  6
  0
  100
  0
  1
  1
EndShort
LangName: 1033 "" "" "" "1.000;UKWN;KAAlmouziosFthora-Regular" "" "Version 1.000" "" "" "" "Trevor Bullock" "" "" "" "This Font Software is licensed under the SIL Open Font License, Version 1.1. This license is available with a FAQ at: http://scripts.sil.org/OFL" "http://scripts.sil.org/OFL"
Encoding: UnicodeBmp
Compacted: 1
UnicodeInterp: none
NameList: AGL For New Fonts
DisplaySize: -128
AntiAlias: 1
FitToEm: 1
WinInfo: 0 14 6
BeginChars: 65537 81

StartChar: .notdef
Encoding: 65536 -1 0
Width: 626
VWidth: 1392
GlyphClass: 1
Flags: W
LayerCount: 2
Back
SplineSet
410 -200 m 1,0,-1
 93 -200 l 1,1,-1
 93 800 l 1,2,-1
 410 800 l 1,3,-1
 410 -200 l 1,0,-1
168 733 m 1,4,-1
 168 700 l 1,5,-1
 233 700 l 1,6,-1
 233 663 l 1,7,-1
 167 663 l 1,8,-1
 167 630 l 1,9,-1
 333 630 l 1,10,-1
 333 663 l 1,11,-1
 267 663 l 1,12,-1
 267 700 l 1,13,-1
 333 700 l 1,14,-1
 333 733 l 1,15,-1
 168 733 l 1,4,-1
167 604 m 1,16,-1
 167 500 l 1,17,-1
 333 500 l 1,18,-1
 333 534 l 1,19,-1
 267 534 l 1,20,-1
 267 604 l 1,21,-1
 167 604 l 1,16,-1
233 534 m 1,22,-1
 200 534 l 1,23,-1
 200 570 l 1,24,-1
 233 570 l 1,25,-1
 233 534 l 1,22,-1
167 473 m 1,26,-1
 167 440 l 1,27,-1
 233 440 l 1,28,-1
 233 403 l 1,29,-1
 167 403 l 1,30,-1
 167 370 l 1,31,-1
 267 370 l 1,32,-1
 267 440 l 1,33,-1
 333 440 l 1,34,-1
 333 473 l 1,35,-1
 167 473 l 1,26,-1
300 413 m 1,36,-1
 300 347 l 1,37,-1
 167 347 l 1,38,-1
 167 313 l 1,39,-1
 333 313 l 1,40,-1
 333 413 l 1,41,-1
 300 413 l 1,36,-1
233 291 m 1,42,-1
 233 235 l 1,43,-1
 267 235 l 1,44,-1
 267 258 l 1,45,-1
 300 258 l 1,46,-1
 300 211 l 1,47,-1
 200 211 l 1,48,-1
 200 291 l 1,49,-1
 167 291 l 1,50,-1
 167 178 l 1,51,-1
 333 178 l 1,52,-1
 333 291 l 1,53,-1
 233 291 l 1,42,-1
167 118 m 1,54,-1
 167 5 l 1,55,-1
 333 5 l 1,56,-1
 333 118 l 1,57,-1
 167 118 l 1,54,-1
300 38 m 1,58,-1
 200 38 l 1,59,-1
 200 85 l 1,60,-1
 300 85 l 1,61,-1
 300 38 l 1,58,-1
167 -18 m 1,62,-1
 167 -51 l 1,63,-1
 237 -51 l 1,64,-1
 167 -98 l 1,65,-1
 167 -131 l 1,66,-1
 333 -131 l 1,67,-1
 333 -98 l 1,68,-1
 231 -98 l 1,69,-1
 301 -51 l 1,70,-1
 333 -51 l 1,71,-1
 333 -18 l 1,72,-1
 167 -18 l 1,62,-1
EndSplineSet
Fore
SplineSet
522 0 m 1,0,-1
 154.280273438 0 l 1,1,-1
 154.280273438 1160 l 1,2,-1
 522 1160 l 1,3,-1
 522 0 l 1,0,-1
241.280273438 1082.28027344 m 1,4,-1
 241.280273438 1044 l 1,5,-1
 316.6796875 1044 l 1,6,-1
 316.6796875 1001.08007812 l 1,7,-1
 240.120117188 1001.08007812 l 1,8,-1
 240.120117188 962.799804688 l 1,9,-1
 432.6796875 962.799804688 l 1,10,-1
 432.6796875 1001.08007812 l 1,11,-1
 356.120117188 1001.08007812 l 1,12,-1
 356.120117188 1044 l 1,13,-1
 432.6796875 1044 l 1,14,-1
 432.6796875 1082.28027344 l 1,15,-1
 241.280273438 1082.28027344 l 1,4,-1
240.120117188 932.639648438 m 1,16,-1
 240.120117188 812 l 1,17,-1
 432.6796875 812 l 1,18,-1
 432.6796875 851.440429688 l 1,19,-1
 356.120117188 851.440429688 l 1,20,-1
 356.120117188 932.639648438 l 1,21,-1
 240.120117188 932.639648438 l 1,16,-1
316.6796875 851.440429688 m 1,22,-1
 278.400390625 851.440429688 l 1,23,-1
 278.400390625 893.200195312 l 1,24,-1
 316.6796875 893.200195312 l 1,25,-1
 316.6796875 851.440429688 l 1,22,-1
240.120117188 780.6796875 m 1,26,-1
 240.120117188 742.400390625 l 1,27,-1
 316.6796875 742.400390625 l 1,28,-1
 316.6796875 699.48046875 l 1,29,-1
 240.120117188 699.48046875 l 1,30,-1
 240.120117188 661.200195312 l 1,31,-1
 356.120117188 661.200195312 l 1,32,-1
 356.120117188 742.400390625 l 1,33,-1
 432.6796875 742.400390625 l 1,34,-1
 432.6796875 780.6796875 l 1,35,-1
 240.120117188 780.6796875 l 1,26,-1
394.400390625 711.080078125 m 1,36,-1
 394.400390625 634.51953125 l 1,37,-1
 240.120117188 634.51953125 l 1,38,-1
 240.120117188 595.080078125 l 1,39,-1
 432.6796875 595.080078125 l 1,40,-1
 432.6796875 711.080078125 l 1,41,-1
 394.400390625 711.080078125 l 1,36,-1
316.6796875 569.559570312 m 1,42,-1
 316.6796875 504.599609375 l 1,43,-1
 356.120117188 504.599609375 l 1,44,-1
 356.120117188 531.280273438 l 1,45,-1
 394.400390625 531.280273438 l 1,46,-1
 394.400390625 476.759765625 l 1,47,-1
 278.400390625 476.759765625 l 1,48,-1
 278.400390625 569.559570312 l 1,49,-1
 240.120117188 569.559570312 l 1,50,-1
 240.120117188 438.48046875 l 1,51,-1
 432.6796875 438.48046875 l 1,52,-1
 432.6796875 569.559570312 l 1,53,-1
 316.6796875 569.559570312 l 1,42,-1
240.120117188 368.879882812 m 1,54,-1
 240.120117188 237.799804688 l 1,55,-1
 432.6796875 237.799804688 l 1,56,-1
 432.6796875 368.879882812 l 1,57,-1
 240.120117188 368.879882812 l 1,54,-1
394.400390625 276.080078125 m 1,58,-1
 278.400390625 276.080078125 l 1,59,-1
 278.400390625 330.599609375 l 1,60,-1
 394.400390625 330.599609375 l 1,61,-1
 394.400390625 276.080078125 l 1,58,-1
240.120117188 211.120117188 m 1,62,-1
 240.120117188 172.83984375 l 1,63,-1
 321.3203125 172.83984375 l 1,64,-1
 240.120117188 118.3203125 l 1,65,-1
 240.120117188 80.0400390625 l 1,66,-1
 432.6796875 80.0400390625 l 1,67,-1
 432.6796875 118.3203125 l 1,68,-1
 314.360351562 118.3203125 l 1,69,-1
 395.559570312 172.83984375 l 1,70,-1
 432.6796875 172.83984375 l 1,71,-1
 432.6796875 211.120117188 l 1,72,-1
 240.120117188 211.120117188 l 1,62,-1
EndSplineSet
EndChar

StartChar: A
Encoding: 65 65 1
Width: 46
VWidth: 1392
GlyphClass: 1
Flags: W
LayerCount: 2
Back
Refer: 17 97 N 1 0 0 1 280 -860 2
Fore
SplineSet
-631.040039062 -98.599609375 m 0,0,1
 -631.040039062 -77.7197265625 -631.040039062 -77.7197265625 -568.400390625 -77.7197265625 c 0,2,3
 -555.640625 -77.7197265625 -555.640625 -77.7197265625 -513.879882812 -82.359375 c 2,4,-1
 -481.400390625 -85.83984375 l 1,5,-1
 -481.400390625 -93.9599609375 l 1,6,7
 -482.560546875 -104.399414062 -482.560546875 -104.399414062 -480.240234375 -124.69921875 c 128,-1,8
 -477.919921875 -145 -477.919921875 -145 -474.440429688 -150.799804688 c 0,9,10
 -461.680664062 -176.319335938 -461.680664062 -176.319335938 -424.560546875 -187.919921875 c 0,11,12
 -414.120117188 -192.559570312 -414.120117188 -192.559570312 -401.939453125 -193.719726562 c 128,-1,13
 -389.759765625 -194.879882812 -389.759765625 -194.879882812 -362.5 -180.379882812 c 128,-1,14
 -335.240234375 -165.879882812 -335.240234375 -165.879882812 -314.360351562 -134.559570312 c 2,15,-1
 -306.240234375 -121.799804688 l 1,16,-1
 -294.640625 -124.119140625 l 2,17,18
 -278.400390625 -126.439453125 -278.400390625 -126.439453125 -191.400390625 -126.439453125 c 2,19,-1
 -99.759765625 -126.439453125 l 1,20,-1
 -85.83984375 -120.639648438 l 2,21,22
 -55.6806640625 -109.040039062 -55.6806640625 -109.040039062 -55.6806640625 -96.279296875 c 0,23,24
 -55.6806640625 -74.2392578125 -55.6806640625 -74.2392578125 -73.080078125 -74.2392578125 c 1,25,-1
 -106.719726562 -76.5595703125 l 1,26,-1
 -145 -80.0400390625 l 1,27,-1
 -154.280273438 -87 l 1,28,29
 -176.3203125 -100.919921875 -176.3203125 -100.919921875 -199.51953125 -100.919921875 c 128,-1,30
 -222.719726562 -100.919921875 -222.719726562 -100.919921875 -250.559570312 -95.7001953125 c 128,-1,31
 -278.400390625 -90.4794921875 -278.400390625 -90.4794921875 -291.16015625 -87 c 128,-1,32
 -303.919921875 -83.51953125 -303.919921875 -83.51953125 -301.599609375 -78.2998046875 c 128,-1,33
 -299.280273438 -73.080078125 -299.280273438 -73.080078125 -299.280273438 -57.419921875 c 128,-1,34
 -299.280273438 -41.759765625 -299.280273438 -41.759765625 -303.919921875 -31.900390625 c 0,35,36
 -321.662109375 5.80078125 -321.662109375 5.80078125 -374.680664062 5.80078125 c 256,37,38
 -415.83203125 5.80078125 -415.83203125 5.80078125 -454.719726562 -45.2392578125 c 1,39,-1
 -465.16015625 -60.3193359375 l 1,40,-1
 -494.16015625 -59.1591796875 l 1,41,-1
 -542.879882812 -54.51953125 l 1,42,43
 -554.48046875 -52.19921875 -554.48046875 -52.19921875 -596.8203125 -52.19921875 c 128,-1,44
 -639.16015625 -52.19921875 -639.16015625 -52.19921875 -662.360351562 -56.83984375 c 0,45,46
 -716.668945312 -67.7021484375 -716.668945312 -67.7021484375 -721.520507812 -84.6796875 c 0,47,48
 -723.83984375 -93.9599609375 -723.83984375 -93.9599609375 -715.719726562 -107.879882812 c 0,49,50
 -704.89453125 -126.439453125 -704.89453125 -126.439453125 -688.267578125 -126.439453125 c 128,-1,51
 -671.640625 -126.439453125 -671.640625 -126.439453125 -651.919921875 -123.540039062 c 128,-1,52
 -632.200195312 -120.639648438 -632.200195312 -120.639648438 -629.879882812 -118.319335938 c 0,53,54
 -628.719726562 -114.83984375 -628.719726562 -114.83984375 -629.879882812 -109.040039062 c 128,-1,55
 -631.040039062 -103.239257812 -631.040039062 -103.239257812 -631.040039062 -98.599609375 c 0,0,1
-354.959960938 -61.4794921875 m 0,56,57
 -354.959960938 -76.5595703125 -354.959960938 -76.5595703125 -367.140625 -76.5595703125 c 0,58,59
 -370.040039062 -76.5595703125 -370.040039062 -76.5595703125 -377 -73.080078125 c 128,-1,60
 -383.959960938 -69.599609375 -383.959960938 -69.599609375 -400.200195312 -69.599609375 c 1,61,-1
 -417.600585938 -68.439453125 l 1,62,63
 -412.513671875 -43.009765625 -412.513671875 -43.009765625 -405.196289062 -38.3251953125 c 128,-1,64
 -397.879882812 -33.6396484375 -397.879882812 -33.6396484375 -388.600585938 -33.6396484375 c 256,65,66
 -358.440429688 -33.6396484375 -358.440429688 -33.6396484375 -354.959960938 -61.4794921875 c 0,56,57
-424.560546875 -129.919921875 m 0,67,68
 -426.879882812 -125.279296875 -426.879882812 -125.279296875 -426.879882812 -114.259765625 c 128,-1,69
 -426.879882812 -103.239257812 -426.879882812 -103.239257812 -425.719726562 -102.080078125 c 0,70,71
 -414.114257812 -102.080078125 -414.114257812 -102.080078125 -372.360351562 -109.040039062 c 0,72,73
 -367.719726562 -111.359375 -367.719726562 -111.359375 -367.719726562 -114.83984375 c 128,-1,74
 -367.719726562 -118.319335938 -367.719726562 -118.319335938 -375.83984375 -128.759765625 c 0,75,76
 -394.826171875 -147.747070312 -394.826171875 -147.747070312 -409.11328125 -141.153320312 c 128,-1,77
 -423.400390625 -134.559570312 -423.400390625 -134.559570312 -424.560546875 -129.919921875 c 0,67,68
EndSplineSet
EndChar

StartChar: D
Encoding: 68 68 2
Width: 46
VWidth: 1392
GlyphClass: 1
Flags: W
LayerCount: 2
Back
Refer: 19 100 N 1 0 0 1 350 -860 2
Fore
SplineSet
150.799804688 -139.19921875 m 0,0,1
 153.120117188 -145 153.120117188 -145 153.120117188 -160.080078125 c 128,-1,2
 153.120117188 -175.159179688 153.120117188 -175.159179688 146.740234375 -190.239257812 c 128,-1,3
 140.360351562 -205.319335938 140.360351562 -205.319335938 129.33984375 -211.700195312 c 128,-1,4
 118.3203125 -218.080078125 118.3203125 -218.080078125 90.48046875 -218.080078125 c 128,-1,5
 62.6396484375 -218.080078125 62.6396484375 -218.080078125 49.8798828125 -208.799804688 c 128,-1,6
 37.1201171875 -199.51953125 37.1201171875 -199.51953125 37.1201171875 -189.66015625 c 128,-1,7
 37.1201171875 -179.799804688 37.1201171875 -179.799804688 45.8203125 -175.159179688 c 128,-1,8
 54.51953125 -170.51953125 54.51953125 -170.51953125 72.5 -173.419921875 c 128,-1,9
 90.48046875 -176.319335938 90.48046875 -176.319335938 90.48046875 -168.19921875 c 256,10,11
 90.48046875 -160.080078125 90.48046875 -160.080078125 71.33984375 -147.319335938 c 128,-1,12
 52.2001953125 -134.559570312 52.2001953125 -134.559570312 24.359375 -125.280273438 c 128,-1,13
 -3.48046875 -116 -3.48046875 -116 -129.919921875 -112.51953125 c 1,14,-1
 -129.919921875 -118.319335938 l 2,15,16
 -129.919921875 -155.553710938 -129.919921875 -155.553710938 -174.580078125 -175.159179688 c 0,17,18
 -198.360351562 -185.599609375 -198.360351562 -185.599609375 -229.6796875 -185.599609375 c 128,-1,19
 -261 -185.599609375 -261 -185.599609375 -289.419921875 -172.259765625 c 128,-1,20
 -317.83984375 -158.919921875 -317.83984375 -158.919921875 -353.799804688 -126.439453125 c 0,21,22
 -360.759765625 -120.639648438 -360.759765625 -120.639648438 -365.400390625 -107.879882812 c 1,23,24
 -501.120117188 -110.19921875 -501.120117188 -110.19921875 -555.640625 -113.099609375 c 128,-1,25
 -610.16015625 -116 -610.16015625 -116 -637.419921875 -116 c 128,-1,26
 -664.6796875 -116 -664.6796875 -116 -670.48046875 -110.19921875 c 0,27,28
 -685.559570312 -91.6396484375 -685.559570312 -91.6396484375 -606.099609375 -80.0400390625 c 128,-1,29
 -526.639648438 -68.439453125 -526.639648438 -68.439453125 -368.879882812 -66.119140625 c 1,30,31
 -359.599609375 -35.9599609375 -359.599609375 -35.9599609375 -330.01953125 -13.33984375 c 128,-1,32
 -300.440429688 9.2802734375 -300.440429688 9.2802734375 -271.440429688 6.9599609375 c 0,33,34
 -177.249023438 0.232421875 -177.249023438 0.232421875 -141.51953125 -66.119140625 c 1,35,36
 -21.830078125 -68.18359375 -21.830078125 -68.18359375 26.78515625 -78.171875 c 128,-1,37
 75.400390625 -88.1591796875 75.400390625 -88.1591796875 110.200195312 -104.979492188 c 128,-1,38
 145 -121.799804688 145 -121.799804688 150.799804688 -139.19921875 c 0,0,1
-309.719726562 -64.9599609375 m 1,39,-1
 -261 -64.9599609375 l 1,40,-1
 -214.599609375 -64.9599609375 l 1,41,42
 -243.599609375 -41.759765625 -243.599609375 -41.759765625 -260.419921875 -41.759765625 c 0,43,44
 -292.3203125 -41.759765625 -292.3203125 -41.759765625 -309.719726562 -64.9599609375 c 1,39,-1
-191.400390625 -110.19921875 m 1,45,46
 -227.360351562 -109.040039062 -227.360351562 -109.040039062 -302.759765625 -109.040039062 c 1,47,48
 -288.83984375 -124.119140625 -288.83984375 -124.119140625 -257.51953125 -132.239257812 c 0,49,50
 -252.879882812 -133.399414062 -252.879882812 -133.399414062 -240.69921875 -133.399414062 c 128,-1,51
 -228.51953125 -133.399414062 -228.51953125 -133.399414062 -214.01953125 -127.599609375 c 0,52,53
 -196.615234375 -120.638671875 -196.615234375 -120.638671875 -191.400390625 -110.19921875 c 1,45,46
EndSplineSet
EndChar

StartChar: E
Encoding: 69 69 3
Width: 46
VWidth: 1392
GlyphClass: 1
Flags: W
LayerCount: 2
Back
Refer: 20 101 N 1 0 0 1 280 -860 2
Fore
SplineSet
-426.879882812 -382.9453125 m 128,-1,1
 -426.879882812 -351.479492188 -426.879882812 -351.479492188 -418.759765625 -291.159179688 c 2,2,-1
 -410.640625 -225.040039062 l 1,3,-1
 -441.959960938 -205.319335938 l 2,4,5
 -495.3203125 -171.970703125 -495.3203125 -171.970703125 -495.3203125 -119.479492188 c 0,6,7
 -495.3203125 -100.6875 -495.3203125 -100.6875 -465.16015625 -47.443359375 c 128,-1,8
 -435 5.80078125 -435 5.80078125 -418.759765625 27.2607421875 c 128,-1,9
 -402.520507812 48.720703125 -402.520507812 48.720703125 -399.040039062 64.380859375 c 128,-1,10
 -395.560546875 80.0400390625 -395.560546875 80.0400390625 -395.560546875 104.979492188 c 128,-1,11
 -395.560546875 129.919921875 -395.560546875 129.919921875 -400.200195312 180.959960938 c 2,12,-1
 -403.680664062 225.040039062 l 2,13,14
 -404.83984375 240.120117188 -404.83984375 240.120117188 -394.400390625 251.140625 c 128,-1,15
 -383.959960938 262.16015625 -383.959960938 262.16015625 -370.040039062 262.16015625 c 256,16,17
 -356.120117188 262.16015625 -356.120117188 262.16015625 -347.419921875 254.040039062 c 128,-1,18
 -338.719726562 245.919921875 -338.719726562 245.919921875 -338.719726562 214.01953125 c 128,-1,19
 -338.719726562 182.120117188 -338.719726562 182.120117188 -346.83984375 124.120117188 c 2,20,-1
 -357.280273438 52.2001953125 l 1,21,-1
 -330.600585938 37.1201171875 l 2,22,23
 -278.400390625 6.9599609375 -278.400390625 6.9599609375 -278.400390625 -47.5595703125 c 0,24,25
 -279.560546875 -71.919921875 -279.560546875 -71.919921875 -298.120117188 -113.6796875 c 128,-1,26
 -316.680664062 -155.439453125 -316.680664062 -155.439453125 -336.98046875 -180.379882812 c 128,-1,27
 -357.280273438 -205.319335938 -357.280273438 -205.319335938 -361.33984375 -216.33984375 c 0,28,29
 -370.040039062 -239.951171875 -370.040039062 -239.951171875 -370.040039062 -283.53515625 c 128,-1,30
 -370.040039062 -327.119140625 -370.040039062 -327.119140625 -365.979492188 -360.1796875 c 128,-1,31
 -361.919921875 -393.239257812 -361.919921875 -393.239257812 -361.919921875 -403.6796875 c 0,32,33
 -361.919921875 -423.935546875 -361.919921875 -423.935546875 -385.700195312 -427.147460938 c 128,-1,34
 -409.48046875 -430.359375 -409.48046875 -430.359375 -418.1796875 -422.384765625 c 128,-1,0
 -426.879882812 -414.41015625 -426.879882812 -414.41015625 -426.879882812 -382.9453125 c 128,-1,1
-360.759765625 -121.219726562 m 128,-1,36
 -345.680664062 -92.7998046875 -345.680664062 -92.7998046875 -345.680664062 -67.8603515625 c 128,-1,37
 -345.680664062 -42.919921875 -345.680664062 -42.919921875 -364.240234375 -32.4794921875 c 0,38,39
 -373.520507812 -25.51953125 -373.520507812 -25.51953125 -383.959960938 -25.51953125 c 0,40,41
 -408.3203125 -25.51953125 -408.3203125 -25.51953125 -430.360351562 -64.9599609375 c 0,42,43
 -443.120117188 -87 -443.120117188 -87 -443.120117188 -93.9599609375 c 128,-1,44
 -443.120117188 -100.919921875 -443.120117188 -100.919921875 -438.48046875 -117.159179688 c 0,45,46
 -423.400390625 -160.080078125 -423.400390625 -160.080078125 -390.919921875 -154.279296875 c 0,47,35
 -375.83984375 -149.639648438 -375.83984375 -149.639648438 -360.759765625 -121.219726562 c 128,-1,36
EndSplineSet
EndChar

StartChar: F
Encoding: 70 70 4
Width: 46
VWidth: 1392
GlyphClass: 1
Flags: W
LayerCount: 2
Back
Refer: 21 102 N 1 0 0 1 280 -860 2
Fore
SplineSet
-179.799804688 3.48046875 m 1,0,1
 -204.16015625 27.837890625 -204.16015625 27.837890625 -204.16015625 35.958984375 c 0,2,3
 -204.16015625 53.361328125 -204.16015625 53.361328125 -193.719726562 60.3203125 c 0,4,5
 -186.759765625 67.2802734375 -186.759765625 67.2802734375 -179.219726562 67.2802734375 c 128,-1,6
 -171.680664062 67.2802734375 -171.680664062 67.2802734375 -165.299804688 64.3798828125 c 0,7,8
 -154.958984375 59.6796875 -154.958984375 59.6796875 -134.560546875 32.48046875 c 1,9,-1
 -90.48046875 63.80078125 l 2,10,11
 -80.0400390625 70.7607421875 -80.0400390625 70.7607421875 -67.8603515625 70.7607421875 c 128,-1,12
 -55.6806640625 70.7607421875 -55.6806640625 70.7607421875 -47.560546875 59.740234375 c 128,-1,13
 -39.4404296875 48.720703125 -39.4404296875 48.720703125 -42.919921875 32.48046875 c 256,14,15
 -46.400390625 16.240234375 -46.400390625 16.240234375 -109.040039062 -16.2392578125 c 1,16,17
 -103.240234375 -27.83984375 -103.240234375 -27.83984375 -103.240234375 -35.3798828125 c 128,-1,18
 -103.240234375 -42.919921875 -103.240234375 -42.919921875 -107.299804688 -51.0400390625 c 0,19,20
 -116.581054688 -69.599609375 -116.581054688 -69.599609375 -131.080078125 -69.599609375 c 256,21,22
 -144.228515625 -69.599609375 -144.228515625 -69.599609375 -151.959960938 -46.3994140625 c 2,23,-1
 -155.440429688 -35.9599609375 l 1,24,-1
 -203 -54.51953125 l 1,25,-1
 -203 -85.83984375 l 2,26,27
 -203 -146.159179688 -203 -146.159179688 -250.560546875 -172.83984375 c 0,28,29
 -285.02734375 -191.399414062 -285.02734375 -191.399414062 -354.959960938 -191.399414062 c 0,30,31
 -378.16015625 -191.399414062 -378.16015625 -191.399414062 -397.299804688 -187.919921875 c 128,-1,32
 -416.440429688 -184.439453125 -416.440429688 -184.439453125 -426.879882812 -184.439453125 c 256,33,34
 -441.794921875 -184.439453125 -441.794921875 -184.439453125 -471.458007812 -197.779296875 c 128,-1,35
 -501.120117188 -211.119140625 -501.120117188 -211.119140625 -519.680664062 -223.879882812 c 128,-1,36
 -538.240234375 -236.639648438 -538.240234375 -236.639648438 -570.719726562 -261 c 2,37,-1
 -593.919921875 -278.399414062 l 2,38,39
 -612.48046875 -291.159179688 -612.48046875 -291.159179688 -621.1796875 -291.159179688 c 128,-1,40
 -629.879882812 -291.159179688 -629.879882812 -291.159179688 -640.899414062 -276.659179688 c 128,-1,41
 -651.919921875 -262.159179688 -651.919921875 -262.159179688 -651.919921875 -251.719726562 c 128,-1,42
 -651.919921875 -241.279296875 -651.919921875 -241.279296875 -632.200195312 -229.6796875 c 1,43,44
 -614.799804688 -214.599609375 -614.799804688 -214.599609375 -595.080078125 -204.159179688 c 128,-1,45
 -575.360351562 -193.719726562 -575.360351562 -193.719726562 -531.280273438 -174 c 2,46,-1
 -469.799804688 -147.319335938 l 1,47,-1
 -468.640625 -110.19921875 l 2,48,49
 -467.48046875 -48.7197265625 -467.48046875 -48.7197265625 -423.400390625 -23.19921875 c 0,50,51
 -412.959960938 -16.2392578125 -412.959960938 -16.2392578125 -397.299804688 -13.919921875 c 128,-1,52
 -381.640625 -11.599609375 -381.640625 -11.599609375 -327.700195312 -11.599609375 c 128,-1,53
 -273.759765625 -11.599609375 -273.759765625 -11.599609375 -253.459960938 -13.919921875 c 0,54,55
 -212.861328125 -18.5595703125 -212.861328125 -18.5595703125 -179.799804688 3.48046875 c 1,0,1
-279.560546875 -88.1591796875 m 0,56,57
 -279.560546875 -49.8798828125 -279.560546875 -49.8798828125 -341.040039062 -49.8798828125 c 0,58,59
 -360.759765625 -49.8798828125 -360.759765625 -49.8798828125 -369.459960938 -53.359375 c 128,-1,60
 -378.16015625 -56.83984375 -378.16015625 -56.83984375 -392.66015625 -73.66015625 c 128,-1,61
 -407.16015625 -90.4794921875 -407.16015625 -90.4794921875 -407.16015625 -106.719726562 c 0,62,63
 -407.16015625 -139.19921875 -407.16015625 -139.19921875 -359.600585938 -139.19921875 c 0,64,65
 -319 -139.19921875 -319 -139.19921875 -299.280273438 -123.540039062 c 128,-1,66
 -279.560546875 -107.879882812 -279.560546875 -107.879882812 -279.560546875 -88.1591796875 c 0,56,57
EndSplineSet
EndChar

StartChar: G
Encoding: 71 71 5
Width: 46
VWidth: 1392
GlyphClass: 1
Flags: W
LayerCount: 2
Back
Refer: 22 103 N 1 0 0 1 280 -860 2
Fore
SplineSet
-480.240234375 -263.319335938 m 0,0,1
 -487.200195312 -270.279296875 -487.200195312 -270.279296875 -500.10546875 -270.279296875 c 128,-1,2
 -513.010742188 -270.279296875 -513.010742188 -270.279296875 -534.759765625 -241.279296875 c 1,3,-1
 -575.360351562 -271.439453125 l 2,4,5
 -592.759765625 -285.359375 -592.759765625 -285.359375 -599.139648438 -285.359375 c 0,6,7
 -606.677734375 -285.359375 -606.677734375 -285.359375 -620.600585938 -271.439453125 c 0,8,9
 -629.879882812 -258.6796875 -629.879882812 -258.6796875 -629.879882812 -252.879882812 c 0,10,11
 -629.879882812 -243.01953125 -629.879882812 -243.01953125 -609 -227.359375 c 0,12,13
 -591.600585938 -212.279296875 -591.600585938 -212.279296875 -560.280273438 -196.040039062 c 1,14,15
 -569.560546875 -175.159179688 -569.560546875 -175.159179688 -569.560546875 -166.459960938 c 128,-1,16
 -569.560546875 -157.759765625 -569.560546875 -157.759765625 -566.080078125 -150.799804688 c 0,17,18
 -557.379882812 -133.399414062 -557.379882812 -133.399414062 -542.879882812 -133.399414062 c 256,19,20
 -529.734375 -133.399414062 -529.734375 -133.399414062 -522 -156.599609375 c 2,21,-1
 -516.200195312 -172.83984375 l 1,22,-1
 -473.280273438 -149.639648438 l 1,23,-1
 -472.120117188 -112.51953125 l 2,24,25
 -470.959960938 -51.0400390625 -470.959960938 -51.0400390625 -426.879882812 -25.51953125 c 0,26,27
 -416.440429688 -18.5595703125 -416.440429688 -18.5595703125 -400.780273438 -16.2392578125 c 128,-1,28
 -385.120117188 -13.919921875 -385.120117188 -13.919921875 -331.1796875 -13.919921875 c 128,-1,29
 -277.240234375 -13.919921875 -277.240234375 -13.919921875 -256.940429688 -16.240234375 c 0,30,31
 -224.365234375 -19.962890625 -224.365234375 -19.962890625 -200.342773438 -8.2412109375 c 0,32,33
 -152.811523438 14.951171875 -152.811523438 14.951171875 -49.8798828125 87 c 0,34,35
 -42.919921875 92.80078125 -42.919921875 92.80078125 -28.419921875 92.80078125 c 128,-1,36
 -13.919921875 92.80078125 -13.919921875 92.80078125 -3.48046875 80.6201171875 c 128,-1,37
 6.9599609375 68.4404296875 6.9599609375 68.4404296875 2.3193359375 51.0400390625 c 0,38,39
 0 40.6005859375 0 40.6005859375 -40.6005859375 16.8203125 c 128,-1,40
 -81.2001953125 -6.9599609375 -81.2001953125 -6.9599609375 -139.200195312 -30.1591796875 c 2,41,-1
 -206.48046875 -56.83984375 l 1,42,-1
 -206.48046875 -88.1591796875 l 2,43,44
 -206.48046875 -148.479492188 -206.48046875 -148.479492188 -254.040039062 -175.159179688 c 0,45,46
 -288.508789062 -193.719726562 -288.508789062 -193.719726562 -358.440429688 -193.719726562 c 0,47,48
 -381.640625 -193.719726562 -381.640625 -193.719726562 -400.780273438 -190.240234375 c 128,-1,49
 -419.919921875 -186.759765625 -419.919921875 -186.759765625 -428.040039062 -186.759765625 c 256,50,51
 -436.161132812 -186.759765625 -436.161132812 -186.759765625 -470.959960938 -204.159179688 c 1,52,-1
 -488.360351562 -212.279296875 l 1,53,-1
 -481.400390625 -220.399414062 l 1,54,55
 -469.799804688 -232 -469.799804688 -232 -469.799804688 -239.540039062 c 0,56,57
 -469.799804688 -256.360351562 -469.799804688 -256.360351562 -480.240234375 -263.319335938 c 0,0,1
-283.040039062 -90.4794921875 m 0,58,59
 -283.040039062 -52.19921875 -283.040039062 -52.19921875 -344.520507812 -52.19921875 c 0,60,61
 -364.240234375 -52.19921875 -364.240234375 -52.19921875 -372.940429688 -55.6796875 c 128,-1,62
 -381.640625 -59.1591796875 -381.640625 -59.1591796875 -396.140625 -75.9794921875 c 128,-1,63
 -410.640625 -92.7998046875 -410.640625 -92.7998046875 -410.640625 -109.040039062 c 0,64,65
 -410.640625 -141.51953125 -410.640625 -141.51953125 -363.080078125 -141.51953125 c 0,66,67
 -322.479492188 -141.51953125 -322.479492188 -141.51953125 -302.759765625 -125.859375 c 128,-1,68
 -283.040039062 -110.19921875 -283.040039062 -110.19921875 -283.040039062 -90.4794921875 c 0,58,59
EndSplineSet
EndChar

StartChar: H
Encoding: 72 72 6
Width: 46
VWidth: 1392
GlyphClass: 1
Flags: W
LayerCount: 2
Back
Refer: 23 104 N 1 0 0 1 280 -860 2
Fore
SplineSet
-573.040039062 -224.459960938 m 128,-1,1
 -552.16015625 -248.239257812 -552.16015625 -248.239257812 -539.400390625 -252.879882812 c 128,-1,2
 -526.640625 -257.51953125 -526.640625 -257.51953125 -517.360351562 -257.51953125 c 0,3,4
 -492.051757812 -257.51953125 -492.051757812 -257.51953125 -447.180664062 -217.5 c 0,5,6
 -425.719726562 -198.359375 -425.719726562 -198.359375 -412.959960938 -177.479492188 c 1,7,-1
 -408.3203125 -172.83984375 l 1,8,-1
 -395.560546875 -177.479492188 l 1,9,10
 -363.657226562 -190.239257812 -363.657226562 -190.239257812 -339.008789062 -190.239257812 c 128,-1,11
 -314.360351562 -190.239257812 -314.360351562 -190.239257812 -296.379882812 -179.799804688 c 0,12,13
 -265.640625 -161.950195312 -265.640625 -161.950195312 -265.640625 -135.495117188 c 128,-1,14
 -265.640625 -109.040039062 -265.640625 -109.040039062 -266.799804688 -102.659179688 c 128,-1,15
 -267.959960938 -96.279296875 -267.959960938 -96.279296875 -278.399414062 -75.3994140625 c 128,-1,16
 -288.83984375 -54.51953125 -288.83984375 -54.51953125 -287.680664062 -51.0400390625 c 0,17,18
 -283.040039062 -46.3994140625 -283.040039062 -46.3994140625 -272.600585938 -38.859375 c 0,19,20
 -224.576171875 -4.1767578125 -224.576171875 -4.1767578125 -209.147460938 10.671875 c 128,-1,21
 -193.719726562 25.5205078125 -193.719726562 25.5205078125 -193.719726562 33.640625 c 128,-1,22
 -193.719726562 41.7607421875 -193.719726562 41.7607421875 -196.040039062 49.8798828125 c 128,-1,23
 -198.360351562 58 -198.360351562 58 -207.640625 66.7001953125 c 128,-1,24
 -216.919921875 75.400390625 -216.919921875 75.400390625 -220.400390625 75.400390625 c 0,25,26
 -234.322265625 64.9560546875 -234.322265625 64.9560546875 -269.120117188 27.8408203125 c 1,27,-1
 -316.680664062 -20.8798828125 l 1,28,-1
 -328.280273438 -10.439453125 l 2,29,30
 -339.879882812 1.16015625 -339.879882812 1.16015625 -351.48046875 4.640625 c 128,-1,31
 -363.080078125 8.1201171875 -363.080078125 8.1201171875 -385.700195312 8.1201171875 c 128,-1,32
 -408.3203125 8.1201171875 -408.3203125 8.1201171875 -422.240234375 3.48046875 c 0,33,34
 -433.83984375 -3.4794921875 -433.83984375 -3.4794921875 -444.280273438 -15.080078125 c 0,35,36
 -460.520507812 -33.1259765625 -460.520507812 -33.1259765625 -460.520507812 -61.22265625 c 128,-1,37
 -460.520507812 -89.3193359375 -460.520507812 -89.3193359375 -444.280273438 -118.319335938 c 1,38,-1
 -437.3203125 -133.399414062 l 1,39,40
 -443.122070312 -145.00390625 -443.122070312 -145.00390625 -469.220703125 -171.681640625 c 128,-1,41
 -495.3203125 -198.359375 -495.3203125 -198.359375 -508.66015625 -198.359375 c 128,-1,42
 -522 -198.359375 -522 -198.359375 -530.700195312 -180.379882812 c 0,43,44
 -548.942382812 -142.6796875 -548.942382812 -142.6796875 -564.919921875 -142.6796875 c 0,45,46
 -576.520507812 -142.6796875 -576.520507812 -142.6796875 -585.219726562 -157.1796875 c 128,-1,47
 -593.919921875 -171.6796875 -593.919921875 -171.6796875 -593.919921875 -186.1796875 c 128,-1,0
 -593.919921875 -200.6796875 -593.919921875 -200.6796875 -573.040039062 -224.459960938 c 128,-1,1
-330.600585938 -77.7197265625 m 0,48,49
 -330.600585938 -121.413085938 -330.600585938 -121.413085938 -367.719726562 -127.599609375 c 1,50,-1
 -373.520507812 -127.599609375 l 2,51,52
 -380.478515625 -127.599609375 -380.478515625 -127.599609375 -388.01953125 -120.639648438 c 128,-1,53
 -395.560546875 -113.6796875 -395.560546875 -113.6796875 -395.560546875 -102.080078125 c 256,54,55
 -395.560546875 -90.4794921875 -395.560546875 -90.4794921875 -389.1796875 -77.1396484375 c 128,-1,56
 -382.799804688 -63.7998046875 -382.799804688 -63.7998046875 -376.419921875 -59.7392578125 c 128,-1,57
 -370.040039062 -55.6796875 -370.040039062 -55.6796875 -354.379882812 -55.6796875 c 128,-1,58
 -338.719726562 -55.6796875 -338.719726562 -55.6796875 -334.66015625 -59.1591796875 c 128,-1,59
 -330.600585938 -62.6396484375 -330.600585938 -62.6396484375 -330.600585938 -77.7197265625 c 0,48,49
EndSplineSet
EndChar

StartChar: I
Encoding: 73 73 7
Width: 46
VWidth: 1392
GlyphClass: 1
Flags: W
LayerCount: 2
Back
Refer: 24 105 N 1 0 0 1 280 -860 2
Fore
SplineSet
-363.080078125 -250.559570312 m 0,0,1
 -339.879882812 -255.19921875 -339.879882812 -255.19921875 -317.259765625 -255.19921875 c 128,-1,2
 -294.640625 -255.19921875 -294.640625 -255.19921875 -276.080078125 -250.559570312 c 0,3,4
 -255.200195312 -241.279296875 -255.200195312 -241.279296875 -243.600585938 -223.879882812 c 0,5,6
 -241.280273438 -218.080078125 -241.280273438 -218.080078125 -241.280273438 -216.33984375 c 128,-1,7
 -241.280273438 -214.599609375 -241.280273438 -214.599609375 -244.759765625 -211.119140625 c 256,8,9
 -248.240234375 -207.639648438 -248.240234375 -207.639648438 -251.139648438 -207.639648438 c 128,-1,10
 -254.040039062 -207.639648438 -254.040039062 -207.639648438 -265.640625 -215.759765625 c 0,11,12
 -286.520507812 -223.879882812 -286.520507812 -223.879882812 -305.66015625 -223.879882812 c 128,-1,13
 -324.799804688 -223.879882812 -324.799804688 -223.879882812 -348 -204.16015625 c 128,-1,14
 -371.200195312 -184.439453125 -371.200195312 -184.439453125 -391.5 -180.959960938 c 128,-1,15
 -411.799804688 -177.479492188 -411.799804688 -177.479492188 -414.120117188 -174 c 128,-1,16
 -416.440429688 -170.51953125 -416.440429688 -170.51953125 -417.600585938 -151.959960938 c 2,17,-1
 -418.759765625 -136.879882812 l 1,18,-1
 -401.360351562 -128.759765625 l 1,19,20
 -373.520507812 -119.479492188 -373.520507812 -119.479492188 -349.16015625 -83.51953125 c 0,21,22
 -330.2890625 -53.3251953125 -330.2890625 -53.3251953125 -354.959960938 -21.4599609375 c 0,23,24
 -368.879882812 -3.4794921875 -368.879882812 -3.4794921875 -383.959960938 2.3203125 c 0,25,26
 -395.560546875 4.640625 -395.560546875 4.640625 -407.16015625 4.640625 c 2,27,-1
 -447.759765625 2.3203125 l 1,28,-1
 -476.759765625 -5.7998046875 l 1,29,30
 -509.240234375 -17.3994140625 -509.240234375 -17.3994140625 -523.16015625 -31.3193359375 c 0,31,32
 -539.400390625 -47.5595703125 -539.400390625 -47.5595703125 -539.400390625 -75.3994140625 c 0,33,34
 -539.400390625 -93.220703125 -539.400390625 -93.220703125 -520.83984375 -109.25 c 0,35,36
 -492.854492188 -133.420898438 -492.854492188 -133.420898438 -475.52734375 -135.150390625 c 128,-1,37
 -458.200195312 -136.879882812 -458.200195312 -136.879882812 -455.879882812 -141.51953125 c 1,38,-1
 -457.040039062 -156.599609375 l 2,39,40
 -459.360351562 -175.159179688 -459.360351562 -175.159179688 -467.48046875 -187.33984375 c 128,-1,41
 -475.600585938 -199.51953125 -475.600585938 -199.51953125 -493.580078125 -214.599609375 c 0,42,43
 -522.28515625 -238.674804688 -522.28515625 -238.674804688 -515.040039062 -245.919921875 c 256,44,45
 -511.560546875 -249.399414062 -511.560546875 -249.399414062 -505.759765625 -249.399414062 c 128,-1,46
 -499.959960938 -249.399414062 -499.959960938 -249.399414062 -481.979492188 -237.799804688 c 128,-1,47
 -464 -226.19921875 -464 -226.19921875 -436.740234375 -226.19921875 c 128,-1,48
 -409.48046875 -226.19921875 -409.48046875 -226.19921875 -399.620117188 -232.580078125 c 128,-1,49
 -389.759765625 -238.959960938 -389.759765625 -238.959960938 -378.740234375 -243.599609375 c 128,-1,50
 -367.719726562 -248.239257812 -367.719726562 -248.239257812 -363.080078125 -250.559570312 c 0,0,1
-426.879882812 -98.599609375 m 0,51,52
 -432.680664062 -103.239257812 -432.680664062 -103.239257812 -446.600585938 -103.239257812 c 128,-1,53
 -460.520507812 -103.239257812 -460.520507812 -103.239257812 -472.120117188 -84.6796875 c 0,54,55
 -476.759765625 -78.8798828125 -476.759765625 -78.8798828125 -476.759765625 -69.599609375 c 256,56,57
 -476.759765625 -46.6904296875 -476.759765625 -46.6904296875 -446.600585938 -27.83984375 c 1,58,-1
 -433.83984375 -20.8798828125 l 1,59,-1
 -425.719726562 -25.51953125 l 1,60,-1
 -408.3203125 -34.7998046875 l 1,61,62
 -401.360351562 -44.078125 -401.360351562 -44.078125 -401.360351562 -54.51953125 c 0,63,64
 -401.360351562 -83.51953125 -401.360351562 -83.51953125 -426.879882812 -98.599609375 c 0,51,52
EndSplineSet
EndChar

StartChar: J
Encoding: 74 74 8
Width: 46
VWidth: 1392
GlyphClass: 1
Flags: W
LayerCount: 2
Back
Refer: 25 106 N 1 0 0 1 280 -860 2
Fore
SplineSet
77.7197265625 -139.19921875 m 0,0,1
 80.0400390625 -145 80.0400390625 -145 80.0400390625 -160.080078125 c 128,-1,2
 80.0400390625 -175.159179688 80.0400390625 -175.159179688 73.66015625 -190.239257812 c 128,-1,3
 67.2802734375 -205.319335938 67.2802734375 -205.319335938 56.2607421875 -211.700195312 c 128,-1,4
 45.240234375 -218.080078125 45.240234375 -218.080078125 17.400390625 -218.080078125 c 128,-1,5
 -10.4404296875 -218.080078125 -10.4404296875 -218.080078125 -23.2001953125 -208.799804688 c 128,-1,6
 -35.9599609375 -199.51953125 -35.9599609375 -199.51953125 -35.9599609375 -189.66015625 c 128,-1,7
 -35.9599609375 -179.799804688 -35.9599609375 -179.799804688 -27.259765625 -175.159179688 c 128,-1,8
 -18.560546875 -170.51953125 -18.560546875 -170.51953125 -0.580078125 -173.419921875 c 128,-1,9
 17.3994140625 -176.319335938 17.3994140625 -176.319335938 17.3994140625 -168.19921875 c 256,10,11
 17.3994140625 -160.080078125 17.3994140625 -160.080078125 -1.740234375 -147.319335938 c 0,12,13
 -35.9091796875 -124.540039062 -35.9091796875 -124.540039062 -93.9599609375 -118.319335938 c 1,14,15
 -104.689453125 -161.239257812 -104.689453125 -161.239257812 -134.560546875 -161.239257812 c 0,16,17
 -142.680664062 -161.239257812 -142.680664062 -161.239257812 -148.48046875 -156.599609375 c 128,-1,18
 -154.280273438 -151.959960938 -154.280273438 -151.959960938 -154.280273438 -145 c 128,-1,19
 -154.280273438 -138.040039062 -154.280273438 -138.040039062 -149.640625 -125.279296875 c 2,20,-1
 -146.16015625 -114.83984375 l 1,21,-1
 -214.600585938 -111.359375 l 1,22,-1
 -214.600585938 -117.159179688 l 2,23,24
 -214.600585938 -155.553710938 -214.600585938 -155.553710938 -259.259765625 -175.159179688 c 0,25,26
 -283.040039062 -185.599609375 -283.040039062 -185.599609375 -314.360351562 -185.599609375 c 128,-1,27
 -345.680664062 -185.599609375 -345.680664062 -185.599609375 -374.100585938 -172.259765625 c 128,-1,28
 -402.520507812 -158.919921875 -402.520507812 -158.919921875 -438.48046875 -126.439453125 c 0,29,30
 -445.440429688 -120.639648438 -445.440429688 -120.639648438 -450.080078125 -107.879882812 c 1,31,32
 -575.360351562 -110.19921875 -575.360351562 -110.19921875 -628.719726562 -113.099609375 c 128,-1,33
 -682.080078125 -116 -682.080078125 -116 -709.919921875 -116 c 128,-1,34
 -737.759765625 -116 -737.759765625 -116 -743.560546875 -110.19921875 c 0,35,36
 -758.640625 -92.7998046875 -758.640625 -92.7998046875 -682.080078125 -81.19921875 c 128,-1,37
 -605.520507812 -69.599609375 -605.520507812 -69.599609375 -453.560546875 -66.119140625 c 1,38,39
 -444.280273438 -35.9599609375 -444.280273438 -35.9599609375 -414.700195312 -13.33984375 c 128,-1,40
 -385.120117188 9.2802734375 -385.120117188 9.2802734375 -356.120117188 6.9599609375 c 0,41,42
 -307.400390625 3.48046875 -307.400390625 3.48046875 -274.919921875 -16.2392578125 c 128,-1,43
 -242.440429688 -35.9599609375 -242.440429688 -35.9599609375 -227.360351562 -64.9599609375 c 1,44,-1
 -139.200195312 -67.279296875 l 1,45,46
 -140.360351562 -60.3193359375 -140.360351562 -60.3193359375 -140.360351562 -49.8798828125 c 2,47,-1
 -140.360351562 -41.759765625 l 2,48,49
 -140.360351562 -31.3193359375 -140.360351562 -31.3193359375 -132.8203125 -23.779296875 c 128,-1,50
 -125.280273438 -16.2392578125 -125.280273438 -16.2392578125 -110.780273438 -16.2392578125 c 128,-1,51
 -96.2802734375 -16.2392578125 -96.2802734375 -16.2392578125 -89.3203125 -32.4794921875 c 0,52,53
 -85.83984375 -39.439453125 -85.83984375 -39.439453125 -85.83984375 -71.919921875 c 1,54,55
 -20.9501953125 -76.912109375 -20.9501953125 -76.912109375 25.484375 -99.3564453125 c 128,-1,56
 71.919921875 -121.799804688 71.919921875 -121.799804688 77.7197265625 -139.19921875 c 0,0,1
-394.400390625 -64.9599609375 m 1,57,-1
 -334.080078125 -64.9599609375 l 1,58,-1
 -299.280273438 -64.9599609375 l 1,59,60
 -328.280273438 -41.759765625 -328.280273438 -41.759765625 -345.099609375 -41.759765625 c 0,61,62
 -377.000976562 -41.759765625 -377.000976562 -41.759765625 -394.400390625 -64.9599609375 c 1,57,-1
-276.080078125 -110.19921875 m 1,63,-1
 -387.440429688 -107.879882812 l 1,64,65
 -374.680664062 -124.119140625 -374.680664062 -124.119140625 -342.200195312 -132.239257812 c 0,66,67
 -337.560546875 -133.399414062 -337.560546875 -133.399414062 -325.379882812 -133.399414062 c 128,-1,68
 -313.200195312 -133.399414062 -313.200195312 -133.399414062 -298.700195312 -127.599609375 c 0,69,70
 -281.299804688 -120.640625 -281.299804688 -120.640625 -276.080078125 -110.19921875 c 1,63,-1
EndSplineSet
EndChar

StartChar: K
Encoding: 75 75 9
Width: 46
VWidth: 1392
GlyphClass: 1
Flags: W
LayerCount: 2
Back
Refer: 26 107 N 1 0 0 1 280 -860 2
Fore
SplineSet
-567.8203125 -219.239257812 m 128,-1,1
 -547.520507812 -242.439453125 -547.520507812 -242.439453125 -533.600585938 -247.080078125 c 128,-1,2
 -519.680664062 -251.719726562 -519.680664062 -251.719726562 -510.98046875 -251.719726562 c 128,-1,3
 -502.280273438 -251.719726562 -502.280273438 -251.719726562 -482.559570312 -241.860351562 c 128,-1,4
 -462.83984375 -232 -462.83984375 -232 -441.379882812 -212.859375 c 128,-1,5
 -419.919921875 -193.719726562 -419.919921875 -193.719726562 -407.16015625 -172.83984375 c 1,6,-1
 -402.520507812 -167.040039062 l 1,7,-1
 -389.759765625 -172.83984375 l 1,8,9
 -354.958007812 -184.439453125 -354.958007812 -184.439453125 -331.759765625 -184.439453125 c 128,-1,10
 -308.560546875 -184.439453125 -308.560546875 -184.439453125 -290.580078125 -174 c 0,11,12
 -259.83984375 -156.150390625 -259.83984375 -156.150390625 -259.83984375 -130.274414062 c 128,-1,13
 -259.83984375 -104.399414062 -259.83984375 -104.399414062 -261 -97.439453125 c 128,-1,14
 -262.16015625 -90.4794921875 -262.16015625 -90.4794921875 -271.440429688 -70.759765625 c 1,15,-1
 -291.16015625 -38.279296875 l 1,16,-1
 -310.879882812 -15.080078125 l 1,17,-1
 -321.3203125 -5.7998046875 l 2,18,19
 -334.080078125 5.80078125 -334.080078125 5.80078125 -345.100585938 9.8603515625 c 128,-1,20
 -356.120117188 13.919921875 -356.120117188 13.919921875 -374.6796875 13.919921875 c 0,21,22
 -400.975585938 13.919921875 -400.975585938 13.919921875 -416.440429688 8.1201171875 c 0,23,24
 -426.879882812 2.3203125 -426.879882812 2.3203125 -437.3203125 -8.69921875 c 0,25,26
 -454.719726562 -27.0673828125 -454.719726562 -27.0673828125 -454.719726562 -55.2939453125 c 128,-1,27
 -454.719726562 -83.51953125 -454.719726562 -83.51953125 -438.48046875 -112.51953125 c 1,28,-1
 -431.520507812 -127.599609375 l 1,29,30
 -431.520507812 -132.239257812 -431.520507812 -132.239257812 -459.940429688 -162.979492188 c 128,-1,31
 -488.360351562 -193.719726562 -488.360351562 -193.719726562 -502.280273438 -193.719726562 c 128,-1,32
 -516.200195312 -193.719726562 -516.200195312 -193.719726562 -524.900390625 -175.740234375 c 128,-1,33
 -533.600585938 -157.759765625 -533.600585938 -157.759765625 -542.879882812 -147.899414062 c 128,-1,34
 -552.16015625 -138.040039062 -552.16015625 -138.040039062 -560.860351562 -138.040039062 c 128,-1,35
 -569.560546875 -138.040039062 -569.560546875 -138.040039062 -578.83984375 -151.379882812 c 128,-1,36
 -588.120117188 -164.719726562 -588.120117188 -164.719726562 -588.120117188 -180.379882812 c 128,-1,0
 -588.120117188 -196.040039062 -588.120117188 -196.040039062 -567.8203125 -219.239257812 c 128,-1,1
-342.200195312 -114.83984375 m 0,37,38
 -348 -119.479492188 -348 -119.479492188 -368.879882812 -122.959960938 c 0,39,40
 -373.520507812 -122.959960938 -373.520507812 -122.959960938 -381.060546875 -115.419921875 c 128,-1,41
 -388.600585938 -107.879882812 -388.600585938 -107.879882812 -388.600585938 -96.8603515625 c 128,-1,42
 -388.600585938 -85.83984375 -388.600585938 -85.83984375 -382.799804688 -71.919921875 c 128,-1,43
 -377 -58 -377 -58 -370.040039062 -53.939453125 c 128,-1,44
 -363.080078125 -49.8798828125 -363.080078125 -49.8798828125 -348 -49.8798828125 c 128,-1,45
 -332.919921875 -49.8798828125 -332.919921875 -49.8798828125 -328.860351562 -53.359375 c 128,-1,46
 -324.799804688 -56.83984375 -324.799804688 -56.83984375 -324.799804688 -72.5 c 0,47,48
 -324.799804688 -107.381835938 -324.799804688 -107.381835938 -342.200195312 -114.83984375 c 0,37,38
EndSplineSet
EndChar

StartChar: Q
Encoding: 81 81 10
Width: 46
VWidth: 1392
GlyphClass: 1
Flags: W
LayerCount: 2
Back
Refer: 28 113 N 1 0 0 1 290 -860 2
Fore
SplineSet
-401.359375 -154.279296875 m 0,0,1
 -395.559570312 -155.439453125 -395.559570312 -155.439453125 -395.559570312 -164.719726562 c 128,-1,2
 -395.559570312 -174 -395.559570312 -174 -401.359375 -277.239257812 c 1,3,4
 -401.359375 -301.599609375 -401.359375 -301.599609375 -396.719726562 -307.979492188 c 128,-1,5
 -392.080078125 -314.359375 -392.080078125 -314.359375 -377 -314.359375 c 128,-1,6
 -361.919921875 -314.359375 -361.919921875 -314.359375 -355.540039062 -304.5 c 128,-1,7
 -349.159179688 -294.639648438 -349.159179688 -294.639648438 -349.159179688 -282.459960938 c 128,-1,8
 -349.159179688 -270.279296875 -349.159179688 -270.279296875 -357.279296875 -174 c 0,9,10
 -357.279296875 -162.399414062 -357.279296875 -162.399414062 -354.379882812 -156.01953125 c 128,-1,11
 -351.479492188 -149.639648438 -351.479492188 -149.639648438 -338.139648438 -135.139648438 c 128,-1,12
 -324.799804688 -120.639648438 -324.799804688 -120.639648438 -299.280273438 -73.080078125 c 128,-1,13
 -273.759765625 -25.51953125 -273.759765625 -25.51953125 -273.759765625 8.1201171875 c 0,14,15
 -273.759765625 54.5205078125 -273.759765625 54.5205078125 -322.479492188 83.5205078125 c 0,16,17
 -334.080078125 89.3203125 -334.080078125 89.3203125 -348.580078125 89.3203125 c 128,-1,18
 -363.080078125 89.3203125 -363.080078125 89.3203125 -394.399414062 76.560546875 c 256,19,20
 -425.719726562 63.80078125 -425.719726562 63.80078125 -449.5 24.3603515625 c 128,-1,21
 -473.279296875 -15.080078125 -473.279296875 -15.080078125 -475.599609375 -68.439453125 c 0,22,23
 -476.759765625 -96.279296875 -476.759765625 -96.279296875 -454.719726562 -120.639648438 c 128,-1,24
 -432.6796875 -145 -432.6796875 -145 -401.359375 -154.279296875 c 0,0,1
-385.119140625 -99.759765625 m 0,25,26
 -396.719726562 -102.080078125 -396.719726562 -102.080078125 -408.899414062 -90.4794921875 c 0,27,28
 -436.94140625 -63.7763671875 -436.94140625 -63.7763671875 -415.859375 -22.619140625 c 0,29,30
 -403.6796875 1.16015625 -403.6796875 1.16015625 -385.69921875 15.66015625 c 128,-1,31
 -367.719726562 30.16015625 -367.719726562 30.16015625 -357.280273438 23.2001953125 c 0,32,33
 -335.239257812 8.505859375 -335.239257812 8.505859375 -335.239257812 -29 c 0,34,35
 -335.239257812 -86.6337890625 -335.239257812 -86.6337890625 -385.119140625 -99.759765625 c 0,25,26
EndSplineSet
EndChar

StartChar: R
Encoding: 82 82 11
Width: 46
VWidth: 1392
GlyphClass: 1
Flags: W
LayerCount: 2
Back
Refer: 29 114 N 1 0 0 1 280 -860 2
Fore
SplineSet
66.1201171875 -482.559570312 m 0,0,1
 -28.8876953125 -411.62109375 -28.8876953125 -411.62109375 -101.5 -383.959960938 c 0,2,3
 -113.680664062 -379.319335938 -113.680664062 -379.319335938 -124.120117188 -379.319335938 c 256,4,5
 -134.560546875 -379.319335938 -134.560546875 -379.319335938 -153.700195312 -382.799804688 c 128,-1,6
 -172.83984375 -386.279296875 -172.83984375 -386.279296875 -200.099609375 -386.279296875 c 0,7,8
 -265.97265625 -386.279296875 -265.97265625 -386.279296875 -300.440429688 -367.719726562 c 0,9,10
 -348 -341.040039062 -348 -341.040039062 -348 -280.719726562 c 2,11,-1
 -348 -249.399414062 l 1,12,-1
 -415.280273438 -222.719726562 l 2,13,14
 -473.280273438 -199.51953125 -473.280273438 -199.51953125 -513.879882812 -175.739257812 c 128,-1,15
 -554.48046875 -151.959960938 -554.48046875 -151.959960938 -556.799804688 -141.51953125 c 0,16,17
 -561.440429688 -124.119140625 -561.440429688 -124.119140625 -551 -111.939453125 c 128,-1,18
 -540.560546875 -99.759765625 -540.560546875 -99.759765625 -526.060546875 -99.759765625 c 128,-1,19
 -511.560546875 -99.759765625 -511.560546875 -99.759765625 -504.600585938 -105.559570312 c 0,20,21
 -399.528320312 -179.110351562 -399.528320312 -179.110351562 -372.024414062 -192.21484375 c 128,-1,22
 -344.520507812 -205.319335938 -344.520507812 -205.319335938 -331.180664062 -208.219726562 c 128,-1,23
 -317.83984375 -211.119140625 -317.83984375 -211.119140625 -297.540039062 -208.799804688 c 128,-1,24
 -277.240234375 -206.479492188 -277.240234375 -206.479492188 -223.299804688 -206.479492188 c 128,-1,25
 -169.360351562 -206.479492188 -169.360351562 -206.479492188 -153.700195312 -208.799804688 c 128,-1,26
 -138.040039062 -211.119140625 -138.040039062 -211.119140625 -127.600585938 -218.080078125 c 0,27,28
 -83.5205078125 -243.599609375 -83.5205078125 -243.599609375 -82.3603515625 -305.080078125 c 2,29,-1
 -81.2001953125 -342.19921875 l 1,30,-1
 -19.7197265625 -368.879882812 l 2,31,32
 42.919921875 -396.719726562 42.919921875 -396.719726562 64.9599609375 -407.739257812 c 128,-1,33
 87 -418.759765625 87 -418.759765625 104.399414062 -433.83984375 c 1,34,35
 124.120117188 -445.439453125 124.120117188 -445.439453125 124.120117188 -455.879882812 c 128,-1,36
 124.120117188 -466.319335938 124.120117188 -466.319335938 113.100585938 -480.819335938 c 128,-1,37
 102.080078125 -495.319335938 102.080078125 -495.319335938 93.3798828125 -495.319335938 c 128,-1,38
 84.6796875 -495.319335938 84.6796875 -495.319335938 66.1201171875 -482.559570312 c 0,0,1
-143.83984375 -301.599609375 m 0,39,40
 -143.83984375 -285.359375 -143.83984375 -285.359375 -158.33984375 -268.540039062 c 128,-1,41
 -172.83984375 -251.719726562 -172.83984375 -251.719726562 -181.540039062 -248.239257812 c 128,-1,42
 -190.240234375 -244.759765625 -190.240234375 -244.759765625 -209.959960938 -244.759765625 c 0,43,44
 -271.440429688 -244.759765625 -271.440429688 -244.759765625 -271.440429688 -283.040039062 c 0,45,46
 -271.440429688 -302.759765625 -271.440429688 -302.759765625 -256.940429688 -314.360351562 c 0,47,48
 -232.290039062 -334.080078125 -232.290039062 -334.080078125 -188.064453125 -334.080078125 c 128,-1,49
 -143.83984375 -334.080078125 -143.83984375 -334.080078125 -143.83984375 -301.599609375 c 0,39,40
EndSplineSet
EndChar

StartChar: S
Encoding: 83 83 12
Width: 46
VWidth: 1392
GlyphClass: 1
Flags: W
LayerCount: 2
Back
Refer: 30 115 N 1 0 0 1 280 -860 2
Fore
SplineSet
-498.799804688 -482.559570312 m 0,0,1
 -517.360351562 -495.319335938 -517.360351562 -495.319335938 -526.059570312 -495.319335938 c 128,-1,2
 -534.759765625 -495.319335938 -534.759765625 -495.319335938 -545.779296875 -480.819335938 c 128,-1,3
 -556.799804688 -466.319335938 -556.799804688 -466.319335938 -556.799804688 -455.879882812 c 128,-1,4
 -556.799804688 -445.439453125 -556.799804688 -445.439453125 -537.080078125 -433.83984375 c 1,5,6
 -519.680664062 -418.759765625 -519.680664062 -418.759765625 -497.640625 -407.739257812 c 128,-1,7
 -475.600585938 -396.719726562 -475.600585938 -396.719726562 -412.959960938 -368.879882812 c 2,8,-1
 -351.48046875 -342.19921875 l 1,9,-1
 -350.3203125 -305.080078125 l 2,10,11
 -349.16015625 -243.599609375 -349.16015625 -243.599609375 -305.080078125 -218.080078125 c 0,12,13
 -294.640625 -211.119140625 -294.640625 -211.119140625 -278.98046875 -208.799804688 c 128,-1,14
 -263.3203125 -206.479492188 -263.3203125 -206.479492188 -209.379882812 -206.479492188 c 128,-1,15
 -155.440429688 -206.479492188 -155.440429688 -206.479492188 -135.139648438 -208.799804688 c 0,16,17
 -102.565429688 -212.522460938 -102.565429688 -212.522460938 -78.54296875 -200.801757812 c 0,18,19
 -30.9951171875 -177.602539062 -30.9951171875 -177.602539062 71.919921875 -105.559570312 c 0,20,21
 78.8798828125 -99.759765625 78.8798828125 -99.759765625 93.3798828125 -99.759765625 c 128,-1,22
 107.879882812 -99.759765625 107.879882812 -99.759765625 118.319335938 -111.939453125 c 128,-1,23
 128.759765625 -124.119140625 128.759765625 -124.119140625 124.120117188 -141.51953125 c 0,24,25
 121.799804688 -151.959960938 121.799804688 -151.959960938 81.2001953125 -175.739257812 c 128,-1,26
 40.599609375 -199.51953125 40.599609375 -199.51953125 -17.400390625 -222.719726562 c 2,27,-1
 -84.6806640625 -249.399414062 l 1,28,-1
 -84.6806640625 -280.719726562 l 2,29,30
 -84.6806640625 -341.040039062 -84.6806640625 -341.040039062 -132.240234375 -367.719726562 c 0,31,32
 -166.70703125 -386.279296875 -166.70703125 -386.279296875 -236.640625 -386.279296875 c 0,33,34
 -259.83984375 -386.279296875 -259.83984375 -386.279296875 -278.979492188 -382.799804688 c 128,-1,35
 -298.120117188 -379.319335938 -298.120117188 -379.319335938 -308.560546875 -379.319335938 c 256,36,37
 -323.474609375 -379.319335938 -323.474609375 -379.319335938 -360.759765625 -396.719726562 c 0,38,39
 -411.799804688 -417.599609375 -411.799804688 -417.599609375 -498.799804688 -482.559570312 c 0,0,1
-288.83984375 -301.599609375 m 0,40,41
 -288.83984375 -334.080078125 -288.83984375 -334.080078125 -241.280273438 -334.080078125 c 0,42,43
 -200.680664062 -334.080078125 -200.680664062 -334.080078125 -180.959960938 -318.419921875 c 128,-1,44
 -161.240234375 -302.759765625 -161.240234375 -302.759765625 -161.240234375 -283.040039062 c 0,45,46
 -161.240234375 -244.759765625 -161.240234375 -244.759765625 -222.719726562 -244.759765625 c 0,47,48
 -242.440429688 -244.759765625 -242.440429688 -244.759765625 -251.140625 -248.239257812 c 128,-1,49
 -259.83984375 -251.719726562 -259.83984375 -251.719726562 -274.33984375 -268.540039062 c 128,-1,50
 -288.83984375 -285.359375 -288.83984375 -285.359375 -288.83984375 -301.599609375 c 0,40,41
EndSplineSet
EndChar

StartChar: T
Encoding: 84 84 13
Width: 46
VWidth: 1392
GlyphClass: 1
Flags: W
LayerCount: 2
Back
Refer: 32 116 N 1 0 0 1 280 -860 2
Fore
SplineSet
-407.16015625 -45.2392578125 m 0,0,1
 -406 -41.759765625 -406 -41.759765625 -406 -35.9599609375 c 128,-1,2
 -406 -30.1591796875 -406 -30.1591796875 -407.16015625 -19.7197265625 c 128,-1,3
 -408.3203125 -9.279296875 -408.3203125 -9.279296875 -414.120117188 62.640625 c 1,4,5
 -414.120117188 87 -414.120117188 87 -407.740234375 97.4404296875 c 128,-1,6
 -401.360351562 107.880859375 -401.360351562 107.880859375 -386.860351562 107.880859375 c 128,-1,7
 -372.360351562 107.880859375 -372.360351562 107.880859375 -368.299804688 103.8203125 c 0,8,9
 -355.772460938 91.29296875 -355.772460938 91.29296875 -365.400390625 4.640625 c 0,10,11
 -367.719726562 -25.51953125 -367.719726562 -25.51953125 -367.719726562 -38.2802734375 c 128,-1,12
 -367.719726562 -51.0400390625 -367.719726562 -51.0400390625 -361.919921875 -52.19921875 c 1,13,-1
 -359.600585938 -53.359375 l 1,14,15
 -327.120117188 -62.6396484375 -327.120117188 -62.6396484375 -304.5 -82.359375 c 0,16,17
 -263.3203125 -118.260742188 -263.3203125 -118.260742188 -263.3203125 -167.040039062 c 0,18,19
 -263.3203125 -207.75390625 -263.3203125 -207.75390625 -307.98046875 -227.359375 c 0,20,21
 -331.759765625 -237.799804688 -331.759765625 -237.799804688 -363.080078125 -237.799804688 c 128,-1,22
 -394.400390625 -237.799804688 -394.400390625 -237.799804688 -422.8203125 -224.459960938 c 128,-1,23
 -451.240234375 -211.119140625 -451.240234375 -211.119140625 -487.200195312 -178.639648438 c 0,24,25
 -503.440429688 -162.399414062 -503.440429688 -162.399414062 -503.440429688 -142.099609375 c 128,-1,26
 -503.440429688 -121.799804688 -503.440429688 -121.799804688 -502.280273438 -119.479492188 c 0,27,28
 -493 -89.3193359375 -493 -89.3193359375 -464.580078125 -66.69921875 c 128,-1,29
 -436.16015625 -44.080078125 -436.16015625 -44.080078125 -407.16015625 -45.2392578125 c 0,0,1
-331.759765625 -134.559570312 m 128,-1,31
 -345.680664062 -116 -345.680664062 -116 -368.299804688 -103.239257812 c 0,32,33
 -406.793945312 -81.525390625 -406.793945312 -81.525390625 -437.3203125 -110.779296875 c 0,34,35
 -451.240234375 -124.119140625 -451.240234375 -124.119140625 -447.759765625 -135.719726562 c 0,36,37
 -440.799804688 -157.759765625 -440.799804688 -157.759765625 -429.200195312 -167.619140625 c 0,38,39
 -408.047851562 -185.599609375 -408.047851562 -185.599609375 -384.983398438 -185.599609375 c 0,40,41
 -341.619140625 -185.599609375 -341.619140625 -185.599609375 -325.959960938 -164.719726562 c 0,42,30
 -317.83984375 -153.119140625 -317.83984375 -153.119140625 -331.759765625 -134.559570312 c 128,-1,31
EndSplineSet
EndChar

StartChar: U
Encoding: 85 85 14
Width: 46
VWidth: 1392
GlyphClass: 1
Flags: W
LayerCount: 2
Back
Refer: 33 117 N 1 0 0 1 280 -860 2
Fore
SplineSet
-466.900390625 -198.359375 m 128,-1,1
 -474.440429688 -209.959960938 -474.440429688 -209.959960938 -497.849609375 -229.776367188 c 128,-1,2
 -521.259765625 -249.59375 -521.259765625 -249.59375 -516.989257812 -254.716796875 c 128,-1,3
 -512.719726562 -259.83984375 -512.719726562 -259.83984375 -506.33984375 -259.83984375 c 128,-1,4
 -499.959960938 -259.83984375 -499.959960938 -259.83984375 -483.139648438 -248.240234375 c 128,-1,5
 -466.3203125 -236.639648438 -466.3203125 -236.639648438 -438.48046875 -236.639648438 c 128,-1,6
 -410.640625 -236.639648438 -410.640625 -236.639648438 -399.040039062 -244.1796875 c 128,-1,7
 -387.440429688 -251.719726562 -387.440429688 -251.719726562 -365.400390625 -259.259765625 c 128,-1,8
 -343.360351562 -266.799804688 -343.360351562 -266.799804688 -317.259765625 -266.799804688 c 128,-1,9
 -291.16015625 -266.799804688 -291.16015625 -266.799804688 -273.759765625 -260.419921875 c 128,-1,10
 -256.360351562 -254.040039062 -256.360351562 -254.040039062 -243.600585938 -233.159179688 c 0,11,12
 -241.280273438 -229.6796875 -241.280273438 -229.6796875 -241.280273438 -227.359375 c 128,-1,13
 -241.280273438 -225.040039062 -241.280273438 -225.040039062 -244.759765625 -221.559570312 c 0,14,15
 -249.400390625 -219.239257812 -249.400390625 -219.239257812 -251.139648438 -219.239257812 c 128,-1,16
 -252.879882812 -219.239257812 -252.879882812 -219.239257812 -265.640625 -227.359375 c 0,17,18
 -284.200195312 -233.159179688 -284.200195312 -233.159179688 -306.240234375 -233.159179688 c 128,-1,19
 -328.280273438 -233.159179688 -328.280273438 -233.159179688 -349.16015625 -213.439453125 c 0,20,21
 -371.200195312 -194.879882812 -371.200195312 -194.879882812 -391.5 -191.400390625 c 128,-1,22
 -411.799804688 -187.919921875 -411.799804688 -187.919921875 -414.120117188 -184.439453125 c 128,-1,23
 -416.440429688 -180.959960938 -416.440429688 -180.959960938 -417.600585938 -162.399414062 c 2,24,-1
 -418.759765625 -149.639648438 l 1,25,-1
 -401.360351562 -141.51953125 l 1,26,27
 -371.200195312 -125.279296875 -371.200195312 -125.279296875 -349.16015625 -93.9599609375 c 0,28,29
 -342.200195312 -84.6796875 -342.200195312 -84.6796875 -341.040039062 -80.619140625 c 128,-1,30
 -339.879882812 -76.5595703125 -339.879882812 -76.5595703125 -340.459960938 -63.2197265625 c 128,-1,31
 -341.040039062 -49.8798828125 -341.040039062 -49.8798828125 -354.959960938 -31.8994140625 c 128,-1,32
 -368.879882812 -13.919921875 -368.879882812 -13.919921875 -383.959960938 -8.119140625 c 0,33,34
 -395.560546875 -5.7998046875 -395.560546875 -5.7998046875 -407.16015625 -5.7998046875 c 2,35,-1
 -418.759765625 -5.7998046875 l 1,36,-1
 -418.759765625 34.80078125 l 1,37,-1
 -417.600585938 61.48046875 l 2,38,39
 -417.600585938 76.560546875 -417.600585938 76.560546875 -420.5 78.2998046875 c 128,-1,40
 -423.400390625 80.0400390625 -423.400390625 80.0400390625 -430.940429688 80.0400390625 c 128,-1,41
 -438.48046875 80.0400390625 -438.48046875 80.0400390625 -452.400390625 70.7607421875 c 1,42,-1
 -460.520507812 62.640625 l 1,43,-1
 -458.200195312 34.80078125 l 1,44,-1
 -457.040039062 2.3203125 l 2,45,46
 -457.040039062 -10.2080078125 -457.040039062 -10.2080078125 -465.16015625 -12.6435546875 c 128,-1,47
 -473.280273438 -15.080078125 -473.280273438 -15.080078125 -491.259765625 -21.4599609375 c 128,-1,48
 -509.240234375 -27.83984375 -509.240234375 -27.83984375 -523.16015625 -42.33984375 c 0,49,50
 -539.400390625 -59.2568359375 -539.400390625 -59.2568359375 -539.400390625 -85.83984375 c 0,51,52
 -539.400390625 -104.6015625 -539.400390625 -104.6015625 -520.83984375 -120.741210938 c 128,-1,53
 -502.280273438 -136.879882812 -502.280273438 -136.879882812 -495.3203125 -139.780273438 c 128,-1,54
 -488.360351562 -142.6796875 -488.360351562 -142.6796875 -481.98046875 -144.419921875 c 128,-1,55
 -475.600585938 -146.159179688 -475.600585938 -146.159179688 -468.640625 -149.639648438 c 0,56,57
 -458.200195312 -149.639648438 -458.200195312 -149.639648438 -455.879882812 -151.959960938 c 1,58,-1
 -457.040039062 -168.19921875 l 2,59,0
 -459.360351562 -186.759765625 -459.360351562 -186.759765625 -466.900390625 -198.359375 c 128,-1,1
-408.3203125 -91.0595703125 m 128,-1,61
 -415.280273438 -103.239257812 -415.280273438 -103.239257812 -423.98046875 -109.040039062 c 128,-1,62
 -432.680664062 -114.83984375 -432.680664062 -114.83984375 -446.020507812 -114.83984375 c 128,-1,63
 -459.360351562 -114.83984375 -459.360351562 -114.83984375 -472.120117188 -95.119140625 c 0,64,65
 -476.759765625 -89.3193359375 -476.759765625 -89.3193359375 -476.759765625 -80.0400390625 c 256,66,67
 -476.759765625 -64.9580078125 -476.759765625 -64.9580078125 -466.319335938 -54.51953125 c 128,-1,68
 -455.879882812 -44.080078125 -455.879882812 -44.080078125 -446.600585938 -37.119140625 c 1,69,-1
 -433.83984375 -32.4794921875 l 1,70,71
 -420.302734375 -38.2822265625 -420.302734375 -38.2822265625 -415.471679688 -41.181640625 c 128,-1,72
 -410.640625 -44.080078125 -410.640625 -44.080078125 -408.3203125 -45.2392578125 c 0,73,74
 -401.360351562 -54.51953125 -401.360351562 -54.51953125 -401.360351562 -66.7001953125 c 128,-1,60
 -401.360351562 -78.8798828125 -401.360351562 -78.8798828125 -408.3203125 -91.0595703125 c 128,-1,61
EndSplineSet
EndChar

StartChar: W
Encoding: 87 87 15
Width: 46
VWidth: 1392
GlyphClass: 1
Flags: W
LayerCount: 2
Back
Refer: 34 119 N 1 0 0 1 280 -860 2
Fore
SplineSet
-374.680664062 -274.919921875 m 0,0,1
 -374.680664062 -305.080078125 -374.680664062 -305.080078125 -343.360351562 -305.080078125 c 0,2,3
 -318.715820312 -305.080078125 -318.715820312 -305.080078125 -309.578125 -299.860351562 c 128,-1,4
 -300.440429688 -294.639648438 -300.440429688 -294.639648438 -294.060546875 -287.099609375 c 128,-1,5
 -287.680664062 -279.559570312 -287.680664062 -279.559570312 -286.520507812 -276.080078125 c 128,-1,6
 -285.360351562 -272.599609375 -285.360351562 -272.599609375 -285.360351562 -262.159179688 c 0,7,8
 -285.360351562 -210.447265625 -285.360351562 -210.447265625 -354.959960938 -202.419921875 c 0,9,10
 -370.040039062 -200.6796875 -370.040039062 -200.6796875 -407.16015625 -201.83984375 c 1,11,-1
 -428.040039062 -201.83984375 l 2,12,13
 -453.560546875 -201.83984375 -453.560546875 -201.83984375 -454.719726562 -200.6796875 c 0,14,15
 -454.719726562 -199.51953125 -454.719726562 -199.51953125 -444.280273438 -184.439453125 c 0,16,17
 -424.560546875 -162.399414062 -424.560546875 -162.399414062 -377.580078125 -131.080078125 c 128,-1,18
 -330.600585938 -99.759765625 -330.600585938 -99.759765625 -330.600585938 -85.83984375 c 0,19,20
 -330.600585938 -69.2685546875 -330.600585938 -69.2685546875 -350.3203125 -67.859375 c 0,21,22
 -358.440429688 -67.279296875 -358.440429688 -67.279296875 -378.16015625 -67.279296875 c 2,23,-1
 -411.799804688 -66.119140625 l 1,24,-1
 -387.440429688 -52.19921875 l 2,25,26
 -353.799804688 -32.4794921875 -353.799804688 -32.4794921875 -338.719726562 -20.2998046875 c 128,-1,27
 -323.640625 -8.119140625 -323.640625 -8.119140625 -323.640625 -1.7392578125 c 128,-1,28
 -323.640625 4.640625 -323.640625 4.640625 -328.280273438 11.0205078125 c 128,-1,29
 -332.919921875 17.400390625 -332.919921875 17.400390625 -341.620117188 20.30078125 c 128,-1,30
 -350.3203125 23.2001953125 -350.3203125 23.2001953125 -382.219726562 27.259765625 c 128,-1,31
 -414.120117188 31.3203125 -414.120117188 31.3203125 -414.120117188 33.060546875 c 128,-1,32
 -414.120117188 34.80078125 -414.120117188 34.80078125 -404.83984375 40.6005859375 c 0,33,34
 -383.959960938 56.8408203125 -383.959960938 56.8408203125 -334.66015625 71.919921875 c 0,35,36
 -271.440429688 91.2578125 -271.440429688 91.2578125 -271.440429688 106.720703125 c 256,37,38
 -271.440429688 109.040039062 -271.440429688 109.040039062 -278.400390625 116 c 2,39,-1
 -285.360351562 124.120117188 l 1,40,-1
 -306.240234375 124.120117188 l 1,41,42
 -372.360351562 118.3203125 -372.360351562 118.3203125 -454.719726562 56.8408203125 c 0,43,44
 -472.120117188 44.080078125 -472.120117188 44.080078125 -477.919921875 38.2802734375 c 128,-1,45
 -483.719726562 32.48046875 -483.719726562 32.48046875 -483.719726562 26.6806640625 c 0,46,47
 -483.719726562 -1.1591796875 -483.719726562 -1.1591796875 -404.83984375 -6.9599609375 c 1,48,-1
 -382.799804688 -9.279296875 l 1,49,50
 -389.759765625 -12.759765625 -389.759765625 -12.759765625 -401.939453125 -20.2998046875 c 128,-1,51
 -414.120117188 -27.83984375 -414.120117188 -27.83984375 -440.799804688 -41.759765625 c 0,52,53
 -510.400390625 -86.0498046875 -510.400390625 -86.0498046875 -510.400390625 -112.51953125 c 256,54,55
 -510.400390625 -122.959960938 -510.400390625 -122.959960938 -495.3203125 -122.959960938 c 0,56,57
 -464 -122.959960938 -464 -122.959960938 -446.600585938 -117.159179688 c 1,58,-1
 -424.560546875 -114.83984375 l 1,59,-1
 -419.919921875 -116 l 1,60,61
 -419.919921875 -117.391601562 -419.919921875 -117.391601562 -447.1796875 -138.15625 c 128,-1,62
 -474.440429688 -158.919921875 -474.440429688 -158.919921875 -497.060546875 -185.01953125 c 128,-1,63
 -519.680664062 -211.119140625 -519.680664062 -211.119140625 -519.680664062 -223.299804688 c 128,-1,64
 -519.680664062 -235.479492188 -519.680664062 -235.479492188 -511.560546875 -239.540039062 c 128,-1,65
 -503.440429688 -243.599609375 -503.440429688 -243.599609375 -480.240234375 -245.919921875 c 2,66,-1
 -467.48046875 -247.080078125 l 2,67,68
 -461.680664062 -247.080078125 -461.680664062 -247.080078125 -439.060546875 -241.860351562 c 128,-1,69
 -416.440429688 -236.639648438 -416.440429688 -236.639648438 -406.580078125 -236.639648438 c 128,-1,70
 -396.719726562 -236.639648438 -396.719726562 -236.639648438 -390.33984375 -237.799804688 c 0,71,72
 -373.74609375 -240.817382812 -373.74609375 -240.817382812 -368.993164062 -242.208984375 c 128,-1,73
 -364.240234375 -243.599609375 -364.240234375 -243.599609375 -364.240234375 -249.399414062 c 256,74,75
 -364.240234375 -255.19921875 -364.240234375 -255.19921875 -369.459960938 -260.419921875 c 128,-1,76
 -374.680664062 -265.639648438 -374.680664062 -265.639648438 -374.680664062 -274.919921875 c 0,0,1
EndSplineSet
EndChar

StartChar: Y
Encoding: 89 89 16
Width: 46
VWidth: 1392
GlyphClass: 1
Flags: W
LayerCount: 2
Back
Refer: 35 121 N 1 0 0 1 280 -860 2
Fore
SplineSet
-357.280273438 -264.479492188 m 0,0,1
 -351.658203125 -288.83984375 -351.658203125 -288.83984375 -329.440429688 -288.83984375 c 0,2,3
 -319 -288.83984375 -319 -288.83984375 -301.599609375 -283.620117188 c 128,-1,4
 -284.200195312 -278.399414062 -284.200195312 -278.399414062 -272.600585938 -267.959960938 c 0,5,6
 -271.440429688 -265.639648438 -271.440429688 -265.639648438 -267.959960938 -261.580078125 c 0,7,8
 -262.252929688 -254.920898438 -262.252929688 -254.920898438 -264.48046875 -248.239257812 c 0,9,10
 -264.48046875 -221.559570312 -264.48046875 -221.559570312 -288.259765625 -207.059570312 c 128,-1,11
 -312.040039062 -192.559570312 -312.040039062 -192.559570312 -349.740234375 -192.559570312 c 128,-1,12
 -387.440429688 -192.559570312 -387.440429688 -192.559570312 -410.639648438 -196.620117188 c 128,-1,13
 -433.83984375 -200.6796875 -433.83984375 -200.6796875 -445.440429688 -200.6796875 c 0,14,15
 -447.759765625 -197.19921875 -447.759765625 -197.19921875 -434.419921875 -182.119140625 c 128,-1,16
 -421.080078125 -167.040039062 -421.080078125 -167.040039062 -405.419921875 -154.280273438 c 128,-1,17
 -389.759765625 -141.51953125 -389.759765625 -141.51953125 -374.100585938 -129.919921875 c 128,-1,18
 -358.440429688 -118.319335938 -358.440429688 -118.319335938 -353.799804688 -113.6796875 c 0,19,20
 -329.440429688 -98.599609375 -329.440429688 -98.599609375 -327.120117188 -83.51953125 c 0,21,22
 -327.120117188 -73.8544921875 -327.120117188 -73.8544921875 -331.759765625 -70.759765625 c 0,23,24
 -335.240234375 -64.9599609375 -335.240234375 -64.9599609375 -338.140625 -64.3798828125 c 128,-1,25
 -341.040039062 -63.7998046875 -341.040039062 -63.7998046875 -359.01953125 -65.5400390625 c 128,-1,26
 -377 -67.279296875 -377 -67.279296875 -394.400390625 -67.279296875 c 1,27,-1
 -412.959960938 -70.759765625 l 1,28,-1
 -401.360351562 -62.6396484375 l 1,29,30
 -316.680664062 -9.279296875 -316.680664062 -9.279296875 -324.799804688 9.2802734375 c 0,31,32
 -324.799804688 10.4404296875 -324.799804688 10.4404296875 -332.919921875 16.240234375 c 128,-1,33
 -341.040039062 22.0400390625 -341.040039062 22.0400390625 -350.900390625 22.6201171875 c 128,-1,34
 -360.759765625 23.2001953125 -360.759765625 23.2001953125 -392.66015625 23.7802734375 c 128,-1,35
 -424.560546875 24.3603515625 -424.560546875 24.3603515625 -421.080078125 27.259765625 c 128,-1,36
 -417.600585938 30.16015625 -417.600585938 30.16015625 -407.740234375 35.9599609375 c 128,-1,37
 -397.879882812 41.7607421875 -397.879882812 41.7607421875 -381.640625 53.3603515625 c 1,38,-1
 -348 74.240234375 l 1,39,-1
 -319 61.48046875 l 2,40,41
 -291.353515625 48.720703125 -291.353515625 48.720703125 -279.65625 48.720703125 c 128,-1,42
 -267.959960938 48.720703125 -267.959960938 48.720703125 -264.48046875 52.2001953125 c 256,43,44
 -255.200195312 61.48046875 -255.200195312 61.48046875 -255.200195312 67.2802734375 c 1,45,-1
 -303.919921875 90.48046875 l 1,46,47
 -312.040039062 92.80078125 -312.040039062 92.80078125 -312.040039062 95.1201171875 c 0,48,49
 -309.719726562 99.7607421875 -309.719726562 99.7607421875 -305.080078125 102.080078125 c 2,50,-1
 -285.360351562 116 l 1,51,52
 -278.400390625 122.959960938 -278.400390625 122.959960938 -278.400390625 125.280273438 c 256,53,54
 -278.400390625 128.759765625 -278.400390625 128.759765625 -288.259765625 133.399414062 c 128,-1,55
 -298.120117188 138.040039062 -298.120117188 138.040039062 -306.240234375 138.040039062 c 128,-1,56
 -314.360351562 138.040039062 -314.360351562 138.040039062 -333.5 127.01953125 c 128,-1,57
 -352.640625 116 -352.640625 116 -356.120117188 116 c 0,58,59
 -361.918945312 116 -361.918945312 116 -383.958984375 126.440429688 c 128,-1,60
 -406 136.880859375 -406 136.880859375 -411.799804688 136.880859375 c 256,61,62
 -417.600585938 136.880859375 -417.600585938 136.880859375 -430.940429688 129.919921875 c 128,-1,63
 -444.280273438 122.959960938 -444.280273438 122.959960938 -444.280273438 119.48046875 c 256,64,65
 -444.280273438 116 -444.280273438 116 -436.16015625 111.360351562 c 128,-1,66
 -428.040039062 106.720703125 -428.040039062 106.720703125 -411.219726562 102.080078125 c 128,-1,67
 -394.400390625 97.4404296875 -394.400390625 97.4404296875 -394.400390625 95.1201171875 c 256,68,69
 -394.400390625 92.80078125 -394.400390625 92.80078125 -412.959960938 82.3603515625 c 0,70,71
 -445.440429688 60.3203125 -445.440429688 60.3203125 -481.400390625 31.3203125 c 0,72,73
 -491.83984375 23.2001953125 -491.83984375 23.2001953125 -491.83984375 12.7607421875 c 0,74,75
 -491.83984375 -1.1591796875 -491.83984375 -1.1591796875 -469.799804688 -8.119140625 c 0,76,77
 -460.520507812 -11.599609375 -460.520507812 -11.599609375 -422.240234375 -11.599609375 c 2,78,-1
 -387.440429688 -11.599609375 l 1,79,-1
 -432.680664062 -41.759765625 l 2,80,81
 -476.759765625 -70.759765625 -476.759765625 -70.759765625 -490.680664062 -87 c 0,82,83
 -519.680664062 -118.319335938 -519.680664062 -118.319335938 -506.919921875 -127.599609375 c 0,84,85
 -504.600585938 -128.759765625 -504.600585938 -128.759765625 -490.100585938 -128.759765625 c 128,-1,86
 -475.600585938 -128.759765625 -475.600585938 -128.759765625 -449.5 -120.639648438 c 128,-1,87
 -423.400390625 -112.51953125 -423.400390625 -112.51953125 -414.120117188 -112.51953125 c 0,88,89
 -411.799804688 -112.51953125 -411.799804688 -112.51953125 -432.680664062 -129.919921875 c 0,90,91
 -509.240234375 -199.51953125 -509.240234375 -199.51953125 -509.240234375 -229.6796875 c 0,92,93
 -509.240234375 -237.799804688 -509.240234375 -237.799804688 -501.700195312 -240.119140625 c 128,-1,94
 -494.16015625 -242.439453125 -494.16015625 -242.439453125 -473.280273438 -242.439453125 c 128,-1,95
 -452.400390625 -242.439453125 -452.400390625 -242.439453125 -427.459960938 -236.639648438 c 128,-1,96
 -402.520507812 -230.83984375 -402.520507812 -230.83984375 -374.6796875 -230.83984375 c 128,-1,97
 -346.83984375 -230.83984375 -346.83984375 -230.83984375 -346.83984375 -238.959960938 c 0,98,99
 -346.83984375 -241.279296875 -346.83984375 -241.279296875 -352.059570312 -248.239257812 c 128,-1,100
 -357.280273438 -255.19921875 -357.280273438 -255.19921875 -357.280273438 -264.479492188 c 0,0,1
EndSplineSet
EndChar

StartChar: a
Encoding: 97 97 17
Width: 46
VWidth: 1392
GlyphClass: 1
Flags: W
LayerCount: 2
Back
SplineSet
-670 494 m 0,1,2
 -656 492 -656 492 -635 503 c 0,3,4
 -609 517 -609 517 -591 544 c 2,5,-1
 -584 555 l 1,6,-1
 -574 553 l 2,7,8
 -560 551 -560 551 -485 551 c 2,9,-1
 -406 551 l 1,10,-1
 -394 556 l 2,11,12
 -368 566 -368 566 -368 577 c 0,13,14
 -368 582 -368 582 -370 587 c 128,-1,15
 -372 592 -372 592 -375 594 c 0,16,17
 -379 596 -379 596 -383 596 c 2,18,-1
 -412 594 l 1,19,-1
 -445 591 l 1,20,-1
 -453 585 l 2,21,22
 -472 573 -472 573 -496 573 c 0,23,24
 -512 573 -512 573 -522 575 c 0,25,26
 -560 582 -560 582 -571 585 c 128,-1,27
 -582 588 -582 588 -580 593 c 0,28,29
 -578 597 -578 597 -578 611 c 0,30,31
 -578 624 -578 624 -582 633 c 0,32,33
 -586 641 -586 641 -594 648.5 c 128,-1,34
 -602 656 -602 656 -609 659 c 0,35,36
 -627 665 -627 665 -643 665 c 256,37,38
 -659 665 -659 665 -677.5 653.5 c 128,-1,39
 -696 642 -696 642 -712 621 c 2,40,-1
 -721 608 l 1,41,-1
 -746 609 l 1,42,-1
 -788 613 l 2,43,44
 -798 615 -798 615 -828 615 c 0,45,46
 -871 615 -871 615 -888 611 c 0,47,48
 -911 607 -911 607 -925.5 600.5 c 128,-1,49
 -940 594 -940 594 -942 587 c 0,50,51
 -944 579 -944 579 -937 567 c 128,-1,52
 -930 555 -930 555 -921 552 c 0,53,54
 -919 551 -919 551 -911 551 c 0,55,56
 -899 551 -899 551 -882 553.5 c 128,-1,57
 -865 556 -865 556 -863 558 c 0,58,59
 -862 561 -862 561 -863 568 c 0,60,61
 -864 571 -864 571 -864 575 c 0,62,63
 -864 582 -864 582 -855 586 c 0,64,65
 -838 593 -838 593 -810 593 c 0,66,67
 -799 593 -799 593 -763 589 c 2,68,-1
 -735 586 l 1,69,-1
 -735 579 l 2,70,71
 -736 570 -736 570 -734 552.5 c 128,-1,72
 -732 535 -732 535 -729 530 c 0,73,74
 -718 508 -718 508 -686 498 c 0,75,0
 -677 494 -677 494 -670 494 c 0,1,2
-626.5 600 m 128,-1,77
 -627 598 -627 598 -630 596 c 0,78,79
 -634 594 -634 594 -636.5 594 c 128,-1,80
 -639 594 -639 594 -643 596 c 0,81,82
 -651 600 -651 600 -665 600 c 2,83,-1
 -680 601 l 1,84,-1
 -679 606 l 2,85,86
 -677 613 -677 613 -674 619.5 c 128,-1,87
 -671 626 -671 626 -668 628 c 0,88,89
 -663 631 -663 631 -655 631 c 256,90,91
 -647 631 -647 631 -641 628 c 0,92,93
 -633 624 -633 624 -630 619.5 c 128,-1,94
 -627 615 -627 615 -626 607 c 0,95,76
 -626 602 -626 602 -626.5 600 c 128,-1,77
-666 537 m 0,97,98
 -672 538 -672 538 -678.5 541 c 128,-1,99
 -685 544 -685 544 -686 548 c 0,100,101
 -688 552 -688 552 -688 561.5 c 128,-1,102
 -688 571 -688 571 -687 572 c 0,103,104
 -680 572 -680 572 -666.5 570 c 128,-1,105
 -653 568 -653 568 -641 566 c 0,106,107
 -637 564 -637 564 -637 562 c 0,108,109
 -637 558 -637 558 -644 549 c 0,110,111
 -651 542 -651 542 -657 540 c 0,112,96
 -660 537 -660 537 -666 537 c 0,97,98
EndSplineSet
Fore
SplineSet
-955.83984375 899 m 0,0,1
 -955.83984375 919.879882812 -955.83984375 919.879882812 -893.200195312 919.879882812 c 0,2,3
 -880.440429688 919.879882812 -880.440429688 919.879882812 -838.6796875 915.240234375 c 2,4,-1
 -806.200195312 911.759765625 l 1,5,-1
 -806.200195312 903.639648438 l 1,6,7
 -807.360351562 893.200195312 -807.360351562 893.200195312 -805.040039062 872.900390625 c 128,-1,8
 -802.719726562 852.599609375 -802.719726562 852.599609375 -799.240234375 846.799804688 c 0,9,10
 -786.48046875 821.280273438 -786.48046875 821.280273438 -749.360351562 809.6796875 c 0,11,12
 -738.919921875 805.040039062 -738.919921875 805.040039062 -726.739746094 803.879882812 c 128,-1,13
 -714.559570312 802.719726562 -714.559570312 802.719726562 -687.299804688 817.219726562 c 128,-1,14
 -660.040039062 831.719726562 -660.040039062 831.719726562 -639.16015625 863.040039062 c 2,15,-1
 -631.040039062 875.799804688 l 1,16,-1
 -619.440429688 873.48046875 l 2,17,18
 -603.200195312 871.16015625 -603.200195312 871.16015625 -516.200195312 871.16015625 c 2,19,-1
 -424.559570312 871.16015625 l 1,20,-1
 -410.639648438 876.959960938 l 2,21,22
 -380.48046875 888.559570312 -380.48046875 888.559570312 -380.48046875 901.3203125 c 0,23,24
 -380.48046875 923.360351562 -380.48046875 923.360351562 -397.879882812 923.360351562 c 1,25,-1
 -431.51953125 921.040039062 l 1,26,-1
 -469.799804688 917.559570312 l 1,27,-1
 -479.080078125 910.599609375 l 1,28,29
 -501.120117188 896.6796875 -501.120117188 896.6796875 -524.319824219 896.6796875 c 128,-1,30
 -547.51953125 896.6796875 -547.51953125 896.6796875 -575.359863281 901.899902344 c 128,-1,31
 -603.200195312 907.120117188 -603.200195312 907.120117188 -615.959960938 910.599609375 c 128,-1,32
 -628.719726562 914.080078125 -628.719726562 914.080078125 -626.399902344 919.299804688 c 128,-1,33
 -624.080078125 924.51953125 -624.080078125 924.51953125 -624.080078125 940.1796875 c 128,-1,34
 -624.080078125 955.83984375 -624.080078125 955.83984375 -628.720214844 965.699707031 c 0,35,36
 -646.462481777 1003.40039063 -646.462481777 1003.40039063 -699.48046875 1003.40039062 c 256,37,38
 -740.631785003 1003.40039062 -740.631785003 1003.40039062 -779.51953125 952.360351562 c 1,39,-1
 -789.959960938 937.280273438 l 1,40,-1
 -818.959960938 938.440429688 l 1,41,-1
 -867.6796875 943.080078125 l 1,42,43
 -879.280273438 945.400390625 -879.280273438 945.400390625 -921.620117188 945.400390625 c 128,-1,44
 -963.959960938 945.400390625 -963.959960938 945.400390625 -987.16015625 940.760253906 c 0,45,46
 -1041.46876278 929.898304 -1041.46876278 929.898304 -1046.3203125 912.919921875 c 0,47,48
 -1048.63964844 903.639648438 -1048.63964844 903.639648438 -1040.51953125 889.719726562 c 0,49,50
 -1029.69420028 871.16015625 -1029.69420028 871.16015625 -1013.06731499 871.16015625 c 128,-1,51
 -996.440429688 871.16015625 -996.440429688 871.16015625 -976.719726562 874.059570312 c 128,-1,52
 -957 876.959960938 -957 876.959960938 -954.6796875 879.280273438 c 0,53,54
 -953.51953125 882.759765625 -953.51953125 882.759765625 -954.6796875 888.560058594 c 128,-1,55
 -955.83984375 894.360351562 -955.83984375 894.360351562 -955.83984375 899 c 0,0,1
-679.759765625 936.120117188 m 0,56,57
 -679.759765625 921.040039062 -679.759765625 921.040039062 -691.940429688 921.040039062 c 0,58,59
 -694.83984375 921.040039062 -694.83984375 921.040039062 -701.799804688 924.520019531 c 128,-1,60
 -708.759765625 928 -708.759765625 928 -725 928 c 1,61,-1
 -742.400390625 929.16015625 l 1,62,63
 -737.313545926 954.590097891 -737.313545926 954.590097891 -729.996616713 959.275029414 c 128,-1,64
 -722.6796875 963.959960938 -722.6796875 963.959960938 -713.400390625 963.959960938 c 256,65,66
 -683.240112292 963.959960938 -683.240112292 963.959960938 -679.759765625 936.120117188 c 0,56,57
-749.360351562 867.6796875 m 0,67,68
 -751.6796875 872.3203125 -751.6796875 872.3203125 -751.6796875 883.33984375 c 128,-1,69
 -751.6796875 894.360351562 -751.6796875 894.360351562 -750.51953125 895.51953125 c 0,70,71
 -738.914063322 895.51953125 -738.914063322 895.51953125 -697.16015625 888.559570312 c 0,72,73
 -692.51953125 886.240234375 -692.51953125 886.240234375 -692.51953125 882.760253906 c 128,-1,74
 -692.51953125 879.280273438 -692.51953125 879.280273438 -700.639648438 868.83984375 c 0,75,76
 -719.626444182 849.853048006 -719.626444182 849.853048006 -733.913319747 856.446543534 c 128,-1,77
 -748.200195312 863.040039062 -748.200195312 863.040039062 -749.360351562 867.6796875 c 0,67,68
EndSplineSet
EndChar

StartChar: aring
Encoding: 229 229 18
Width: 46
VWidth: 1392
GlyphClass: 1
Flags: W
LayerCount: 2
Back
Refer: 17 97 N 1 0 0 1 280 -100 2
Fore
SplineSet
-631.040039062 783 m 0,0,1
 -631.040039062 803.879882812 -631.040039062 803.879882812 -568.400390625 803.879882812 c 0,2,3
 -555.640625 803.879882812 -555.640625 803.879882812 -513.879882812 799.240234375 c 2,4,-1
 -481.400390625 795.759765625 l 1,5,-1
 -481.400390625 787.639648438 l 1,6,7
 -482.560546875 777.200195312 -482.560546875 777.200195312 -480.240234375 756.900390625 c 128,-1,8
 -477.919921875 736.599609375 -477.919921875 736.599609375 -474.440429688 730.799804688 c 0,9,10
 -461.680664062 705.280273438 -461.680664062 705.280273438 -424.560546875 693.6796875 c 0,11,12
 -414.120117188 689.040039062 -414.120117188 689.040039062 -401.939453125 687.879882812 c 128,-1,13
 -389.759765625 686.719726562 -389.759765625 686.719726562 -362.5 701.219726562 c 128,-1,14
 -335.240234375 715.719726562 -335.240234375 715.719726562 -314.360351562 747.040039062 c 2,15,-1
 -306.240234375 759.799804688 l 1,16,-1
 -294.640625 757.48046875 l 2,17,18
 -278.400390625 755.16015625 -278.400390625 755.16015625 -191.400390625 755.16015625 c 2,19,-1
 -99.759765625 755.16015625 l 1,20,-1
 -85.83984375 760.959960938 l 2,21,22
 -55.6806640625 772.559570312 -55.6806640625 772.559570312 -55.6806640625 785.3203125 c 0,23,24
 -55.6806640625 807.360351562 -55.6806640625 807.360351562 -73.080078125 807.360351562 c 1,25,-1
 -106.719726562 805.040039062 l 1,26,-1
 -145 801.559570312 l 1,27,-1
 -154.280273438 794.599609375 l 1,28,29
 -176.3203125 780.6796875 -176.3203125 780.6796875 -199.51953125 780.6796875 c 128,-1,30
 -222.719726562 780.6796875 -222.719726562 780.6796875 -250.559570312 785.900390625 c 128,-1,31
 -278.400390625 791.120117188 -278.400390625 791.120117188 -291.16015625 794.599609375 c 128,-1,32
 -303.919921875 798.080078125 -303.919921875 798.080078125 -301.599609375 803.299804688 c 128,-1,33
 -299.280273438 808.51953125 -299.280273438 808.51953125 -299.280273438 824.1796875 c 128,-1,34
 -299.280273438 839.83984375 -299.280273438 839.83984375 -303.919921875 849.69921875 c 0,35,36
 -321.662109375 887.400390625 -321.662109375 887.400390625 -374.680664062 887.400390625 c 256,37,38
 -415.83203125 887.400390625 -415.83203125 887.400390625 -454.719726562 836.360351562 c 1,39,-1
 -465.16015625 821.280273438 l 1,40,-1
 -494.16015625 822.440429688 l 1,41,-1
 -542.879882812 827.080078125 l 1,42,43
 -554.48046875 829.400390625 -554.48046875 829.400390625 -596.8203125 829.400390625 c 128,-1,44
 -639.16015625 829.400390625 -639.16015625 829.400390625 -662.360351562 824.759765625 c 0,45,46
 -716.668945312 813.8984375 -716.668945312 813.8984375 -721.520507812 796.919921875 c 0,47,48
 -723.83984375 787.639648438 -723.83984375 787.639648438 -715.719726562 773.719726562 c 0,49,50
 -704.89453125 755.16015625 -704.89453125 755.16015625 -688.267578125 755.16015625 c 128,-1,51
 -671.640625 755.16015625 -671.640625 755.16015625 -651.919921875 758.059570312 c 128,-1,52
 -632.200195312 760.959960938 -632.200195312 760.959960938 -629.879882812 763.280273438 c 0,53,54
 -628.719726562 766.759765625 -628.719726562 766.759765625 -629.879882812 772.560546875 c 128,-1,55
 -631.040039062 778.360351562 -631.040039062 778.360351562 -631.040039062 783 c 0,0,1
-354.959960938 820.120117188 m 0,56,57
 -354.959960938 805.040039062 -354.959960938 805.040039062 -367.140625 805.040039062 c 0,58,59
 -370.040039062 805.040039062 -370.040039062 805.040039062 -377 808.51953125 c 128,-1,60
 -383.959960938 812 -383.959960938 812 -400.200195312 812 c 1,61,-1
 -417.600585938 813.16015625 l 1,62,63
 -412.513671875 838.58984375 -412.513671875 838.58984375 -405.196289062 843.275390625 c 128,-1,64
 -397.879882812 847.959960938 -397.879882812 847.959960938 -388.600585938 847.959960938 c 256,65,66
 -358.440429688 847.959960938 -358.440429688 847.959960938 -354.959960938 820.120117188 c 0,56,57
-424.560546875 751.6796875 m 0,67,68
 -426.879882812 756.3203125 -426.879882812 756.3203125 -426.879882812 767.33984375 c 128,-1,69
 -426.879882812 778.360351562 -426.879882812 778.360351562 -425.719726562 779.51953125 c 0,70,71
 -414.114257812 779.51953125 -414.114257812 779.51953125 -372.360351562 772.559570312 c 0,72,73
 -367.719726562 770.240234375 -367.719726562 770.240234375 -367.719726562 766.759765625 c 128,-1,74
 -367.719726562 763.280273438 -367.719726562 763.280273438 -375.83984375 752.83984375 c 0,75,76
 -394.826171875 733.853515625 -394.826171875 733.853515625 -409.11328125 740.446289062 c 128,-1,77
 -423.400390625 747.040039062 -423.400390625 747.040039062 -424.560546875 751.6796875 c 0,67,68
EndSplineSet
EndChar

StartChar: d
Encoding: 100 100 19
Width: 46
VWidth: 1392
GlyphClass: 1
Flags: W
LayerCount: 2
Back
SplineSet
-258 524 m 0,1,2
 -258 509 -258 509 -263.5 496 c 128,-1,3
 -269 483 -269 483 -277 479 c 0,4,5
 -288 472 -288 472 -311 472 c 0,6,7
 -336 472 -336 472 -348 481 c 0,8,9
 -358 488 -358 488 -358 497 c 0,10,11
 -358 505 -358 505 -350.5 509 c 128,-1,12
 -343 513 -343 513 -331 511 c 0,13,14
 -312 508 -312 508 -312 515 c 256,15,16
 -312 522 -312 522 -328.5 533 c 128,-1,17
 -345 544 -345 544 -370 552 c 0,18,19
 -393 560 -393 560 -502 563 c 1,20,-1
 -502 558 l 2,21,22
 -502 545 -502 545 -509 534 c 0,23,24
 -520 518 -520 518 -540.5 509 c 128,-1,25
 -561 500 -561 500 -585 500 c 0,26,27
 -615 500 -615 500 -642 513 c 0,28,29
 -664 523 -664 523 -695 551 c 0,30,31
 -701 556 -701 556 -705 567 c 1,32,33
 -822 565 -822 565 -866 563 c 0,34,35
 -916 560 -916 560 -937 560 c 0,36,37
 -963 560 -963 560 -968 565 c 0,38,39
 -981 581 -981 581 -912.5 591 c 128,-1,40
 -844 601 -844 601 -708 603 c 1,41,42
 -700 629 -700 629 -674.5 648.5 c 128,-1,43
 -649 668 -649 668 -624 666 c 0,44,45
 -582 663 -582 663 -554 646 c 128,-1,46
 -526 629 -526 629 -512 603 c 1,47,48
 -454 602 -454 602 -424 600 c 128,-1,49
 -394 598 -394 598 -371 593 c 0,50,51
 -325 584 -325 584 -295 569.5 c 128,-1,52
 -265 555 -265 555 -260 540 c 0,53,0
 -258 535 -258 535 -258 524 c 0,1,2
-640 618 m 128,-1,55
 -651 612 -651 612 -657 604 c 1,56,-1
 -615 604 l 1,57,-1
 -575 604 l 1,58,59
 -600 624 -600 624 -619 624 c 0,60,54
 -629 624 -629 624 -640 618 c 128,-1,55
-555 565 m 1,61,62
 -586 566 -586 566 -651 566 c 1,63,64
 -639 553 -639 553 -612 546 c 0,65,66
 -608 545 -608 545 -600 545 c 0,67,68
 -587 545 -587 545 -574.5 550 c 128,-1,69
 -562 555 -562 555 -556 563 c 2,70,-1
 -555 565 l 1,61,62
EndSplineSet
Fore
SplineSet
-255.200195312 858.400390625 m 0,0,1
 -252.879882812 852.599609375 -252.879882812 852.599609375 -252.879882812 837.520019531 c 128,-1,2
 -252.879882812 822.440429688 -252.879882812 822.440429688 -259.259765625 807.360351562 c 128,-1,3
 -265.639648438 792.280273438 -265.639648438 792.280273438 -276.659667969 785.899902344 c 128,-1,4
 -287.6796875 779.51953125 -287.6796875 779.51953125 -315.520019531 779.51953125 c 128,-1,5
 -343.360351562 779.51953125 -343.360351562 779.51953125 -356.120117188 788.799804688 c 128,-1,6
 -368.879882812 798.080078125 -368.879882812 798.080078125 -368.879882812 807.939941406 c 128,-1,7
 -368.879882812 817.799804688 -368.879882812 817.799804688 -360.1796875 822.440429688 c 128,-1,8
 -351.48046875 827.080078125 -351.48046875 827.080078125 -333.5 824.180175781 c 128,-1,9
 -315.51953125 821.280273438 -315.51953125 821.280273438 -315.51953125 829.400390625 c 256,10,11
 -315.51953125 837.51953125 -315.51953125 837.51953125 -334.66015625 850.280273438 c 128,-1,12
 -353.799804688 863.040039062 -353.799804688 863.040039062 -381.640136719 872.319824219 c 128,-1,13
 -409.48046875 881.599609375 -409.48046875 881.599609375 -535.919921875 885.080078125 c 1,14,-1
 -535.919921875 879.280273438 l 2,15,16
 -535.919921875 842.046075054 -535.919921875 842.046075054 -580.580078125 822.440429688 c 0,17,18
 -604.360351562 812 -604.360351562 812 -635.680175781 812 c 128,-1,19
 -667 812 -667 812 -695.419921875 825.33984375 c 128,-1,20
 -723.83984375 838.6796875 -723.83984375 838.6796875 -759.799804688 871.16015625 c 0,21,22
 -766.759765625 876.959960938 -766.759765625 876.959960938 -771.400390625 889.719726562 c 1,23,24
 -907.120117188 887.400390625 -907.120117188 887.400390625 -961.640136719 884.5 c 128,-1,25
 -1016.16015625 881.599609375 -1016.16015625 881.599609375 -1043.41992188 881.599609375 c 128,-1,26
 -1070.6796875 881.599609375 -1070.6796875 881.599609375 -1076.48046875 887.400390625 c 0,27,28
 -1091.55957031 905.959960938 -1091.55957031 905.959960938 -1012.09960938 917.559570312 c 128,-1,29
 -932.639648438 929.16015625 -932.639648438 929.16015625 -774.879882812 931.48046875 c 1,30,31
 -765.599609375 961.639648438 -765.599609375 961.639648438 -736.01953125 984.259765625 c 128,-1,32
 -706.440429688 1006.87988281 -706.440429688 1006.87988281 -677.440429688 1004.55957031 c 0,33,34
 -583.249143263 997.832700128 -583.249143263 997.832700128 -547.51953125 931.48046875 c 1,35,36
 -427.829591451 929.416549563 -427.829591451 929.416549563 -379.214600413 919.428489625 c 128,-1,37
 -330.599609375 909.440429688 -330.599609375 909.440429688 -295.799804688 892.620117188 c 128,-1,38
 -261 875.799804688 -261 875.799804688 -255.200195312 858.400390625 c 0,0,1
-715.719726562 932.639648438 m 1,39,-1
 -667 932.639648438 l 1,40,-1
 -620.599609375 932.639648438 l 1,41,42
 -649.599609375 955.83984375 -649.599609375 955.83984375 -666.419921875 955.83984375 c 0,43,44
 -698.320190417 955.83984375 -698.320190417 955.83984375 -715.719726562 932.639648438 c 1,39,-1
-597.400390625 887.400390625 m 1,45,46
 -633.360351562 888.559570312 -633.360351562 888.559570312 -708.759765625 888.559570312 c 1,47,48
 -694.83984375 873.48046875 -694.83984375 873.48046875 -663.51953125 865.360351562 c 0,49,50
 -658.879882812 864.200195312 -658.879882812 864.200195312 -646.699707031 864.200195312 c 128,-1,51
 -634.51953125 864.200195312 -634.51953125 864.200195312 -620.01953125 870 c 0,52,53
 -602.615504222 876.961376382 -602.615504222 876.961376382 -597.400390625 887.400390625 c 1,45,46
EndSplineSet
EndChar

StartChar: e
Encoding: 101 101 20
Width: 46
VWidth: 1392
GlyphClass: 1
Flags: W
LayerCount: 2
Back
SplineSet
-679 294.5 m 128,-1,1
 -685 300 -685 300 -686 318 c 0,2,3
 -688 334 -688 334 -688 341 c 0,4,5
 -688 357 -688 357 -681 409 c 2,6,-1
 -674 466 l 1,7,-1
 -701 483 l 2,8,9
 -725 498 -725 498 -736 515.5 c 128,-1,10
 -747 533 -747 533 -747 557 c 0,11,12
 -747 567 -747 567 -741 580.5 c 128,-1,13
 -735 594 -735 594 -720 620 c 0,14,15
 -695 665 -695 665 -678 688 c 0,16,17
 -667 702 -667 702 -664 715.5 c 128,-1,18
 -661 729 -661 729 -661 754 c 0,19,20
 -661 772 -661 772 -665 816 c 2,21,-1
 -668 854 l 2,22,23
 -669 867 -669 867 -660 876.5 c 128,-1,24
 -651 886 -651 886 -639 886 c 256,25,26
 -627 886 -627 886 -619 878 c 0,27,28
 -612 872 -612 872 -612 847 c 0,29,30
 -612 817 -612 817 -619 767 c 2,31,-1
 -628 705 l 1,32,-1
 -605 692 l 2,33,34
 -560 666 -560 666 -560 619 c 0,35,36
 -561 598 -561 598 -577 562 c 128,-1,37
 -593 526 -593 526 -613 502 c 0,38,39
 -628 483 -628 483 -631.5 473.5 c 128,-1,40
 -635 464 -635 464 -637 436 c 0,41,42
 -639 423 -639 423 -639 400 c 0,43,44
 -639 378 -639 378 -633 326 c 0,45,46
 -632 321 -632 321 -632 313 c 0,47,48
 -632 303 -632 303 -637 298 c 128,-1,49
 -642 293 -642 293 -655 291 c 0,50,0
 -673 289 -673 289 -679 294.5 c 128,-1,1
-631 555.5 m 128,-1,52
 -618 580 -618 580 -618 600 c 0,53,54
 -618 623 -618 623 -634 632 c 0,55,56
 -642 638 -642 638 -651 638 c 0,57,58
 -672 638 -672 638 -691 604 c 0,59,60
 -702 585 -702 585 -702 577 c 0,61,62
 -702 573 -702 573 -698 559 c 0,63,64
 -685 522 -685 522 -657 527 c 0,65,51
 -644 531 -644 531 -631 555.5 c 128,-1,52
EndSplineSet
Fore
SplineSet
-751.6796875 614.654805504 m 128,-1,1
 -751.6796875 646.120117188 -751.6796875 646.120117188 -743.559570312 706.440429688 c 2,2,-1
 -735.440429688 772.559570312 l 1,3,-1
 -766.759765625 792.280273438 l 2,4,5
 -820.120117188 825.62955728 -820.120117188 825.62955728 -820.120117188 878.120117188 c 0,6,7
 -820.120117188 896.912591134 -820.120117188 896.912591134 -789.959960938 950.15649088 c 128,-1,8
 -759.799804688 1003.40039062 -759.799804688 1003.40039062 -743.560058594 1024.86035156 c 128,-1,9
 -727.3203125 1046.3203125 -727.3203125 1046.3203125 -723.83984375 1061.98046875 c 128,-1,10
 -720.360351562 1077.63964844 -720.360351562 1077.63964844 -720.360351562 1102.57958984 c 128,-1,11
 -720.360351562 1127.51953125 -720.360351562 1127.51953125 -725 1178.55957031 c 2,12,-1
 -728.48046875 1222.63964844 l 2,13,14
 -729.639648438 1237.71972656 -729.639648438 1237.71972656 -719.200195312 1248.74023438 c 128,-1,15
 -708.759765625 1259.75976562 -708.759765625 1259.75976562 -694.83984375 1259.75976562 c 256,16,17
 -680.919921875 1259.75976562 -680.919921875 1259.75976562 -672.219726562 1251.63964844 c 128,-1,18
 -663.51953125 1243.51953125 -663.51953125 1243.51953125 -663.51953125 1211.61962891 c 128,-1,19
 -663.51953125 1179.71972656 -663.51953125 1179.71972656 -671.639648438 1121.71972656 c 2,20,-1
 -682.080078125 1049.79980469 l 1,21,-1
 -655.400390625 1034.71972656 l 2,22,23
 -603.200195312 1004.55957031 -603.200195312 1004.55957031 -603.200195312 950.040039062 c 0,24,25
 -604.360351562 925.6796875 -604.360351562 925.6796875 -622.919921875 883.919921875 c 128,-1,26
 -641.48046875 842.16015625 -641.48046875 842.16015625 -661.780273438 817.220214844 c 128,-1,27
 -682.080078125 792.280273438 -682.080078125 792.280273438 -686.139648438 781.259765625 c 0,28,29
 -694.83984375 757.649134575 -694.83984375 757.649134575 -694.83984375 714.064801662 c 128,-1,30
 -694.83984375 670.48046875 -694.83984375 670.48046875 -690.779785156 637.420410156 c 128,-1,31
 -686.719726562 604.360351562 -686.719726562 604.360351562 -686.719726562 593.920410156 c 0,32,33
 -686.719726562 573.664819491 -686.719726562 573.664819491 -710.5 570.452526933 c 128,-1,34
 -734.280273438 567.240234375 -734.280273438 567.240234375 -742.979980469 575.214864098 c 128,-1,0
 -751.6796875 583.189493821 -751.6796875 583.189493821 -751.6796875 614.654805504 c 128,-1,1
-685.559570312 876.379882812 m 128,-1,36
 -670.48046875 904.799804688 -670.48046875 904.799804688 -670.48046875 929.739746094 c 128,-1,37
 -670.48046875 954.6796875 -670.48046875 954.6796875 -689.040039062 965.120117188 c 0,38,39
 -698.3203125 972.080078125 -698.3203125 972.080078125 -708.759765625 972.080078125 c 0,40,41
 -733.120117188 972.080078125 -733.120117188 972.080078125 -755.16015625 932.639648438 c 0,42,43
 -767.919921875 910.599609375 -767.919921875 910.599609375 -767.919921875 903.639648438 c 128,-1,44
 -767.919921875 896.6796875 -767.919921875 896.6796875 -763.280273438 880.440429688 c 0,45,46
 -748.200195312 837.51953125 -748.200195312 837.51953125 -715.719726562 843.3203125 c 0,47,35
 -700.639648438 847.959960938 -700.639648438 847.959960938 -685.559570312 876.379882812 c 128,-1,36
EndSplineSet
EndChar

StartChar: f
Encoding: 102 102 21
Width: 46
VWidth: 1392
GlyphClass: 1
Flags: W
LayerCount: 2
Back
SplineSet
-380 721 m 0,1,2
 -368 721 -368 721 -361 711.5 c 128,-1,3
 -354 702 -354 702 -357 688 c 256,4,5
 -360 674 -360 674 -414 646 c 1,6,7
 -409 636 -409 636 -409 629 c 0,8,9
 -409 623 -409 623 -412 617 c 0,10,11
 -416 609 -416 609 -421.5 604.5 c 128,-1,12
 -427 600 -427 600 -433 600 c 256,13,14
 -439 600 -439 600 -442 604 c 0,15,16
 -444 605 -444 605 -446.5 609.5 c 128,-1,17
 -449 614 -449 614 -451 620 c 2,18,-1
 -454 629 l 1,19,-1
 -495 613 l 1,20,-1
 -495 586 l 2,21,22
 -495 534 -495 534 -536 511 c 0,23,24
 -549 504 -549 504 -574 499.5 c 128,-1,25
 -599 495 -599 495 -626 495 c 0,26,27
 -646 495 -646 495 -664 498 c 0,28,29
 -679 501 -679 501 -688 501 c 256,30,31
 -697 501 -697 501 -707.5 497 c 128,-1,32
 -718 493 -718 493 -733 486 c 0,33,34
 -752 478 -752 478 -768 467 c 128,-1,35
 -784 456 -784 456 -812 435 c 2,36,-1
 -832 420 l 2,37,38
 -848 409 -848 409 -854 409 c 0,39,40
 -863 409 -863 409 -873 422 c 0,41,42
 -882 434 -882 434 -882 442 c 0,43,44
 -882 452 -882 452 -865 462 c 0,45,46
 -850 475 -850 475 -833 484 c 128,-1,47
 -816 493 -816 493 -778 510 c 2,48,-1
 -725 533 l 1,49,-1
 -724 565 l 2,50,51
 -723 618 -723 618 -685 640 c 0,52,53
 -676 646 -676 646 -662.5 648 c 128,-1,54
 -649 650 -649 650 -615 650 c 0,55,56
 -556 650 -556 650 -535 647 c 0,57,58
 -521 646 -521 646 -509.5 648.5 c 128,-1,59
 -498 651 -498 651 -484 658 c 0,60,61
 -481 659 -481 659 -475 663 c 1,62,63
 -484 672 -484 672 -486 675 c 0,64,65
 -496 685 -496 685 -496 690 c 0,66,67
 -496 698 -496 698 -494.5 703 c 128,-1,68
 -493 708 -493 708 -487 712 c 0,69,70
 -481 718 -481 718 -473 718 c 0,71,72
 -468 718 -468 718 -462 715 c 0,73,74
 -457 713 -457 713 -448 702.5 c 128,-1,75
 -439 692 -439 692 -436 688 c 1,76,-1
 -398 715 l 2,77,0
 -389 721 -389 721 -380 721 c 0,1,2
-575 608.5 m 128,-1,79
 -589 617 -589 617 -614 617 c 0,80,81
 -631 617 -631 617 -638.5 614 c 128,-1,82
 -646 611 -646 611 -656 600 c 0,83,84
 -671 582 -671 582 -671 568 c 0,85,86
 -671 557 -671 557 -664 549 c 0,87,88
 -655 540 -655 540 -630 540 c 0,89,90
 -615 540 -615 540 -600.5 543.5 c 128,-1,91
 -586 547 -586 547 -577 554 c 0,92,93
 -561 567 -561 567 -561 584 c 0,94,78
 -561 600 -561 600 -575 608.5 c 128,-1,79
EndSplineSet
Fore
SplineSet
-504.599609375 1001.08007812 m 1,0,1
 -528.959960938 1025.4381511 -528.959960938 1025.4381511 -528.959960938 1033.5589193 c 0,2,3
 -528.959960938 1050.96110012 -528.959960938 1050.96110012 -518.51953125 1057.91992188 c 0,4,5
 -511.559570312 1064.87988281 -511.559570312 1064.87988281 -504.020019531 1064.87988281 c 128,-1,6
 -496.48046875 1064.87988281 -496.48046875 1064.87988281 -490.100097656 1061.97998047 c 0,7,8
 -479.75869142 1057.27977295 -479.75869142 1057.27977295 -459.360351562 1030.08007812 c 1,9,-1
 -415.280273438 1061.40039062 l 2,10,11
 -404.83984375 1068.36035156 -404.83984375 1068.36035156 -392.66015625 1068.36035156 c 128,-1,12
 -380.48046875 1068.36035156 -380.48046875 1068.36035156 -372.360351562 1057.33984375 c 128,-1,13
 -364.240234375 1046.3203125 -364.240234375 1046.3203125 -367.719726562 1030.08007812 c 256,14,15
 -371.200195312 1013.83984375 -371.200195312 1013.83984375 -433.83984375 981.360351562 c 1,16,17
 -428.040039062 969.759765625 -428.040039062 969.759765625 -428.040039062 962.219726562 c 128,-1,18
 -428.040039062 954.6796875 -428.040039062 954.6796875 -432.100097656 946.560058594 c 0,19,20
 -441.380685016 928 -441.380685016 928 -455.879882812 928 c 256,21,22
 -469.028537357 928 -469.028537357 928 -476.759765625 951.200195312 c 2,23,-1
 -480.240234375 961.639648438 l 1,24,-1
 -527.799804688 943.080078125 l 1,25,-1
 -527.799804688 911.759765625 l 2,26,27
 -527.799804688 851.440429688 -527.799804688 851.440429688 -575.360351562 824.759765625 c 0,28,29
 -609.827806134 806.200195313 -609.827806134 806.200195313 -679.759765625 806.200195312 c 0,30,31
 -702.959960938 806.200195312 -702.959960938 806.200195312 -722.100097656 809.680175781 c 128,-1,32
 -741.240234375 813.16015625 -741.240234375 813.16015625 -751.6796875 813.16015625 c 256,33,34
 -766.595125174 813.16015625 -766.595125174 813.16015625 -796.257523524 799.8203125 c 128,-1,35
 -825.919921875 786.48046875 -825.919921875 786.48046875 -844.48046875 773.719726562 c 128,-1,36
 -863.040039062 760.959960938 -863.040039062 760.959960938 -895.51953125 736.599609375 c 2,37,-1
 -918.719726562 719.200195312 l 2,38,39
 -937.280273438 706.440429688 -937.280273438 706.440429688 -945.979980469 706.440429688 c 128,-1,40
 -954.6796875 706.440429688 -954.6796875 706.440429688 -965.699707031 720.940429688 c 128,-1,41
 -976.719726562 735.440429688 -976.719726562 735.440429688 -976.719726562 745.880371094 c 128,-1,42
 -976.719726562 756.3203125 -976.719726562 756.3203125 -957 767.919921875 c 1,43,44
 -939.599609375 783 -939.599609375 783 -919.879882812 793.440429688 c 128,-1,45
 -900.16015625 803.879882812 -900.16015625 803.879882812 -856.080078125 823.599609375 c 2,46,-1
 -794.599609375 850.280273438 l 1,47,-1
 -793.440429688 887.400390625 l 2,48,49
 -792.280273438 948.879882812 -792.280273438 948.879882812 -748.200195312 974.400390625 c 0,50,51
 -737.759765625 981.360351562 -737.759765625 981.360351562 -722.099609375 983.6796875 c 128,-1,52
 -706.440429688 986 -706.440429688 986 -652.5 986 c 128,-1,53
 -598.559570312 986 -598.559570312 986 -578.259765625 983.680175781 c 0,54,55
 -537.661094216 979.040634533 -537.661094216 979.040634533 -504.599609375 1001.08007812 c 1,0,1
-604.360351562 909.440429688 m 0,56,57
 -604.360351562 947.719726562 -604.360351562 947.719726562 -665.83984375 947.719726562 c 0,58,59
 -685.559570312 947.719726562 -685.559570312 947.719726562 -694.259765625 944.240234375 c 128,-1,60
 -702.959960938 940.759765625 -702.959960938 940.759765625 -717.459960938 923.939941406 c 128,-1,61
 -731.959960938 907.120117188 -731.959960938 907.120117188 -731.959960938 890.879882812 c 0,62,63
 -731.959960938 858.400390625 -731.959960938 858.400390625 -684.400390625 858.400390625 c 0,64,65
 -643.799525636 858.400390625 -643.799525636 858.400390625 -624.079938599 874.060058594 c 128,-1,66
 -604.360351562 889.719726562 -604.360351562 889.719726562 -604.360351562 909.440429688 c 0,56,57
EndSplineSet
EndChar

StartChar: g
Encoding: 103 103 22
Width: 46
VWidth: 1392
GlyphClass: 1
Flags: W
LayerCount: 2
Back
SplineSet
-346 740 m 0,1,2
 -332 740 -332 740 -323 729.5 c 128,-1,3
 -314 719 -314 719 -318 704 c 0,4,5
 -320 695 -320 695 -355 674.5 c 128,-1,6
 -390 654 -390 654 -440 634 c 2,7,-1
 -498 611 l 1,8,-1
 -498 584 l 2,9,10
 -498 532 -498 532 -539 509 c 0,11,12
 -552 502 -552 502 -577 497.5 c 128,-1,13
 -602 493 -602 493 -629 493 c 0,14,15
 -649 493 -649 493 -667 496 c 0,16,17
 -682 499 -682 499 -689 499 c 256,18,19
 -696 499 -696 499 -707 493.5 c 128,-1,20
 -718 488 -718 488 -726 484 c 2,21,-1
 -741 477 l 1,22,-1
 -735 470 l 2,23,24
 -725 460 -725 460 -725 455 c 0,25,26
 -725 447 -725 447 -726.5 442 c 128,-1,27
 -728 437 -728 437 -734 433 c 0,28,29
 -740 427 -740 427 -748 427 c 0,30,31
 -753 427 -753 427 -759 430 c 0,32,33
 -766 432 -766 432 -781 452 c 1,34,-1
 -816 426 l 2,35,36
 -831 414 -831 414 -838 414 c 0,37,38
 -842 414 -842 414 -846 417.5 c 128,-1,39
 -850 421 -850 421 -855 426 c 0,40,41
 -863 437 -863 437 -863 443 c 0,42,43
 -863 447 -863 447 -858 452.5 c 128,-1,44
 -853 458 -853 458 -845 464 c 0,45,46
 -830 477 -830 477 -803 491 c 1,47,48
 -811 509 -811 509 -811 517 c 0,49,50
 -811 524 -811 524 -809 528 c 0,51,52
 -805 536 -805 536 -799.5 540.5 c 128,-1,53
 -794 545 -794 545 -788 545 c 256,54,55
 -782 545 -782 545 -779 541 c 0,56,57
 -777 540 -777 540 -774.5 535.5 c 128,-1,58
 -772 531 -772 531 -770 525 c 2,59,-1
 -765 511 l 1,60,-1
 -728 531 l 1,61,-1
 -727 563 l 2,62,63
 -726 616 -726 616 -688 638 c 0,64,65
 -679 644 -679 644 -665.5 646 c 128,-1,66
 -652 648 -652 648 -618 648 c 0,67,68
 -559 648 -559 648 -538 645 c 0,69,70
 -524 644 -524 644 -512.5 646.5 c 128,-1,71
 -501 649 -501 649 -487 656 c 0,72,73
 -472 663 -472 663 -432.5 688.5 c 128,-1,74
 -393 714 -393 714 -363 735 c 0,75,0
 -357 740 -357 740 -346 740 c 0,1,2
-578 606.5 m 128,-1,77
 -592 615 -592 615 -617 615 c 0,78,79
 -634 615 -634 615 -641.5 612 c 128,-1,80
 -649 609 -649 609 -659 598 c 0,81,82
 -674 580 -674 580 -674 566 c 0,83,84
 -674 555 -674 555 -667 547 c 0,85,86
 -658 538 -658 538 -633 538 c 0,87,88
 -618 538 -618 538 -603.5 541.5 c 128,-1,89
 -589 545 -589 545 -580 552 c 0,90,91
 -564 565 -564 565 -564 582 c 0,92,76
 -564 598 -564 598 -578 606.5 c 128,-1,77
EndSplineSet
Fore
SplineSet
-805.040039062 734.280273438 m 0,0,1
 -812 727.3203125 -812 727.3203125 -824.905242916 727.3203125 c 128,-1,2
 -837.810485832 727.3203125 -837.810485832 727.3203125 -859.559570312 756.3203125 c 1,3,-1
 -900.16015625 726.16015625 l 2,4,5
 -917.559570312 712.240234375 -917.559570312 712.240234375 -923.939941406 712.240234375 c 0,6,7
 -931.478124934 712.240234375 -931.478124934 712.240234375 -945.400390625 726.16015625 c 0,8,9
 -954.6796875 738.919921875 -954.6796875 738.919921875 -954.6796875 744.719726562 c 0,10,11
 -954.6796875 754.580871563 -954.6796875 754.580871563 -933.799804688 770.240234375 c 0,12,13
 -916.400390625 785.3203125 -916.400390625 785.3203125 -885.080078125 801.559570312 c 1,14,15
 -894.360351562 822.440429688 -894.360351562 822.440429688 -894.360351562 831.140136719 c 128,-1,16
 -894.360351562 839.83984375 -894.360351562 839.83984375 -890.880371094 846.799804688 c 0,17,18
 -882.180175781 864.200195312 -882.180175781 864.200195312 -867.6796875 864.200195312 c 256,19,20
 -854.53428821 864.200195312 -854.53428821 864.200195312 -846.799804688 841 c 2,21,-1
 -841 824.759765625 l 1,22,-1
 -798.080078125 847.959960938 l 1,23,-1
 -796.919921875 885.080078125 l 2,24,25
 -795.759765625 946.559570312 -795.759765625 946.559570312 -751.6796875 972.080078125 c 0,26,27
 -741.240234375 979.040039062 -741.240234375 979.040039062 -725.580078125 981.360351562 c 128,-1,28
 -709.919921875 983.6796875 -709.919921875 983.6796875 -655.979980469 983.6796875 c 128,-1,29
 -602.040039062 983.6796875 -602.040039062 983.6796875 -581.740234375 981.359863281 c 0,30,31
 -549.165001549 977.637225788 -549.165001549 977.637225788 -525.142559368 989.358651956 c 0,32,33
 -477.611577361 1012.55075258 -477.611577361 1012.55075258 -374.6796875 1084.59960938 c 0,34,35
 -367.719726562 1090.40039062 -367.719726562 1090.40039062 -353.219726562 1090.40039062 c 128,-1,36
 -338.719726562 1090.40039062 -338.719726562 1090.40039062 -328.280273438 1078.21972656 c 128,-1,37
 -317.83984375 1066.04003906 -317.83984375 1066.04003906 -322.48046875 1048.63964844 c 0,38,39
 -324.799804688 1038.20019531 -324.799804688 1038.20019531 -365.400390625 1014.41992188 c 128,-1,40
 -406 990.639648438 -406 990.639648438 -464 967.440429688 c 2,41,-1
 -531.280273438 940.759765625 l 1,42,-1
 -531.280273438 909.440429688 l 2,43,44
 -531.280273438 849.120117188 -531.280273438 849.120117188 -578.83984375 822.440429688 c 0,45,46
 -613.309111921 803.879882812 -613.309111921 803.879882812 -683.240234375 803.879882812 c 0,47,48
 -706.440429688 803.879882812 -706.440429688 803.879882812 -725.580078125 807.359863281 c 128,-1,49
 -744.719726562 810.83984375 -744.719726562 810.83984375 -752.83984375 810.83984375 c 256,50,51
 -760.9609375 810.83984375 -760.9609375 810.83984375 -795.759765625 793.440429688 c 1,52,-1
 -813.16015625 785.3203125 l 1,53,-1
 -806.200195312 777.200195312 l 1,54,55
 -794.599609375 765.599609375 -794.599609375 765.599609375 -794.599609375 758.059570312 c 0,56,57
 -794.599609375 741.240071592 -794.599609375 741.240071592 -805.040039062 734.280273438 c 0,0,1
-607.83984375 907.120117188 m 0,58,59
 -607.83984375 945.400390625 -607.83984375 945.400390625 -669.3203125 945.400390625 c 0,60,61
 -689.040039062 945.400390625 -689.040039062 945.400390625 -697.740234375 941.919921875 c 128,-1,62
 -706.440429688 938.440429688 -706.440429688 938.440429688 -720.940429688 921.620117188 c 128,-1,63
 -735.440429688 904.799804688 -735.440429688 904.799804688 -735.440429688 888.559570312 c 0,64,65
 -735.440429688 856.080078125 -735.440429688 856.080078125 -687.879882812 856.080078125 c 0,66,67
 -647.279296875 856.080078125 -647.279296875 856.080078125 -627.559570312 871.740234375 c 128,-1,68
 -607.83984375 887.400390625 -607.83984375 887.400390625 -607.83984375 907.120117188 c 0,58,59
EndSplineSet
EndChar

StartChar: h
Encoding: 104 104 23
Width: 46
VWidth: 1392
GlyphClass: 1
Flags: W
LayerCount: 2
Back
SplineSet
-768 438 m 0,1,2
 -758 438 -758 438 -743 445 c 0,3,4
 -724 456 -724 456 -705.5 472.5 c 128,-1,5
 -687 489 -687 489 -676 507 c 1,6,-1
 -672 511 l 1,7,-1
 -661 507 l 2,8,9
 -651 503 -651 503 -634 499.5 c 128,-1,10
 -617 496 -617 496 -607 496 c 0,11,12
 -591 496 -591 496 -575.5 505 c 128,-1,13
 -560 514 -560 514 -553 527 c 0,14,15
 -549 534 -549 534 -549 543 c 0,16,17
 -549 566 -549 566 -550 571.5 c 128,-1,18
 -551 577 -551 577 -559 594 c 0,19,20
 -569 613 -569 613 -568 616 c 0,21,22
 -564 620 -564 620 -555 626.5 c 128,-1,23
 -546 633 -546 633 -538 640 c 0,24,25
 -508 662 -508 662 -499 671 c 0,26,27
 -487 682 -487 682 -487 691 c 0,28,29
 -487 696 -487 696 -490 705 c 0,30,31
 -491 710 -491 710 -499 717.5 c 128,-1,32
 -507 725 -507 725 -510 725 c 0,33,34
 -514 722 -514 722 -525.5 711 c 128,-1,35
 -537 700 -537 700 -552 684 c 2,36,-1
 -593 642 l 1,37,-1
 -603 651 l 2,38,39
 -613 661 -613 661 -623 664 c 128,-1,40
 -633 667 -633 667 -652 667 c 0,41,42
 -672 667 -672 667 -684 663 c 0,43,44
 -694 657 -694 657 -703 647 c 128,-1,45
 -712 637 -712 637 -714 630 c 0,46,47
 -717 621 -717 621 -717 611 c 0,48,49
 -717 583 -717 583 -703 558 c 2,50,-1
 -697 545 l 2,51,52
 -699 541 -699 541 -706 532.5 c 128,-1,53
 -713 524 -713 524 -723 514 c 0,54,55
 -747 489 -747 489 -759 489 c 0,56,57
 -770 489 -770 489 -779 507 c 0,58,59
 -785 520 -785 520 -793 528.5 c 128,-1,60
 -801 537 -801 537 -807 537 c 0,61,62
 -817 537 -817 537 -824.5 524.5 c 128,-1,63
 -832 512 -832 512 -832 498 c 0,64,65
 -832 487 -832 487 -814 466.5 c 128,-1,66
 -796 446 -796 446 -781 441 c 0,67,0
 -774 438 -774 438 -768 438 c 0,1,2
-637 550 m 2,69,-1
 -642 550 l 2,70,71
 -646 550 -646 550 -648.5 551.5 c 128,-1,72
 -651 553 -651 553 -654 556 c 0,73,74
 -661 562 -661 562 -661 572 c 256,75,76
 -661 582 -661 582 -655 594 c 0,77,78
 -650 605 -650 605 -644.5 608.5 c 128,-1,79
 -639 612 -639 612 -627 612 c 0,80,81
 -612 612 -612 612 -608.5 609 c 128,-1,82
 -605 606 -605 606 -605 593 c 0,83,84
 -605 579 -605 579 -609.5 569.5 c 128,-1,85
 -614 560 -614 560 -621 556 c 0,86,68
 -625 552 -625 552 -637 550 c 2,69,-1
EndSplineSet
Fore
SplineSet
-897.83984375 773.139648438 m 128,-1,1
 -876.959960938 749.360351562 -876.959960938 749.360351562 -864.200195312 744.720214844 c 128,-1,2
 -851.440429688 740.080078125 -851.440429688 740.080078125 -842.16015625 740.080078125 c 0,3,4
 -816.851594788 740.080078125 -816.851594788 740.080078125 -771.98046875 780.099609375 c 0,5,6
 -750.51953125 799.240234375 -750.51953125 799.240234375 -737.759765625 820.120117188 c 1,7,-1
 -733.120117188 824.759765625 l 1,8,-1
 -720.360351562 820.120117188 l 1,9,10
 -688.456908948 807.360351562 -688.456908948 807.360351562 -663.808532599 807.360351562 c 128,-1,11
 -639.16015625 807.360351562 -639.16015625 807.360351562 -621.1796875 817.799804688 c 0,12,13
 -590.440429688 835.649644744 -590.440429688 835.649644744 -590.440429688 862.104607528 c 128,-1,14
 -590.440429688 888.559570312 -590.440429688 888.559570312 -591.599609375 894.940429688 c 128,-1,15
 -592.759765625 901.3203125 -592.759765625 901.3203125 -603.199707031 922.200195312 c 128,-1,16
 -613.639648438 943.080078125 -613.639648438 943.080078125 -612.48046875 946.559570312 c 0,17,18
 -607.83984375 951.200195312 -607.83984375 951.200195312 -597.400390625 958.740234375 c 0,19,20
 -549.375741996 993.423455034 -549.375741996 993.423455034 -533.947636623 1008.27178611 c 128,-1,21
 -518.51953125 1023.12011719 -518.51953125 1023.12011719 -518.51953125 1031.24023438 c 128,-1,22
 -518.51953125 1039.36035156 -518.51953125 1039.36035156 -520.83984375 1047.47998047 c 128,-1,23
 -523.16015625 1055.59960938 -523.16015625 1055.59960938 -532.440429688 1064.29980469 c 128,-1,24
 -541.719726562 1073 -541.719726562 1073 -545.200195312 1073 c 0,25,26
 -559.122226519 1062.55627884 -559.122226519 1062.55627884 -593.919921875 1025.44042969 c 1,27,-1
 -641.48046875 976.719726562 l 1,28,-1
 -653.080078125 987.16015625 l 2,29,30
 -664.6796875 998.759765625 -664.6796875 998.759765625 -676.280273438 1002.24023438 c 128,-1,31
 -687.879882812 1005.71972656 -687.879882812 1005.71972656 -710.5 1005.71972656 c 128,-1,32
 -733.120117188 1005.71972656 -733.120117188 1005.71972656 -747.040039062 1001.08007812 c 0,33,34
 -758.639648438 994.120117188 -758.639648438 994.120117188 -769.080078125 982.51953125 c 0,35,36
 -785.3203125 964.474488789 -785.3203125 964.474488789 -785.3203125 936.377381113 c 128,-1,37
 -785.3203125 908.280273438 -785.3203125 908.280273438 -769.080078125 879.280273438 c 1,38,-1
 -762.120117188 864.200195312 l 1,39,40
 -767.92197241 852.596484868 -767.92197241 852.596484868 -794.021044799 825.918359622 c 128,-1,41
 -820.120117188 799.240234375 -820.120117188 799.240234375 -833.459960938 799.240234375 c 128,-1,42
 -846.799804688 799.240234375 -846.799804688 799.240234375 -855.5 817.220214844 c 0,43,44
 -873.742223064 854.919921875 -873.742223064 854.919921875 -889.719726562 854.919921875 c 0,45,46
 -901.3203125 854.919921875 -901.3203125 854.919921875 -910.01953125 840.419921875 c 128,-1,47
 -918.719726562 825.919921875 -918.719726562 825.919921875 -918.719726562 811.419921875 c 128,-1,0
 -918.719726562 796.919921875 -918.719726562 796.919921875 -897.83984375 773.139648438 c 128,-1,1
-655.400390625 919.879882812 m 0,48,49
 -655.400390625 876.187391478 -655.400390625 876.187391478 -692.51953125 870 c 1,50,-1
 -698.3203125 870 l 2,51,52
 -705.278320038 870 -705.278320038 870 -712.8193358 876.959960938 c 128,-1,53
 -720.360351562 883.919921875 -720.360351562 883.919921875 -720.360351562 895.51953125 c 256,54,55
 -720.360351562 907.120117188 -720.360351562 907.120117188 -713.979980469 920.459960938 c 128,-1,56
 -707.599609375 933.799804688 -707.599609375 933.799804688 -701.219726562 937.860351562 c 128,-1,57
 -694.83984375 941.919921875 -694.83984375 941.919921875 -679.1796875 941.919921875 c 128,-1,58
 -663.51953125 941.919921875 -663.51953125 941.919921875 -659.459960938 938.440429688 c 128,-1,59
 -655.400390625 934.959960938 -655.400390625 934.959960938 -655.400390625 919.879882812 c 0,48,49
EndSplineSet
EndChar

StartChar: i
Encoding: 105 105 24
Width: 46
VWidth: 1392
GlyphClass: 1
Flags: W
LayerCount: 2
Back
SplineSet
-594 440 m 0,1,2
 -574 440 -574 440 -558 444 c 0,3,4
 -540 452 -540 452 -530 467 c 0,5,6
 -528 472 -528 472 -528 473.5 c 128,-1,7
 -528 475 -528 475 -531 478 c 256,8,9
 -534 481 -534 481 -536 481 c 0,10,11
 -539 481 -539 481 -549 474 c 0,12,13
 -567 467 -567 467 -577 467 c 0,14,15
 -600 467 -600 467 -621 485 c 0,16,17
 -640 501 -640 501 -663 505 c 0,18,19
 -675 507 -675 507 -677 510 c 128,-1,20
 -679 513 -679 513 -680 529 c 2,21,-1
 -681 542 l 1,22,-1
 -666 549 l 2,23,24
 -642 557 -642 557 -621 588 c 0,25,26
 -616 596 -616 596 -614.5 600 c 128,-1,27
 -613 604 -613 604 -613 611 c 0,28,29
 -614 626 -614 626 -626 641.5 c 128,-1,30
 -638 657 -638 657 -651 662 c 0,31,32
 -661 664 -661 664 -671 664 c 2,33,-1
 -706 662 l 1,34,-1
 -731 655 l 2,35,36
 -759 645 -759 645 -771 633 c 128,-1,37
 -783 621 -783 621 -784 603 c 0,38,39
 -785 600 -785 600 -785 595 c 0,40,41
 -785 591 -785 591 -783.5 586.5 c 128,-1,42
 -782 582 -782 582 -781 580 c 0,43,44
 -775 571 -775 571 -764 561.5 c 128,-1,45
 -753 552 -753 552 -744 549 c 0,46,47
 -738 544 -738 544 -724 542 c 0,48,49
 -715 542 -715 542 -713 538 c 2,50,-1
 -714 525 l 2,51,52
 -716 509 -716 509 -723 498.5 c 128,-1,53
 -730 488 -730 488 -747 474 c 0,54,55
 -761 462 -761 462 -764 456.5 c 128,-1,56
 -767 451 -767 451 -764 448 c 256,57,58
 -761 445 -761 445 -757 445 c 0,59,60
 -751 445 -751 445 -742 451 c 0,61,62
 -720 465 -720 465 -693 465 c 0,63,64
 -673 465 -673 465 -659 457 c 0,65,66
 -656 454 -656 454 -646.5 450 c 128,-1,67
 -637 446 -637 446 -633 444 c 0,68,0
 -613 440 -613 440 -594 440 c 0,1,2
-702 571 m 0,70,71
 -717 571 -717 571 -727 587 c 0,72,73
 -731 592 -731 592 -731 600 c 256,74,75
 -731 608 -731 608 -727 613 c 0,76,77
 -724 620 -724 620 -718.5 625.5 c 128,-1,78
 -713 631 -713 631 -705 636 c 2,79,-1
 -694 642 l 1,80,-1
 -687 638 l 1,81,-1
 -672 630 l 2,82,83
 -669 626 -669 626 -667.5 623 c 128,-1,84
 -666 620 -666 620 -666 613 c 0,85,86
 -666 588 -666 588 -688 575 c 0,87,69
 -693 571 -693 571 -702 571 c 0,70,71
EndSplineSet
Fore
SplineSet
-687.879882812 747.040039062 m 0,0,1
 -664.6796875 742.400390625 -664.6796875 742.400390625 -642.060058594 742.400390625 c 128,-1,2
 -619.440429688 742.400390625 -619.440429688 742.400390625 -600.879882812 747.040039062 c 0,3,4
 -580 756.3203125 -580 756.3203125 -568.400390625 773.719726562 c 0,5,6
 -566.080078125 779.51953125 -566.080078125 779.51953125 -566.080078125 781.259765625 c 128,-1,7
 -566.080078125 783 -566.080078125 783 -569.559570312 786.48046875 c 256,8,9
 -573.040039062 789.959960938 -573.040039062 789.959960938 -575.939941406 789.959960938 c 128,-1,10
 -578.83984375 789.959960938 -578.83984375 789.959960938 -590.440429688 781.83984375 c 0,11,12
 -611.3203125 773.719726562 -611.3203125 773.719726562 -630.459960938 773.719726562 c 128,-1,13
 -649.599609375 773.719726562 -649.599609375 773.719726562 -672.799804688 793.439941406 c 128,-1,14
 -696 813.16015625 -696 813.16015625 -716.299804688 816.640136719 c 128,-1,15
 -736.599609375 820.120117188 -736.599609375 820.120117188 -738.919921875 823.599609375 c 128,-1,16
 -741.240234375 827.080078125 -741.240234375 827.080078125 -742.400390625 845.639648438 c 2,17,-1
 -743.559570312 860.719726562 l 1,18,-1
 -726.16015625 868.83984375 l 1,19,20
 -698.3203125 878.120117188 -698.3203125 878.120117188 -673.959960938 914.080078125 c 0,21,22
 -655.089538811 944.274659952 -655.089538811 944.274659952 -679.759765625 976.139648438 c 0,23,24
 -693.6796875 994.120117188 -693.6796875 994.120117188 -708.759765625 999.919921875 c 0,25,26
 -720.360351562 1002.24023438 -720.360351562 1002.24023438 -731.959960938 1002.24023438 c 2,27,-1
 -772.559570312 999.919921875 l 1,28,-1
 -801.559570312 991.799804688 l 1,29,30
 -834.040039062 980.200195312 -834.040039062 980.200195312 -847.959960938 966.280273438 c 0,31,32
 -864.200195312 950.040039062 -864.200195312 950.040039062 -864.200195312 922.200195312 c 0,33,34
 -864.200195312 904.379685123 -864.200195312 904.379685123 -845.640136719 888.349998812 c 0,35,36
 -817.65413888 864.179451924 -817.65413888 864.179451924 -800.32706944 862.449589243 c 128,-1,37
 -783 860.719726562 -783 860.719726562 -780.6796875 856.080078125 c 1,38,-1
 -781.83984375 841 l 2,39,40
 -784.16015625 822.440429688 -784.16015625 822.440429688 -792.280273438 810.259765625 c 128,-1,41
 -800.400390625 798.080078125 -800.400390625 798.080078125 -818.380371094 783 c 0,42,43
 -847.085084474 758.924928224 -847.085084474 758.924928224 -839.83984375 751.6796875 c 256,44,45
 -836.360351562 748.200195312 -836.360351562 748.200195312 -830.560058594 748.200195312 c 128,-1,46
 -824.759765625 748.200195312 -824.759765625 748.200195312 -806.779785156 759.800292969 c 128,-1,47
 -788.799804688 771.400390625 -788.799804688 771.400390625 -761.540039062 771.400390625 c 128,-1,48
 -734.280273438 771.400390625 -734.280273438 771.400390625 -724.419921875 765.020019531 c 128,-1,49
 -714.559570312 758.639648438 -714.559570312 758.639648438 -703.540039062 754 c 128,-1,50
 -692.51953125 749.360351562 -692.51953125 749.360351562 -687.879882812 747.040039062 c 0,0,1
-751.6796875 899 m 0,51,52
 -757.48046875 894.360351562 -757.48046875 894.360351562 -771.400390625 894.360351562 c 128,-1,53
 -785.3203125 894.360351562 -785.3203125 894.360351562 -796.919921875 912.919921875 c 0,54,55
 -801.559570312 918.719726562 -801.559570312 918.719726562 -801.559570312 928 c 256,56,57
 -801.559570312 950.909484825 -801.559570312 950.909484825 -771.400390625 969.759765625 c 1,58,-1
 -758.639648438 976.719726562 l 1,59,-1
 -750.51953125 972.080078125 l 1,60,-1
 -733.120117188 962.799804688 l 1,61,62
 -726.16015625 953.521809622 -726.16015625 953.521809622 -726.16015625 943.080078125 c 0,63,64
 -726.16015625 914.080078125 -726.16015625 914.080078125 -751.6796875 899 c 0,51,52
EndSplineSet
EndChar

StartChar: j
Encoding: 106 106 25
Width: 46
VWidth: 1392
GlyphClass: 1
Flags: W
LayerCount: 2
Back
SplineSet
-251 524 m 0,1,2
 -251 509 -251 509 -256.5 496 c 128,-1,3
 -262 483 -262 483 -270 479 c 0,4,5
 -281 472 -281 472 -304 472 c 0,6,7
 -329 472 -329 472 -341 481 c 0,8,9
 -351 488 -351 488 -351 497 c 0,10,11
 -351 505 -351 505 -343.5 509 c 128,-1,12
 -336 513 -336 513 -324 511 c 0,13,14
 -305 508 -305 508 -305 515 c 256,15,16
 -305 522 -305 522 -321.5 533 c 128,-1,17
 -338 544 -338 544 -363 552 c 0,18,19
 -373 555 -373 555 -401 558 c 1,20,21
 -402 554 -402 554 -404.5 546 c 128,-1,22
 -407 538 -407 538 -411 533 c 128,-1,23
 -415 528 -415 528 -421 525 c 0,24,25
 -428 521 -428 521 -436 521 c 0,26,27
 -443 521 -443 521 -448 525 c 128,-1,28
 -453 529 -453 529 -453 534 c 0,29,30
 -453 541 -453 541 -449 552 c 2,31,-1
 -446 561 l 1,32,-1
 -505 564 l 1,33,-1
 -505 559 l 2,34,35
 -505 545 -505 545 -512 534 c 0,36,37
 -523 518 -523 518 -543.5 509 c 128,-1,38
 -564 500 -564 500 -588 500 c 0,39,40
 -618 500 -618 500 -645 513 c 0,41,42
 -667 523 -667 523 -698 551 c 0,43,44
 -704 556 -704 556 -708 567 c 1,45,46
 -816 565 -816 565 -859 563 c 0,47,48
 -908 560 -908 560 -930 560 c 0,49,50
 -956 560 -956 560 -961 565 c 0,51,52
 -974 580 -974 580 -908 590 c 128,-1,53
 -842 600 -842 600 -711 603 c 1,54,55
 -703 629 -703 629 -677.5 648.5 c 128,-1,56
 -652 668 -652 668 -627 666 c 0,57,58
 -585 663 -585 663 -557 646 c 128,-1,59
 -529 629 -529 629 -516 604 c 1,60,-1
 -440 602 l 1,61,62
 -441 608 -441 608 -441 617 c 2,63,-1
 -441 624 l 2,64,65
 -441 633 -441 633 -437 637 c 0,66,67
 -428 646 -428 646 -418 646 c 0,68,69
 -403 646 -403 646 -397 632 c 0,70,71
 -394 626 -394 626 -394 598 c 1,72,73
 -381 597 -381 597 -364 593 c 0,74,75
 -318 584 -318 584 -288 569.5 c 128,-1,76
 -258 555 -258 555 -253 540 c 0,77,0
 -251 535 -251 535 -251 524 c 0,1,2
-643 618 m 128,-1,79
 -654 612 -654 612 -660 604 c 1,80,-1
 -608 604 l 1,81,-1
 -578 604 l 1,82,83
 -603 624 -603 624 -622 624 c 0,84,78
 -632 624 -632 624 -643 618 c 128,-1,79
-558 565 m 1,85,-1
 -654 567 l 1,86,87
 -643 553 -643 553 -615 546 c 0,88,89
 -611 545 -611 545 -603 545 c 0,90,91
 -590 545 -590 545 -577.5 550 c 128,-1,92
 -565 555 -565 555 -559 563 c 2,93,-1
 -558 565 l 1,85,-1
EndSplineSet
Fore
SplineSet
-247.080078125 858.400390625 m 0,0,1
 -244.759765625 852.599609375 -244.759765625 852.599609375 -244.759765625 837.520019531 c 128,-1,2
 -244.759765625 822.440429688 -244.759765625 822.440429688 -251.139648438 807.360351562 c 128,-1,3
 -257.51953125 792.280273438 -257.51953125 792.280273438 -268.539550781 785.899902344 c 128,-1,4
 -279.559570312 779.51953125 -279.559570312 779.51953125 -307.399902344 779.51953125 c 128,-1,5
 -335.240234375 779.51953125 -335.240234375 779.51953125 -348 788.799804688 c 128,-1,6
 -360.759765625 798.080078125 -360.759765625 798.080078125 -360.759765625 807.939941406 c 128,-1,7
 -360.759765625 817.799804688 -360.759765625 817.799804688 -352.059570312 822.440429688 c 128,-1,8
 -343.360351562 827.080078125 -343.360351562 827.080078125 -325.380371094 824.180175781 c 128,-1,9
 -307.400390625 821.280273438 -307.400390625 821.280273438 -307.400390625 829.400390625 c 256,10,11
 -307.400390625 837.51953125 -307.400390625 837.51953125 -326.540039062 850.280273438 c 0,12,13
 -360.70905858 873.059619783 -360.70905858 873.059619783 -418.759765625 879.280273438 c 1,14,15
 -429.489746094 836.360351562 -429.489746094 836.360351562 -459.360351562 836.360351562 c 0,16,17
 -467.48046875 836.360351562 -467.48046875 836.360351562 -473.280273438 841 c 128,-1,18
 -479.080078125 845.639648438 -479.080078125 845.639648438 -479.080078125 852.599609375 c 128,-1,19
 -479.080078125 859.559570312 -479.080078125 859.559570312 -474.440429688 872.3203125 c 2,20,-1
 -470.959960938 882.759765625 l 1,21,-1
 -539.400390625 886.240234375 l 1,22,-1
 -539.400390625 880.440429688 l 2,23,24
 -539.400390625 842.046451489 -539.400390625 842.046451489 -584.059570312 822.440429688 c 0,25,26
 -607.83984375 812 -607.83984375 812 -639.16015625 812 c 128,-1,27
 -670.48046875 812 -670.48046875 812 -698.900390625 825.33984375 c 128,-1,28
 -727.3203125 838.6796875 -727.3203125 838.6796875 -763.280273438 871.16015625 c 0,29,30
 -770.240234375 876.959960938 -770.240234375 876.959960938 -774.879882812 889.719726562 c 1,31,32
 -900.16015625 887.400390625 -900.16015625 887.400390625 -953.520019531 884.5 c 128,-1,33
 -1006.87988281 881.599609375 -1006.87988281 881.599609375 -1034.71972656 881.599609375 c 128,-1,34
 -1062.55957031 881.599609375 -1062.55957031 881.599609375 -1068.36035156 887.400390625 c 0,35,36
 -1083.44042969 904.799804688 -1083.44042969 904.799804688 -1006.87988281 916.400390625 c 128,-1,37
 -930.3203125 928 -930.3203125 928 -778.360351562 931.48046875 c 1,38,39
 -769.080078125 961.639648438 -769.080078125 961.639648438 -739.5 984.259765625 c 128,-1,40
 -709.919921875 1006.87988281 -709.919921875 1006.87988281 -680.919921875 1004.55957031 c 0,41,42
 -632.200195312 1001.08007812 -632.200195312 1001.08007812 -599.719726562 981.360351562 c 128,-1,43
 -567.240234375 961.639648438 -567.240234375 961.639648438 -552.16015625 932.639648438 c 1,44,-1
 -464 930.3203125 l 1,45,46
 -465.16015625 937.280273438 -465.16015625 937.280273438 -465.16015625 947.719726562 c 2,47,-1
 -465.16015625 955.83984375 l 2,48,49
 -465.16015625 966.280273438 -465.16015625 966.280273438 -457.620117188 973.8203125 c 128,-1,50
 -450.080078125 981.360351562 -450.080078125 981.360351562 -435.580078125 981.360351562 c 128,-1,51
 -421.080078125 981.360351562 -421.080078125 981.360351562 -414.120117188 965.120117188 c 0,52,53
 -410.639648438 958.16015625 -410.639648438 958.16015625 -410.639648438 925.6796875 c 1,54,55
 -345.750500339 920.687568089 -345.750500339 920.687568089 -299.315191576 898.243686388 c 128,-1,56
 -252.879882812 875.799804688 -252.879882812 875.799804688 -247.080078125 858.400390625 c 0,0,1
-719.200195312 932.639648438 m 1,57,-1
 -658.879882812 932.639648438 l 1,58,-1
 -624.080078125 932.639648438 l 1,59,60
 -653.080078125 955.83984375 -653.080078125 955.83984375 -669.899902344 955.83984375 c 0,61,62
 -701.800659167 955.83984375 -701.800659167 955.83984375 -719.200195312 932.639648438 c 1,57,-1
-600.879882812 887.400390625 m 1,63,-1
 -712.240234375 889.719726562 l 1,64,65
 -699.48046875 873.48046875 -699.48046875 873.48046875 -667 865.360351562 c 0,66,67
 -662.360351562 864.200195312 -662.360351562 864.200195312 -650.180175781 864.200195312 c 128,-1,68
 -638 864.200195312 -638 864.200195312 -623.5 870 c 0,69,70
 -606.100244139 876.959667973 -606.100244139 876.959667973 -600.879882812 887.400390625 c 1,63,-1
EndSplineSet
EndChar

StartChar: k
Encoding: 107 107 26
Width: 46
VWidth: 1392
GlyphClass: 1
Flags: W
LayerCount: 2
Back
SplineSet
-764 443 m 0,1,2
 -753 443 -753 443 -738 450 c 0,3,4
 -719 460 -719 460 -700.5 476.5 c 128,-1,5
 -682 493 -682 493 -671 511 c 2,6,-1
 -667 516 l 1,7,-1
 -656 511 l 2,8,9
 -644 507 -644 507 -627.5 504 c 128,-1,10
 -611 501 -611 501 -602 501 c 0,11,12
 -586 501 -586 501 -570.5 510 c 128,-1,13
 -555 519 -555 519 -548 532 c 0,14,15
 -544 539 -544 539 -544 546 c 0,16,17
 -544 570 -544 570 -545 576 c 128,-1,18
 -546 582 -546 582 -554 599 c 2,19,-1
 -571 627 l 1,20,-1
 -588 647 l 1,21,-1
 -597 655 l 2,22,23
 -608 665 -608 665 -617.5 668.5 c 128,-1,24
 -627 672 -627 672 -647 672 c 0,25,26
 -659 672 -659 672 -665 671 c 128,-1,27
 -671 670 -671 670 -679 667 c 0,28,29
 -688 662 -688 662 -697 652.5 c 128,-1,30
 -706 643 -706 643 -709 635 c 0,31,32
 -712 626 -712 626 -712 616 c 0,33,34
 -712 588 -712 588 -698 563 c 2,35,-1
 -692 550 l 2,36,37
 -692 546 -692 546 -717 519 c 0,38,39
 -741 493 -741 493 -754 493 c 0,40,41
 -765 493 -765 493 -774 511 c 0,42,43
 -780 524 -780 524 -788 532.5 c 128,-1,44
 -796 541 -796 541 -801 541 c 0,45,46
 -811 541 -811 541 -819 529.5 c 128,-1,47
 -827 518 -827 518 -827 503 c 0,48,49
 -827 491 -827 491 -809.5 471 c 128,-1,50
 -792 451 -792 451 -776 445 c 0,51,0
 -768 443 -768 443 -764 443 c 0,1,2
-632 555 m 2,53,-1
 -638 554 l 2,54,55
 -642 554 -642 554 -645 557 c 128,-1,56
 -648 560 -648 560 -649 561 c 0,57,58
 -655 567 -655 567 -655 577 c 0,59,60
 -655 586 -655 586 -650 599 c 0,61,62
 -645 610 -645 610 -639 613.5 c 128,-1,63
 -633 617 -633 617 -621 617 c 0,64,65
 -607 617 -607 617 -603.5 614 c 128,-1,66
 -600 611 -600 611 -600 598 c 0,67,68
 -600 584 -600 584 -604 574 c 128,-1,69
 -608 564 -608 564 -615 561 c 0,70,52
 -620 557 -620 557 -632 555 c 2,53,-1
EndSplineSet
Fore
SplineSet
-892.620117188 778.360351562 m 128,-1,1
 -872.3203125 755.16015625 -872.3203125 755.16015625 -858.400390625 750.520019531 c 128,-1,2
 -844.48046875 745.879882812 -844.48046875 745.879882812 -835.780273438 745.879882812 c 128,-1,3
 -827.080078125 745.879882812 -827.080078125 745.879882812 -807.359863281 755.739746094 c 128,-1,4
 -787.639648438 765.599609375 -787.639648438 765.599609375 -766.1796875 784.740234375 c 128,-1,5
 -744.719726562 803.879882812 -744.719726562 803.879882812 -731.959960938 824.759765625 c 1,6,-1
 -727.3203125 830.559570312 l 1,7,-1
 -714.559570312 824.759765625 l 1,8,9
 -679.758300678 813.16015625 -679.758300678 813.16015625 -656.55932612 813.16015625 c 128,-1,10
 -633.360351562 813.16015625 -633.360351562 813.16015625 -615.379882812 823.599609375 c 0,11,12
 -584.639648438 841.450016507 -584.639648438 841.450016507 -584.639648438 867.32510591 c 128,-1,13
 -584.639648438 893.200195312 -584.639648438 893.200195312 -585.799804688 900.16015625 c 128,-1,14
 -586.959960938 907.120117188 -586.959960938 907.120117188 -596.240234375 926.83984375 c 1,15,-1
 -615.959960938 959.3203125 l 1,16,-1
 -635.6796875 982.51953125 l 1,17,-1
 -646.120117188 991.799804688 l 2,18,19
 -658.879882812 1003.40039062 -658.879882812 1003.40039062 -669.900390625 1007.45996094 c 128,-1,20
 -680.919921875 1011.51953125 -680.919921875 1011.51953125 -699.479980469 1011.51953125 c 0,21,22
 -725.775715872 1011.51953125 -725.775715872 1011.51953125 -741.240234375 1005.71972656 c 0,23,24
 -751.6796875 999.919921875 -751.6796875 999.919921875 -762.120117188 988.900390625 c 0,25,26
 -779.51953125 970.532533965 -779.51953125 970.532533965 -779.51953125 942.306306045 c 128,-1,27
 -779.51953125 914.080078125 -779.51953125 914.080078125 -763.280273438 885.080078125 c 1,28,-1
 -756.3203125 870 l 1,29,30
 -756.3203125 865.360351562 -756.3203125 865.360351562 -784.740234375 834.620117188 c 128,-1,31
 -813.16015625 803.879882812 -813.16015625 803.879882812 -827.080078125 803.879882812 c 128,-1,32
 -841 803.879882812 -841 803.879882812 -849.700195312 821.859863281 c 128,-1,33
 -858.400390625 839.83984375 -858.400390625 839.83984375 -867.6796875 849.700195312 c 128,-1,34
 -876.959960938 859.559570312 -876.959960938 859.559570312 -885.66015625 859.559570312 c 128,-1,35
 -894.360351562 859.559570312 -894.360351562 859.559570312 -903.639648438 846.219726562 c 128,-1,36
 -912.919921875 832.879882812 -912.919921875 832.879882812 -912.919921875 817.219726562 c 128,-1,0
 -912.919921875 801.559570312 -912.919921875 801.559570312 -892.620117188 778.360351562 c 128,-1,1
-667 882.759765625 m 0,37,38
 -672.799804687 878.120117188 -672.799804687 878.120117188 -693.6796875 874.639648438 c 0,39,40
 -698.3203125 874.639648438 -698.3203125 874.639648438 -705.860351562 882.1796875 c 128,-1,41
 -713.400390625 889.719726562 -713.400390625 889.719726562 -713.400390625 900.739746094 c 128,-1,42
 -713.400390625 911.759765625 -713.400390625 911.759765625 -707.600097656 925.6796875 c 128,-1,43
 -701.799804688 939.599609375 -701.799804688 939.599609375 -694.83984375 943.66015625 c 128,-1,44
 -687.879882812 947.719726562 -687.879882812 947.719726562 -672.799804688 947.719726562 c 128,-1,45
 -657.719726562 947.719726562 -657.719726562 947.719726562 -653.66015625 944.240234375 c 128,-1,46
 -649.599609375 940.759765625 -649.599609375 940.759765625 -649.599609375 925.100097656 c 0,47,48
 -649.599609375 890.217972743 -649.599609375 890.217972743 -667 882.759765625 c 0,37,38
EndSplineSet
EndChar

StartChar: oe
Encoding: 339 339 27
Width: 46
VWidth: 1392
GlyphClass: 1
Flags: W
LayerCount: 2
Back
Refer: 28 113 N 1 0 0 1 280 0 0
Fore
SplineSet
-412.959960938 843.3203125 m 0,0,1
 -407.16015625 842.16015625 -407.16015625 842.16015625 -407.16015625 832.879882812 c 128,-1,2
 -407.16015625 823.599609375 -407.16015625 823.599609375 -412.959960938 720.360351562 c 1,3,4
 -412.959960938 696 -412.959960938 696 -408.3203125 689.620117188 c 128,-1,5
 -403.680664062 683.240234375 -403.680664062 683.240234375 -388.600585938 683.240234375 c 128,-1,6
 -373.520507812 683.240234375 -373.520507812 683.240234375 -367.140625 693.099609375 c 128,-1,7
 -360.759765625 702.959960938 -360.759765625 702.959960938 -360.759765625 715.140625 c 128,-1,8
 -360.759765625 727.3203125 -360.759765625 727.3203125 -368.879882812 823.599609375 c 0,9,10
 -368.879882812 835.200195312 -368.879882812 835.200195312 -365.98046875 841.580078125 c 128,-1,11
 -363.080078125 847.959960938 -363.080078125 847.959960938 -349.740234375 862.459960938 c 128,-1,12
 -336.400390625 876.959960938 -336.400390625 876.959960938 -310.879882812 924.51953125 c 128,-1,13
 -285.360351562 972.080078125 -285.360351562 972.080078125 -285.360351562 1005.71972656 c 0,14,15
 -285.360351562 1052.12011719 -285.360351562 1052.12011719 -334.080078125 1081.12011719 c 0,16,17
 -345.680664062 1086.91992188 -345.680664062 1086.91992188 -360.180664062 1086.91992188 c 128,-1,18
 -374.680664062 1086.91992188 -374.680664062 1086.91992188 -406 1074.16015625 c 256,19,20
 -437.3203125 1061.40039062 -437.3203125 1061.40039062 -461.100585938 1021.95996094 c 128,-1,21
 -484.879882812 982.51953125 -484.879882812 982.51953125 -487.200195312 929.16015625 c 0,22,23
 -488.360351562 901.3203125 -488.360351562 901.3203125 -466.3203125 876.959960938 c 128,-1,24
 -444.280273438 852.599609375 -444.280273438 852.599609375 -412.959960938 843.3203125 c 0,0,1
-396.719726562 897.83984375 m 0,25,26
 -408.3203125 895.51953125 -408.3203125 895.51953125 -420.5 907.120117188 c 0,27,28
 -448.541015625 933.823242188 -448.541015625 933.823242188 -427.459960938 974.98046875 c 0,29,30
 -415.280273438 998.759765625 -415.280273438 998.759765625 -397.299804688 1013.25976562 c 128,-1,31
 -379.3203125 1027.75976562 -379.3203125 1027.75976562 -368.879882812 1020.79980469 c 0,32,33
 -346.83984375 1006.10644531 -346.83984375 1006.10644531 -346.83984375 968.599609375 c 0,34,35
 -346.83984375 910.965820312 -346.83984375 910.965820312 -396.719726562 897.83984375 c 0,25,26
EndSplineSet
EndChar

StartChar: q
Encoding: 113 113 28
Width: 46
VWidth: 1392
GlyphClass: 1
Flags: W
LayerCount: 2
Back
SplineSet
-636.5 397.5 m 128,-1,1
 -631 406 -631 406 -631 427 c 0,2,3
 -631 443 -631 443 -634 468 c 0,4,5
 -638 508 -638 508 -638 510 c 0,6,7
 -638 520 -638 520 -635.5 525.5 c 128,-1,8
 -633 531 -633 531 -625 540 c 0,9,10
 -610 556 -610 556 -589 595 c 0,11,12
 -566 638 -566 638 -566 667 c 0,13,14
 -566 707 -566 707 -608 732 c 0,15,16
 -618 737 -618 737 -627 737 c 0,17,18
 -643 737 -643 737 -670 726 c 256,19,20
 -697 715 -697 715 -717.5 681 c 128,-1,21
 -738 647 -738 647 -740 601 c 0,22,23
 -741 577 -741 577 -722 556 c 128,-1,24
 -703 535 -703 535 -676 527 c 0,25,26
 -671 526 -671 526 -671 510 c 0,27,28
 -671 504 -671 504 -673 478 c 0,29,30
 -676 448 -676 448 -676 421 c 0,31,32
 -676 400 -676 400 -672 394.5 c 128,-1,33
 -668 389 -668 389 -654 389 c 0,34,0
 -642 389 -642 389 -636.5 397.5 c 128,-1,1
-634.5 589.5 m 128,-1,36
 -643 579 -643 579 -662 574 c 0,37,38
 -672 572 -672 572 -682.5 582 c 128,-1,39
 -693 592 -693 592 -695 606 c 0,40,41
 -699 620 -699 620 -688.5 640.5 c 128,-1,42
 -678 661 -678 661 -662.5 673.5 c 128,-1,43
 -647 686 -647 686 -637 679 c 0,44,45
 -629 674 -629 674 -624 661.5 c 128,-1,46
 -619 649 -619 649 -619 635 c 0,47,48
 -619 627 -619 627 -620 623 c 0,49,35
 -626 600 -626 600 -634.5 589.5 c 128,-1,36
EndSplineSet
Fore
SplineSet
-737.759765625 843.3203125 m 0,0,1
 -731.959960938 842.16015625 -731.959960938 842.16015625 -731.959960938 832.879882812 c 128,-1,2
 -731.959960938 823.599609375 -731.959960938 823.599609375 -737.759765625 720.360351562 c 1,3,4
 -737.759765625 696 -737.759765625 696 -733.120117188 689.620117188 c 128,-1,5
 -728.48046875 683.240234375 -728.48046875 683.240234375 -713.400390625 683.240234375 c 128,-1,6
 -698.3203125 683.240234375 -698.3203125 683.240234375 -691.940429688 693.099609375 c 128,-1,7
 -685.559570312 702.959960938 -685.559570312 702.959960938 -685.559570312 715.140136719 c 128,-1,8
 -685.559570312 727.3203125 -685.559570312 727.3203125 -693.6796875 823.599609375 c 0,9,10
 -693.6796875 835.200195312 -693.6796875 835.200195312 -690.780273438 841.580078125 c 128,-1,11
 -687.879882812 847.959960938 -687.879882812 847.959960938 -674.540039062 862.459960938 c 128,-1,12
 -661.200195312 876.959960938 -661.200195312 876.959960938 -635.680175781 924.520019531 c 128,-1,13
 -610.16015625 972.080078125 -610.16015625 972.080078125 -610.16015625 1005.71972656 c 0,14,15
 -610.16015625 1052.12011719 -610.16015625 1052.12011719 -658.879882812 1081.12011719 c 0,16,17
 -670.48046875 1086.91992188 -670.48046875 1086.91992188 -684.98046875 1086.91992188 c 128,-1,18
 -699.48046875 1086.91992188 -699.48046875 1086.91992188 -730.799804688 1074.16015625 c 256,19,20
 -762.120117188 1061.40039062 -762.120117188 1061.40039062 -785.900390625 1021.95996094 c 128,-1,21
 -809.6796875 982.51953125 -809.6796875 982.51953125 -812 929.16015625 c 0,22,23
 -813.16015625 901.3203125 -813.16015625 901.3203125 -791.120117188 876.959960938 c 128,-1,24
 -769.080078125 852.599609375 -769.080078125 852.599609375 -737.759765625 843.3203125 c 0,0,1
-721.51953125 897.83984375 m 0,25,26
 -733.120117188 895.51953125 -733.120117188 895.51953125 -745.299804688 907.120117188 c 0,27,28
 -773.340991964 933.823654626 -773.340991964 933.823654626 -752.259765625 974.98046875 c 0,29,30
 -740.080078125 998.759765625 -740.080078125 998.759765625 -722.099609375 1013.25976562 c 128,-1,31
 -704.120117188 1027.75976562 -704.120117188 1027.75976562 -693.680175781 1020.79980469 c 0,32,33
 -671.639648438 1006.10611979 -671.639648438 1006.10611979 -671.639648438 968.599609375 c 0,34,35
 -671.639648438 910.966245027 -671.639648438 910.966245027 -721.51953125 897.83984375 c 0,25,26
EndSplineSet
EndChar

StartChar: r
Encoding: 114 114 29
Width: 46
VWidth: 1392
GlyphClass: 1
Flags: W
LayerCount: 2
Back
SplineSet
-382 318 m 0,1,2
 -397 325 -397 325 -407.5 329 c 128,-1,3
 -418 333 -418 333 -427 333 c 256,4,5
 -436 333 -436 333 -451 330 c 0,6,7
 -469 327 -469 327 -489 327 c 0,8,9
 -516 327 -516 327 -541 331.5 c 128,-1,10
 -566 336 -566 336 -579 343 c 0,11,12
 -620 366 -620 366 -620 418 c 2,13,-1
 -620 445 l 1,14,-1
 -678 468 l 2,15,16
 -728 488 -728 488 -763 508.5 c 128,-1,17
 -798 529 -798 529 -800 538 c 0,18,19
 -804 553 -804 553 -795 563.5 c 128,-1,20
 -786 574 -786 574 -772 574 c 0,21,22
 -761 574 -761 574 -755 569 c 0,23,24
 -725 548 -725 548 -685.5 522.5 c 128,-1,25
 -646 497 -646 497 -631 490 c 0,26,27
 -617 483 -617 483 -605.5 480.5 c 128,-1,28
 -594 478 -594 478 -580 479 c 0,29,30
 -559 482 -559 482 -500 482 c 0,31,32
 -466 482 -466 482 -452.5 480 c 128,-1,33
 -439 478 -439 478 -430 472 c 0,34,35
 -392 450 -392 450 -391 397 c 2,36,-1
 -390 365 l 1,37,-1
 -337 342 l 2,38,39
 -283 318 -283 318 -264 308.5 c 128,-1,40
 -245 299 -245 299 -230 286 c 0,41,42
 -213 276 -213 276 -213 266 c 0,43,44
 -213 258 -213 258 -222 246 c 0,45,46
 -232 233 -232 233 -241 233 c 0,47,48
 -247 233 -247 233 -263 244 c 0,49,0
 -338 300 -338 300 -382 318 c 0,1,2
-444 400 m 0,51,52
 -444 414 -444 414 -459 432 c 0,53,54
 -469 443 -469 443 -476.5 446 c 128,-1,55
 -484 449 -484 449 -501 449 c 0,56,57
 -526 449 -526 449 -540 440.5 c 128,-1,58
 -554 432 -554 432 -554 416 c 0,59,60
 -554 399 -554 399 -538 386 c 0,61,62
 -529 379 -529 379 -514.5 375.5 c 128,-1,63
 -500 372 -500 372 -485 372 c 0,64,65
 -460 372 -460 372 -451 381 c 0,66,50
 -444 389 -444 389 -444 400 c 0,51,52
EndSplineSet
Fore
SplineSet
-258.6796875 515.040039062 m 0,0,1
 -353.687612666 585.979247195 -353.687612666 585.979247195 -426.299804688 613.639648438 c 0,2,3
 -438.48046875 618.280273438 -438.48046875 618.280273438 -448.919921875 618.280273438 c 256,4,5
 -459.360351562 618.280273438 -459.360351562 618.280273438 -478.5 614.800292969 c 128,-1,6
 -497.639648438 611.3203125 -497.639648438 611.3203125 -524.899902344 611.3203125 c 0,7,8
 -590.772779803 611.3203125 -590.772779803 611.3203125 -625.240234375 629.879882812 c 0,9,10
 -672.799804688 656.559570312 -672.799804688 656.559570312 -672.799804688 716.879882812 c 2,11,-1
 -672.799804688 748.200195312 l 1,12,-1
 -740.080078125 774.879882812 l 2,13,14
 -798.080078125 798.080078125 -798.080078125 798.080078125 -838.6796875 821.860351562 c 128,-1,15
 -879.280273438 845.639648438 -879.280273438 845.639648438 -881.599609375 856.080078125 c 0,16,17
 -886.240234375 873.48046875 -886.240234375 873.48046875 -875.799804688 885.66015625 c 128,-1,18
 -865.360351562 897.83984375 -865.360351562 897.83984375 -850.860351562 897.83984375 c 128,-1,19
 -836.360351562 897.83984375 -836.360351562 897.83984375 -829.400390625 892.040039062 c 0,20,21
 -724.328206958 818.490100192 -724.328206958 818.490100192 -696.824259729 805.385186815 c 128,-1,22
 -669.3203125 792.280273438 -669.3203125 792.280273438 -655.98046875 789.379882812 c 128,-1,23
 -642.639648438 786.48046875 -642.639648438 786.48046875 -622.33984375 788.800292969 c 128,-1,24
 -602.040039062 791.120117188 -602.040039062 791.120117188 -548.100097656 791.120117188 c 128,-1,25
 -494.16015625 791.120117188 -494.16015625 791.120117188 -478.5 788.799804688 c 128,-1,26
 -462.83984375 786.48046875 -462.83984375 786.48046875 -452.400390625 779.51953125 c 0,27,28
 -408.3203125 754 -408.3203125 754 -407.16015625 692.51953125 c 2,29,-1
 -406 655.400390625 l 1,30,-1
 -344.51953125 628.719726562 l 2,31,32
 -281.879882812 600.879882812 -281.879882812 600.879882812 -259.83984375 589.860351562 c 128,-1,33
 -237.799804688 578.83984375 -237.799804688 578.83984375 -220.400390625 563.759765625 c 1,34,35
 -200.6796875 552.16015625 -200.6796875 552.16015625 -200.6796875 541.720214844 c 128,-1,36
 -200.6796875 531.280273438 -200.6796875 531.280273438 -211.699707031 516.780273438 c 128,-1,37
 -222.719726562 502.280273438 -222.719726562 502.280273438 -231.419921875 502.280273438 c 128,-1,38
 -240.120117188 502.280273438 -240.120117188 502.280273438 -258.6796875 515.040039062 c 0,0,1
-468.639648438 696 m 0,39,40
 -468.639648438 712.240234375 -468.639648438 712.240234375 -483.139648438 729.060058594 c 128,-1,41
 -497.639648438 745.879882812 -497.639648438 745.879882812 -506.33984375 749.360351562 c 128,-1,42
 -515.040039062 752.83984375 -515.040039062 752.83984375 -534.759765625 752.83984375 c 0,43,44
 -596.240234375 752.83984375 -596.240234375 752.83984375 -596.240234375 714.559570312 c 0,45,46
 -596.240234375 694.83984375 -596.240234375 694.83984375 -581.740234375 683.239746094 c 0,47,48
 -557.09017334 663.51953125 -557.09017334 663.51953125 -512.864910889 663.51953125 c 128,-1,49
 -468.639648438 663.51953125 -468.639648438 663.51953125 -468.639648438 696 c 0,39,40
EndSplineSet
EndChar

StartChar: s
Encoding: 115 115 30
Width: 46
VWidth: 1392
GlyphClass: 1
Flags: W
LayerCount: 2
Back
SplineSet
-772 233 m 0,1,2
 -781 233 -781 233 -791 246 c 0,3,4
 -800 258 -800 258 -800 266 c 0,5,6
 -800 276 -800 276 -783 286 c 0,7,8
 -768 299 -768 299 -749 308.5 c 128,-1,9
 -730 318 -730 318 -676 342 c 2,10,-1
 -623 365 l 1,11,-1
 -622 397 l 2,12,13
 -621 450 -621 450 -583 472 c 0,14,15
 -574 478 -574 478 -560.5 480 c 128,-1,16
 -547 482 -547 482 -513 482 c 0,17,18
 -454 482 -454 482 -433 479 c 0,19,20
 -419 478 -419 478 -407.5 480.5 c 128,-1,21
 -396 483 -396 483 -382 490 c 0,22,23
 -367 497 -367 497 -327.5 522.5 c 128,-1,24
 -288 548 -288 548 -258 569 c 0,25,26
 -252 574 -252 574 -241 574 c 0,27,28
 -227 574 -227 574 -218 563.5 c 128,-1,29
 -209 553 -209 553 -213 538 c 0,30,31
 -215 529 -215 529 -250 508.5 c 128,-1,32
 -285 488 -285 488 -335 468 c 2,33,-1
 -393 445 l 1,34,-1
 -393 418 l 2,35,36
 -393 366 -393 366 -434 343 c 0,37,38
 -447 336 -447 336 -472 331.5 c 128,-1,39
 -497 327 -497 327 -524 327 c 0,40,41
 -544 327 -544 327 -562 330 c 0,42,43
 -577 333 -577 333 -586 333 c 256,44,45
 -595 333 -595 333 -605.5 329 c 128,-1,46
 -616 325 -616 325 -631 318 c 0,47,48
 -675 300 -675 300 -750 244 c 0,49,0
 -766 233 -766 233 -772 233 c 0,1,2
-528 372 m 0,51,52
 -513 372 -513 372 -498.5 375.5 c 128,-1,53
 -484 379 -484 379 -475 386 c 0,54,55
 -459 399 -459 399 -459 416 c 0,56,57
 -459 432 -459 432 -473 440.5 c 128,-1,58
 -487 449 -487 449 -512 449 c 0,59,60
 -529 449 -529 449 -536.5 446 c 128,-1,61
 -544 443 -544 443 -554 432 c 0,62,63
 -569 414 -569 414 -569 400 c 0,64,65
 -569 389 -569 389 -562 381 c 0,66,50
 -553 372 -553 372 -528 372 c 0,51,52
EndSplineSet
Fore
SplineSet
-823.599609375 515.040039062 m 0,0,1
 -842.16015625 502.280273438 -842.16015625 502.280273438 -850.859863281 502.280273438 c 128,-1,2
 -859.559570312 502.280273438 -859.559570312 502.280273438 -870.579589844 516.780273438 c 128,-1,3
 -881.599609375 531.280273438 -881.599609375 531.280273438 -881.599609375 541.720214844 c 128,-1,4
 -881.599609375 552.16015625 -881.599609375 552.16015625 -861.879882812 563.759765625 c 1,5,6
 -844.48046875 578.83984375 -844.48046875 578.83984375 -822.440429688 589.860351562 c 128,-1,7
 -800.400390625 600.879882812 -800.400390625 600.879882812 -737.759765625 628.719726562 c 2,8,-1
 -676.280273438 655.400390625 l 1,9,-1
 -675.120117188 692.51953125 l 2,10,11
 -673.959960938 754 -673.959960938 754 -629.879882812 779.51953125 c 0,12,13
 -619.440429688 786.48046875 -619.440429688 786.48046875 -603.780273438 788.799804688 c 128,-1,14
 -588.120117188 791.120117188 -588.120117188 791.120117188 -534.180175781 791.120117188 c 128,-1,15
 -480.240234375 791.120117188 -480.240234375 791.120117188 -459.939941406 788.800292969 c 0,16,17
 -427.36496026 785.077773776 -427.36496026 785.077773776 -403.34263638 796.798652513 c 0,18,19
 -355.79548508 819.997673451 -355.79548508 819.997673451 -252.879882812 892.040039062 c 0,20,21
 -245.919921875 897.83984375 -245.919921875 897.83984375 -231.419921875 897.83984375 c 128,-1,22
 -216.919921875 897.83984375 -216.919921875 897.83984375 -206.48046875 885.66015625 c 128,-1,23
 -196.040039062 873.48046875 -196.040039062 873.48046875 -200.6796875 856.080078125 c 0,24,25
 -203 845.639648438 -203 845.639648438 -243.599609375 821.860351562 c 128,-1,26
 -284.200195312 798.080078125 -284.200195312 798.080078125 -342.200195312 774.879882812 c 2,27,-1
 -409.48046875 748.200195312 l 1,28,-1
 -409.48046875 716.879882812 l 2,29,30
 -409.48046875 656.559570312 -409.48046875 656.559570312 -457.040039062 629.879882812 c 0,31,32
 -491.507493634 611.3203125 -491.507493634 611.3203125 -561.440429688 611.3203125 c 0,33,34
 -584.639648438 611.3203125 -584.639648438 611.3203125 -603.779785156 614.800292969 c 128,-1,35
 -622.919921875 618.280273438 -622.919921875 618.280273438 -633.360351562 618.280273438 c 256,36,37
 -648.274812674 618.280273438 -648.274812674 618.280273438 -685.559570312 600.879882812 c 0,38,39
 -736.599609375 580 -736.599609375 580 -823.599609375 515.040039062 c 0,0,1
-613.639648438 696 m 0,40,41
 -613.639648438 663.51953125 -613.639648438 663.51953125 -566.080078125 663.51953125 c 0,42,43
 -525.48046875 663.51953125 -525.48046875 663.51953125 -505.760253906 679.1796875 c 128,-1,44
 -486.040039062 694.83984375 -486.040039062 694.83984375 -486.040039062 714.559570312 c 0,45,46
 -486.040039062 752.83984375 -486.040039062 752.83984375 -547.51953125 752.83984375 c 0,47,48
 -567.240234375 752.83984375 -567.240234375 752.83984375 -575.940429688 749.360351562 c 128,-1,49
 -584.639648438 745.879882812 -584.639648438 745.879882812 -599.139648438 729.060058594 c 128,-1,50
 -613.639648438 712.240234375 -613.639648438 712.240234375 -613.639648438 696 c 0,40,41
EndSplineSet
EndChar

StartChar: germandbls
Encoding: 223 223 31
Width: 46
VWidth: 1392
GlyphClass: 1
Flags: W
LayerCount: 2
Back
Refer: 30 115 N 1 0 0 1 130 90 2
Fore
SplineSet
-672.799804688 619.440429688 m 0,0,1
 -691.360351562 606.680664062 -691.360351562 606.680664062 -700.059570312 606.680664062 c 128,-1,2
 -708.759765625 606.680664062 -708.759765625 606.680664062 -719.779296875 621.180664062 c 128,-1,3
 -730.799804688 635.680664062 -730.799804688 635.680664062 -730.799804688 646.120117188 c 128,-1,4
 -730.799804688 656.560546875 -730.799804688 656.560546875 -711.080078125 668.16015625 c 1,5,6
 -693.680664062 683.240234375 -693.680664062 683.240234375 -671.640625 694.260742188 c 128,-1,7
 -649.600585938 705.280273438 -649.600585938 705.280273438 -586.959960938 733.120117188 c 2,8,-1
 -525.48046875 759.80078125 l 1,9,-1
 -524.3203125 796.919921875 l 2,10,11
 -523.16015625 858.400390625 -523.16015625 858.400390625 -479.080078125 883.919921875 c 0,12,13
 -468.640625 890.880859375 -468.640625 890.880859375 -452.98046875 893.200195312 c 128,-1,14
 -437.3203125 895.520507812 -437.3203125 895.520507812 -383.379882812 895.520507812 c 128,-1,15
 -329.440429688 895.520507812 -329.440429688 895.520507812 -309.139648438 893.200195312 c 0,16,17
 -276.565429688 889.477539062 -276.565429688 889.477539062 -252.54296875 901.198242188 c 0,18,19
 -204.995117188 924.397460938 -204.995117188 924.397460938 -102.080078125 996.440429688 c 0,20,21
 -95.1201171875 1002.24023438 -95.1201171875 1002.24023438 -80.6201171875 1002.24023438 c 128,-1,22
 -66.1201171875 1002.24023438 -66.1201171875 1002.24023438 -55.6806640625 990.060546875 c 128,-1,23
 -45.240234375 977.880859375 -45.240234375 977.880859375 -49.8798828125 960.48046875 c 0,24,25
 -52.2001953125 950.040039062 -52.2001953125 950.040039062 -92.7998046875 926.260742188 c 128,-1,26
 -133.400390625 902.48046875 -133.400390625 902.48046875 -191.400390625 879.280273438 c 2,27,-1
 -258.680664062 852.600585938 l 1,28,-1
 -258.680664062 821.280273438 l 2,29,30
 -258.680664062 760.959960938 -258.680664062 760.959960938 -306.240234375 734.280273438 c 0,31,32
 -340.70703125 715.720703125 -340.70703125 715.720703125 -410.640625 715.720703125 c 0,33,34
 -433.83984375 715.720703125 -433.83984375 715.720703125 -452.979492188 719.200195312 c 128,-1,35
 -472.120117188 722.680664062 -472.120117188 722.680664062 -482.560546875 722.680664062 c 256,36,37
 -497.474609375 722.680664062 -497.474609375 722.680664062 -534.759765625 705.280273438 c 0,38,39
 -585.799804688 684.400390625 -585.799804688 684.400390625 -672.799804688 619.440429688 c 0,0,1
-462.83984375 800.400390625 m 0,40,41
 -462.83984375 767.919921875 -462.83984375 767.919921875 -415.280273438 767.919921875 c 0,42,43
 -374.680664062 767.919921875 -374.680664062 767.919921875 -354.959960938 783.580078125 c 128,-1,44
 -335.240234375 799.240234375 -335.240234375 799.240234375 -335.240234375 818.959960938 c 0,45,46
 -335.240234375 857.240234375 -335.240234375 857.240234375 -396.719726562 857.240234375 c 0,47,48
 -416.440429688 857.240234375 -416.440429688 857.240234375 -425.140625 853.760742188 c 128,-1,49
 -433.83984375 850.280273438 -433.83984375 850.280273438 -448.33984375 833.459960938 c 128,-1,50
 -462.83984375 816.640625 -462.83984375 816.640625 -462.83984375 800.400390625 c 0,40,41
EndSplineSet
EndChar

StartChar: t
Encoding: 116 116 32
Width: 46
VWidth: 1392
GlyphClass: 1
Flags: W
LayerCount: 2
Back
SplineSet
-547 516 m 0,1,2
 -547 500 -547 500 -554 489 c 0,3,4
 -565 473 -565 473 -585.5 464 c 128,-1,5
 -606 455 -606 455 -630 455 c 0,6,7
 -660 455 -660 455 -687 468 c 0,8,9
 -709 478 -709 478 -740 506 c 0,10,11
 -754 520 -754 520 -754 545 c 0,12,13
 -754 555 -754 555 -753 557 c 0,14,15
 -745 583 -745 583 -720.5 602.5 c 128,-1,16
 -696 622 -696 622 -671 621 c 0,17,18
 -670 624 -670 624 -670 630 c 0,19,20
 -670 634 -670 634 -672 652 c 0,21,22
 -672 658 -672 658 -674 674 c 0,23,24
 -677 698 -677 698 -677 714 c 0,25,26
 -677 735 -677 735 -671.5 744 c 128,-1,27
 -666 753 -666 753 -653 753 c 0,28,29
 -641 753 -641 753 -637.5 749.5 c 128,-1,30
 -634 746 -634 746 -632 732 c 0,31,32
 -630 709 -630 709 -635 664 c 0,33,34
 -637 638 -637 638 -637 632 c 0,35,36
 -637 616 -637 616 -632 615 c 2,37,-1
 -630 614 l 1,38,39
 -602 606 -602 606 -582.5 589 c 128,-1,40
 -563 572 -563 572 -554 551 c 0,41,0
 -547 535 -547 535 -547 516 c 0,1,2
-606 544 m 128,-1,43
 -618 560 -618 560 -637.5 571 c 128,-1,44
 -657 582 -657 582 -671 578 c 0,45,46
 -685 576 -685 576 -697 564.5 c 128,-1,47
 -709 553 -709 553 -706 543 c 0,48,49
 -700 524 -700 524 -690 515.5 c 128,-1,50
 -680 507 -680 507 -657 501 c 0,51,52
 -653 500 -653 500 -645 500 c 0,53,54
 -632 500 -632 500 -619.5 505 c 128,-1,55
 -607 510 -607 510 -601 518 c 0,56,42
 -594 528 -594 528 -606 544 c 128,-1,43
EndSplineSet
Fore
SplineSet
-731.959960938 952.360351562 m 0,0,1
 -730.799804688 955.83984375 -730.799804688 955.83984375 -730.799804688 961.640136719 c 128,-1,2
 -730.799804688 967.440429688 -730.799804688 967.440429688 -731.959960938 977.880371094 c 128,-1,3
 -733.120117188 988.3203125 -733.120117188 988.3203125 -738.919921875 1060.24023438 c 1,4,5
 -738.919921875 1084.59960938 -738.919921875 1084.59960938 -732.540039062 1095.04003906 c 128,-1,6
 -726.16015625 1105.48046875 -726.16015625 1105.48046875 -711.66015625 1105.48046875 c 128,-1,7
 -697.16015625 1105.48046875 -697.16015625 1105.48046875 -693.099609375 1101.41992188 c 0,8,9
 -680.572492188 1088.89280469 -680.572492188 1088.89280469 -690.200195312 1002.24023438 c 0,10,11
 -692.51953125 972.080078125 -692.51953125 972.080078125 -692.51953125 959.319824219 c 128,-1,12
 -692.51953125 946.559570312 -692.51953125 946.559570312 -686.719726562 945.400390625 c 1,13,-1
 -684.400390625 944.240234375 l 1,14,15
 -651.919921875 934.959960938 -651.919921875 934.959960938 -629.299804688 915.240234375 c 0,16,17
 -588.120117188 879.338899946 -588.120117188 879.338899946 -588.120117188 830.559570312 c 0,18,19
 -588.120117188 789.845879741 -588.120117188 789.845879741 -632.780273438 770.240234375 c 0,20,21
 -656.559570312 759.799804688 -656.559570312 759.799804688 -687.879882812 759.799804688 c 128,-1,22
 -719.200195312 759.799804688 -719.200195312 759.799804688 -747.620117188 773.140136719 c 128,-1,23
 -776.040039062 786.48046875 -776.040039062 786.48046875 -812 818.959960938 c 0,24,25
 -828.240234375 835.200195312 -828.240234375 835.200195312 -828.240234375 855.5 c 128,-1,26
 -828.240234375 875.799804688 -828.240234375 875.799804688 -827.080078125 878.120117188 c 0,27,28
 -817.799804688 908.280273438 -817.799804688 908.280273438 -789.379882812 930.900390625 c 128,-1,29
 -760.959960938 953.51953125 -760.959960938 953.51953125 -731.959960938 952.360351562 c 0,0,1
-656.559570312 863.040039062 m 128,-1,31
 -670.48046875 881.599609375 -670.48046875 881.599609375 -693.099609375 894.360351562 c 0,32,33
 -731.593806233 916.074515365 -731.593806233 916.074515365 -762.120117188 886.8203125 c 0,34,35
 -776.040039062 873.48046875 -776.040039062 873.48046875 -772.559570312 861.879882812 c 0,36,37
 -765.599609375 839.83984375 -765.599609375 839.83984375 -754 829.98046875 c 0,38,39
 -732.847973872 812 -732.847973872 812 -709.783850217 812 c 0,40,41
 -666.419128437 812 -666.419128437 812 -650.759765625 832.879882812 c 0,42,30
 -642.639648438 844.48046875 -642.639648438 844.48046875 -656.559570312 863.040039062 c 128,-1,31
EndSplineSet
EndChar

StartChar: u
Encoding: 117 117 33
Width: 46
VWidth: 1392
GlyphClass: 1
Flags: W
LayerCount: 2
Back
SplineSet
-594 430 m 0,1,2
 -571 430 -571 430 -558 435 c 0,3,4
 -541 441 -541 441 -530 459 c 0,5,6
 -528 462 -528 462 -528 464 c 128,-1,7
 -528 466 -528 466 -531 469 c 0,8,9
 -535 471 -535 471 -536 471 c 0,10,11
 -538 471 -538 471 -549 464 c 0,12,13
 -565 459 -565 459 -577 459 c 0,14,15
 -603 459 -603 459 -621 476 c 0,16,17
 -640 492 -640 492 -663 496 c 0,18,19
 -675 498 -675 498 -677 501 c 128,-1,20
 -679 504 -679 504 -680 520 c 2,21,-1
 -681 531 l 1,22,-1
 -666 538 l 2,23,24
 -640 552 -640 552 -621 579 c 0,25,26
 -615 587 -615 587 -614 590.5 c 128,-1,27
 -613 594 -613 594 -613 602 c 0,28,29
 -614 617 -614 617 -626 632.5 c 128,-1,30
 -638 648 -638 648 -651 653 c 0,31,32
 -661 655 -661 655 -671 655 c 2,33,-1
 -681 655 l 1,34,-1
 -681 690 l 1,35,-1
 -680 713 l 2,36,37
 -680 726 -680 726 -683 727 c 0,38,39
 -685 729 -685 729 -689 729 c 0,40,41
 -698 729 -698 729 -710 721 c 2,42,-1
 -717 714 l 1,43,-1
 -715 690 l 1,44,-1
 -714 662 l 2,45,46
 -714 655 -714 655 -716 652.5 c 128,-1,47
 -718 650 -718 650 -723 648.5 c 128,-1,48
 -728 647 -728 647 -731 646 c 0,49,50
 -759 636 -759 636 -771 623.5 c 128,-1,51
 -783 611 -783 611 -784 594 c 0,52,53
 -785 591 -785 591 -785 586 c 0,54,55
 -785 582 -785 582 -783.5 577.5 c 128,-1,56
 -782 573 -782 573 -781 571 c 0,57,58
 -776 562 -776 562 -764.5 552 c 128,-1,59
 -753 542 -753 542 -744 538 c 0,60,61
 -741 537 -741 537 -735.5 535.5 c 128,-1,62
 -730 534 -730 534 -724 531 c 0,63,64
 -715 531 -715 531 -713 529 c 2,65,-1
 -714 515 l 2,66,67
 -716 499 -716 499 -722.5 489 c 128,-1,68
 -729 479 -729 479 -747 464 c 0,69,70
 -761 452 -761 452 -764 447 c 128,-1,71
 -767 442 -767 442 -764 438 c 0,72,73
 -762 436 -762 436 -757 436 c 0,74,75
 -751 436 -751 436 -742 442 c 0,76,77
 -722 456 -722 456 -695 456 c 0,78,79
 -674 456 -674 456 -659 447 c 0,80,81
 -654 443 -654 443 -633 435 c 0,82,0
 -616 430 -616 430 -594 430 c 0,1,2
-701 561 m 0,84,85
 -716 561 -716 561 -727 578 c 0,86,87
 -731 583 -731 583 -731 591 c 256,88,89
 -731 599 -731 599 -727 604 c 0,90,91
 -724 611 -724 611 -718.5 616.5 c 128,-1,92
 -713 622 -713 622 -705 628 c 2,93,-1
 -694 632 l 1,94,-1
 -687 629 l 2,95,96
 -684 628 -684 628 -679 625 c 128,-1,97
 -674 622 -674 622 -672 621 c 0,98,99
 -669 617 -669 617 -667.5 614 c 128,-1,100
 -666 611 -666 611 -666 604 c 0,101,102
 -666 592 -666 592 -672 581.5 c 128,-1,103
 -678 571 -678 571 -688 565 c 0,104,83
 -693 561 -693 561 -701 561 c 0,84,85
EndSplineSet
Fore
SplineSet
-791.700195312 799.240234375 m 128,-1,1
 -799.240234375 787.639648438 -799.240234375 787.639648438 -822.650021035 767.823154019 c 128,-1,2
 -846.059807694 748.006659601 -846.059807694 748.006659601 -841.789669472 742.883212613 c 128,-1,3
 -837.51953125 737.759765625 -837.51953125 737.759765625 -831.139648438 737.759765625 c 128,-1,4
 -824.759765625 737.759765625 -824.759765625 737.759765625 -807.939941406 749.359863281 c 128,-1,5
 -791.120117188 760.959960938 -791.120117188 760.959960938 -763.280273438 760.959960938 c 128,-1,6
 -735.440429688 760.959960938 -735.440429688 760.959960938 -723.840332031 753.419921875 c 128,-1,7
 -712.240234375 745.879882812 -712.240234375 745.879882812 -690.200195312 738.33984375 c 128,-1,8
 -668.16015625 730.799804688 -668.16015625 730.799804688 -642.060058594 730.799804688 c 128,-1,9
 -615.959960938 730.799804688 -615.959960938 730.799804688 -598.560058594 737.1796875 c 128,-1,10
 -581.16015625 743.559570312 -581.16015625 743.559570312 -568.400390625 764.440429688 c 0,11,12
 -566.080078125 767.919921875 -566.080078125 767.919921875 -566.080078125 770.240234375 c 128,-1,13
 -566.080078125 772.559570312 -566.080078125 772.559570312 -569.559570312 776.040039062 c 0,14,15
 -574.200195312 778.360351562 -574.200195312 778.360351562 -575.939941406 778.360351562 c 128,-1,16
 -577.6796875 778.360351562 -577.6796875 778.360351562 -590.440429688 770.240234375 c 0,17,18
 -609 764.440429688 -609 764.440429688 -631.040039062 764.440429688 c 128,-1,19
 -653.080078125 764.440429688 -653.080078125 764.440429688 -673.959960938 784.16015625 c 0,20,21
 -696 802.719726562 -696 802.719726562 -716.299804688 806.199707031 c 128,-1,22
 -736.599609375 809.6796875 -736.599609375 809.6796875 -738.919921875 813.16015625 c 128,-1,23
 -741.240234375 816.639648438 -741.240234375 816.639648438 -742.400390625 835.200195312 c 2,24,-1
 -743.559570312 847.959960938 l 1,25,-1
 -726.16015625 856.080078125 l 1,26,27
 -696 872.3203125 -696 872.3203125 -673.959960938 903.639648438 c 0,28,29
 -667 912.919921875 -667 912.919921875 -665.83984375 916.98046875 c 128,-1,30
 -664.6796875 921.040039062 -664.6796875 921.040039062 -665.259765625 934.379882812 c 128,-1,31
 -665.83984375 947.719726562 -665.83984375 947.719726562 -679.759765625 965.700195312 c 128,-1,32
 -693.6796875 983.6796875 -693.6796875 983.6796875 -708.759765625 989.48046875 c 0,33,34
 -720.360351562 991.799804688 -720.360351562 991.799804688 -731.959960938 991.799804688 c 2,35,-1
 -743.559570312 991.799804688 l 1,36,-1
 -743.559570312 1032.40039062 l 1,37,-1
 -742.400390625 1059.08007812 l 2,38,39
 -742.400390625 1074.16015625 -742.400390625 1074.16015625 -745.300292969 1075.89990234 c 128,-1,40
 -748.200195312 1077.63964844 -748.200195312 1077.63964844 -755.740234375 1077.63964844 c 128,-1,41
 -763.280273438 1077.63964844 -763.280273438 1077.63964844 -777.200195312 1068.36035156 c 1,42,-1
 -785.3203125 1060.24023438 l 1,43,-1
 -783 1032.40039062 l 1,44,-1
 -781.83984375 999.919921875 l 2,45,46
 -781.83984375 987.392421914 -781.83984375 987.392421914 -789.959960938 984.955976582 c 128,-1,47
 -798.080078125 982.51953125 -798.080078125 982.51953125 -816.060058594 976.139648438 c 128,-1,48
 -834.040039062 969.759765625 -834.040039062 969.759765625 -847.959960938 955.259765625 c 0,49,50
 -864.200195312 938.342759872 -864.200195312 938.342759872 -864.200195312 911.759765625 c 0,51,52
 -864.200195312 892.998357002 -864.200195312 892.998357002 -845.640136719 876.859041782 c 128,-1,53
 -827.080078125 860.719726562 -827.080078125 860.719726562 -820.120117188 857.819824219 c 128,-1,54
 -813.16015625 854.919921875 -813.16015625 854.919921875 -806.780273438 853.1796875 c 128,-1,55
 -800.400390625 851.440429688 -800.400390625 851.440429688 -793.440429688 847.959960938 c 0,56,57
 -783 847.959960938 -783 847.959960938 -780.6796875 845.639648438 c 1,58,-1
 -781.83984375 829.400390625 l 2,59,0
 -784.16015625 810.83984375 -784.16015625 810.83984375 -791.700195312 799.240234375 c 128,-1,1
-733.120117188 906.540039062 m 128,-1,61
 -740.080078125 894.360351562 -740.080078125 894.360351562 -748.780273438 888.560058594 c 128,-1,62
 -757.48046875 882.759765625 -757.48046875 882.759765625 -770.8203125 882.759765625 c 128,-1,63
 -784.16015625 882.759765625 -784.16015625 882.759765625 -796.919921875 902.48046875 c 0,64,65
 -801.559570312 908.280273438 -801.559570312 908.280273438 -801.559570312 917.559570312 c 256,66,67
 -801.559570312 932.641867599 -801.559570312 932.641867599 -791.119628906 943.080699424 c 128,-1,68
 -780.6796875 953.51953125 -780.6796875 953.51953125 -771.400390625 960.48046875 c 1,69,-1
 -758.639648438 965.120117188 l 1,70,71
 -745.102703193 959.317871505 -745.102703193 959.317871505 -740.27156644 956.418701377 c 128,-1,72
 -735.440429688 953.51953125 -735.440429688 953.51953125 -733.120117188 952.360351562 c 0,73,74
 -726.16015625 943.080403646 -726.16015625 943.080403646 -726.16015625 930.900065104 c 128,-1,60
 -726.16015625 918.719726562 -726.16015625 918.719726562 -733.120117188 906.540039062 c 128,-1,61
EndSplineSet
EndChar

StartChar: w
Encoding: 119 119 34
Width: 46
VWidth: 1392
GlyphClass: 1
Flags: W
LayerCount: 2
Back
SplineSet
-618 397 m 0,1,2
 -608 397 -608 397 -595 400 c 0,3,4
 -586 402 -586 402 -582.5 404 c 128,-1,5
 -579 406 -579 406 -574 412 c 0,6,7
 -568 419 -568 419 -567 422 c 128,-1,8
 -566 425 -566 425 -566 434 c 0,9,10
 -566 466 -566 466 -599 479 c 0,11,12
 -613 484 -613 484 -626 485.5 c 128,-1,13
 -639 487 -639 487 -671 486 c 2,14,-1
 -689 486 l 2,15,16
 -711 486 -711 486 -712 487 c 0,17,18
 -712 488 -712 488 -703 501 c 0,19,20
 -686 520 -686 520 -646 546 c 0,21,22
 -605 574 -605 574 -605 586 c 0,23,24
 -605 593 -605 593 -611 597 c 0,25,26
 -615 601 -615 601 -622 601.5 c 128,-1,27
 -629 602 -629 602 -646 602 c 2,28,-1
 -675 603 l 1,29,-1
 -654 615 l 2,30,31
 -625 632 -625 632 -612 642.5 c 128,-1,32
 -599 653 -599 653 -599 661 c 0,33,34
 -599 664 -599 664 -603 670 c 0,35,36
 -607 675 -607 675 -614.5 677.5 c 128,-1,37
 -622 680 -622 680 -648 683 c 0,38,39
 -677 687 -677 687 -677 689 c 0,40,41
 -677 690 -677 690 -669 695 c 0,42,43
 -651 709 -651 709 -602 724 c 0,44,45
 -566 735 -566 735 -557 745 c 0,46,47
 -554 750 -554 750 -554 752 c 256,48,49
 -554 754 -554 754 -560 760 c 2,50,-1
 -566 767 l 1,51,-1
 -584 767 l 1,52,53
 -641 762 -641 762 -712 709 c 0,54,55
 -727 698 -727 698 -732 693 c 128,-1,56
 -737 688 -737 688 -737 683 c 0,57,58
 -737 659 -737 659 -669 654 c 2,59,-1
 -650 652 l 1,60,-1
 -656 649 l 1,61,62
 -656 649 -656 649 -671 640 c 0,63,64
 -677 636 -677 636 -700 624 c 0,65,66
 -733 603 -733 603 -746 589 c 0,67,68
 -760 572 -760 572 -760 563 c 256,69,70
 -760 554 -760 554 -741 554 c 0,71,72
 -734 554 -734 554 -722.5 555.5 c 128,-1,73
 -711 557 -711 557 -705 559 c 2,74,-1
 -686 561 l 1,75,-1
 -682 560 l 2,76,77
 -682 559 -682 559 -687.5 554.5 c 128,-1,78
 -693 550 -693 550 -698 546 c 0,79,80
 -729 523 -729 523 -748.5 500.5 c 128,-1,81
 -768 478 -768 478 -768 466 c 0,82,83
 -768 457 -768 457 -761 453.5 c 128,-1,84
 -754 450 -754 450 -734 448 c 2,85,-1
 -723 447 l 2,86,87
 -718 447 -718 447 -696 452 c 0,88,89
 -679 456 -679 456 -669 456 c 0,90,91
 -662 456 -662 456 -657 455 c 0,92,93
 -651 454 -651 454 -646 453 c 128,-1,94
 -641 452 -641 452 -638 451 c 0,95,96
 -634 450 -634 450 -634 445 c 256,97,98
 -634 440 -634 440 -638 436 c 0,99,100
 -643 431 -643 431 -643 423 c 0,101,102
 -643 413 -643 413 -639 407 c 128,-1,103
 -635 401 -635 401 -626 398 c 0,104,0
 -624 397 -624 397 -618 397 c 0,1,2
EndSplineSet
Fore
SplineSet
-699.48046875 722.6796875 m 0,0,1
 -699.48046875 692.51953125 -699.48046875 692.51953125 -668.16015625 692.51953125 c 0,2,3
 -643.51599301 692.51953125 -643.51599301 692.51953125 -634.378113692 697.739746094 c 128,-1,4
 -625.240234375 702.959960938 -625.240234375 702.959960938 -618.860351562 710.5 c 128,-1,5
 -612.48046875 718.040039062 -612.48046875 718.040039062 -611.3203125 721.51953125 c 128,-1,6
 -610.16015625 725 -610.16015625 725 -610.16015625 735.440429688 c 0,7,8
 -610.16015625 787.15243039 -610.16015625 787.15243039 -679.759765625 795.1796875 c 0,9,10
 -694.83984375 796.919921875 -694.83984375 796.919921875 -731.959960938 795.759765625 c 1,11,-1
 -752.83984375 795.759765625 l 2,12,13
 -778.360351562 795.759765625 -778.360351562 795.759765625 -779.51953125 796.919921875 c 0,14,15
 -779.51953125 798.080078125 -779.51953125 798.080078125 -769.080078125 813.16015625 c 0,16,17
 -749.360351562 835.200195312 -749.360351562 835.200195312 -702.380371094 866.520019531 c 128,-1,18
 -655.400390625 897.83984375 -655.400390625 897.83984375 -655.400390625 911.759765625 c 0,19,20
 -655.400390625 928.331513079 -655.400390625 928.331513079 -675.120117188 929.740234375 c 0,21,22
 -683.240234375 930.3203125 -683.240234375 930.3203125 -702.959960938 930.3203125 c 2,23,-1
 -736.599609375 931.48046875 l 1,24,-1
 -712.240234375 945.400390625 l 2,25,26
 -678.599609375 965.120117188 -678.599609375 965.120117188 -663.51953125 977.299804688 c 128,-1,27
 -648.440429688 989.48046875 -648.440429688 989.48046875 -648.440429688 995.860351562 c 128,-1,28
 -648.440429688 1002.24023438 -648.440429688 1002.24023438 -653.080078125 1008.62011719 c 128,-1,29
 -657.719726562 1015 -657.719726562 1015 -666.419921875 1017.90039062 c 128,-1,30
 -675.120117188 1020.79980469 -675.120117188 1020.79980469 -707.020019531 1024.85986328 c 128,-1,31
 -738.919921875 1028.91992188 -738.919921875 1028.91992188 -738.919921875 1030.66015625 c 128,-1,32
 -738.919921875 1032.40039062 -738.919921875 1032.40039062 -729.639648438 1038.20019531 c 0,33,34
 -708.759765625 1054.44042969 -708.759765625 1054.44042969 -659.459960938 1069.52001953 c 0,35,36
 -596.240234375 1088.85736889 -596.240234375 1088.85736889 -596.240234375 1104.3203125 c 256,37,38
 -596.240234375 1106.63964844 -596.240234375 1106.63964844 -603.200195312 1113.59960938 c 2,39,-1
 -610.16015625 1121.71972656 l 1,40,-1
 -631.040039062 1121.71972656 l 1,41,42
 -697.16015625 1115.91992188 -697.16015625 1115.91992188 -779.51953125 1054.44042969 c 0,43,44
 -796.919921875 1041.6796875 -796.919921875 1041.6796875 -802.719726562 1035.87988281 c 128,-1,45
 -808.51953125 1030.08007812 -808.51953125 1030.08007812 -808.51953125 1024.28027344 c 0,46,47
 -808.51953125 996.440429688 -808.51953125 996.440429688 -729.639648438 990.639648438 c 1,48,-1
 -707.599609375 988.3203125 l 1,49,50
 -714.559570313 984.83984375 -714.559570313 984.83984375 -726.739746094 977.299804687 c 128,-1,51
 -738.919921875 969.759765625 -738.919921875 969.759765625 -765.599609375 955.83984375 c 0,52,53
 -835.200195312 911.550014529 -835.200195312 911.550014529 -835.200195312 885.080078125 c 256,54,55
 -835.200195312 874.639648438 -835.200195312 874.639648438 -820.120117188 874.639648438 c 0,56,57
 -788.800292969 874.639648438 -788.800292969 874.639648438 -771.400390625 880.440429688 c 1,58,-1
 -749.360351562 882.759765625 l 1,59,-1
 -744.719726562 881.599609375 l 1,60,61
 -744.719726562 880.208164023 -744.719726562 880.208164023 -771.979980469 859.443925762 c 128,-1,62
 -799.240234375 838.6796875 -799.240234375 838.6796875 -821.860351562 812.580078125 c 128,-1,63
 -844.48046875 786.48046875 -844.48046875 786.48046875 -844.48046875 774.300292969 c 128,-1,64
 -844.48046875 762.120117188 -844.48046875 762.120117188 -836.360351562 758.059570312 c 128,-1,65
 -828.240234375 754 -828.240234375 754 -805.040039062 751.6796875 c 2,66,-1
 -792.280273438 750.51953125 l 2,67,68
 -786.48046875 750.51953125 -786.48046875 750.51953125 -763.860351562 755.739746094 c 128,-1,69
 -741.240234375 760.959960938 -741.240234375 760.959960938 -731.379882812 760.959960938 c 128,-1,70
 -721.51953125 760.959960938 -721.51953125 760.959960938 -715.139648438 759.799804688 c 0,71,72
 -698.546366161 756.78238247 -698.546366161 756.78238247 -693.793202612 755.391191235 c 128,-1,73
 -689.040039062 754 -689.040039062 754 -689.040039062 748.200195312 c 256,74,75
 -689.040039062 742.400390625 -689.040039062 742.400390625 -694.260253906 737.180175781 c 128,-1,76
 -699.48046875 731.959960938 -699.48046875 731.959960938 -699.48046875 722.6796875 c 0,0,1
EndSplineSet
EndChar

StartChar: y
Encoding: 121 121 35
Width: 46
VWidth: 1392
GlyphClass: 1
Flags: W
LayerCount: 2
Back
SplineSet
-604 411 m 0,1,2
 -595 411 -595 411 -577 416 c 0,3,4
 -565 420 -565 420 -555 429 c 0,5,6
 -554 431 -554 431 -551 434.5 c 128,-1,7
 -548 438 -548 438 -547.5 440.5 c 128,-1,8
 -547 443 -547 443 -548 446 c 0,9,10
 -548 469 -548 469 -568.5 481.5 c 128,-1,11
 -589 494 -589 494 -626 494 c 0,12,13
 -654 494 -654 494 -679 489 c 0,14,15
 -694 487 -694 487 -704 487 c 0,16,17
 -706 490 -706 490 -694.5 503 c 128,-1,18
 -683 516 -683 516 -663 532 c 0,19,20
 -656 538 -656 538 -642.5 548 c 128,-1,21
 -629 558 -629 558 -625 562 c 0,22,23
 -604 575 -604 575 -602 588 c 0,24,25
 -602 592 -602 592 -602.5 594.5 c 128,-1,26
 -603 597 -603 597 -606 599 c 0,27,28
 -609 604 -609 604 -611.5 604.5 c 128,-1,29
 -614 605 -614 605 -627 604 c 0,30,31
 -645 602 -645 602 -660 602 c 2,32,-1
 -676 599 l 1,33,-1
 -666 606 l 1,34,35
 -593 652 -593 652 -600 668 c 0,36,37
 -600 669 -600 669 -608 675 c 0,38,39
 -614 679 -614 679 -622.5 679.5 c 128,-1,40
 -631 680 -631 680 -651 680 c 0,41,42
 -686 681 -686 681 -683 684 c 0,43,44
 -680 686 -680 686 -671.5 691 c 128,-1,45
 -663 696 -663 696 -649 706 c 2,46,-1
 -620 724 l 1,47,-1
 -595 713 l 2,48,49
 -582 707 -582 707 -574.5 704.5 c 128,-1,50
 -567 702 -567 702 -560 702 c 0,51,52
 -551 702 -551 702 -548 705 c 256,53,54
 -545 708 -545 708 -542.5 712 c 128,-1,55
 -540 716 -540 716 -540 718 c 2,56,-1
 -582 738 l 2,57,58
 -589 740 -589 740 -589 742 c 0,59,60
 -587 746 -587 746 -583 748 c 2,61,-1
 -566 760 l 2,62,63
 -560 766 -560 766 -560 768 c 256,64,65
 -560 770 -560 770 -562.5 771.5 c 128,-1,66
 -565 773 -565 773 -570 775 c 0,67,68
 -577 779 -577 779 -583 779 c 0,69,70
 -591 779 -591 779 -608 769 c 0,71,72
 -624 760 -624 760 -628 760 c 0,73,74
 -630 760 -630 760 -636 762.5 c 128,-1,75
 -642 765 -642 765 -650 769 c 0,76,77
 -670 778 -670 778 -675 778 c 256,78,79
 -680 778 -680 778 -691.5 772 c 128,-1,80
 -703 766 -703 766 -703 763 c 256,81,82
 -703 760 -703 760 -696 756 c 128,-1,83
 -689 752 -689 752 -679 750 c 0,84,85
 -660 744 -660 744 -660 742 c 256,86,87
 -660 740 -660 740 -676 731 c 0,88,89
 -704 712 -704 712 -735 687 c 0,90,91
 -744 680 -744 680 -744 671 c 0,92,93
 -744 659 -744 659 -725 653 c 0,94,95
 -717 650 -717 650 -684 650 c 2,96,-1
 -654 650 l 1,97,-1
 -693 624 l 2,98,99
 -731 599 -731 599 -743 585 c 0,100,101
 -768 558 -768 558 -757 550 c 0,102,103
 -755 549 -755 549 -748 549 c 0,104,105
 -730 549 -730 549 -705 556 c 0,106,107
 -685 563 -685 563 -677 563 c 0,108,109
 -675 563 -675 563 -693 548 c 0,110,111
 -759 488 -759 488 -759 462 c 0,112,113
 -759 455 -759 455 -752.5 453 c 128,-1,114
 -746 451 -746 451 -727 451 c 0,115,116
 -710 451 -710 451 -695 454 c 0,117,118
 -667 461 -667 461 -646 461 c 0,119,120
 -619 461 -619 461 -619 454 c 0,121,122
 -619 452 -619 452 -624 445 c 0,123,124
 -628 440 -628 440 -628 432 c 0,125,126
 -625 419 -625 419 -615 413 c 0,127,0
 -609 411 -609 411 -604 411 c 0,1,2
EndSplineSet
Fore
SplineSet
-682.080078125 733.120117188 m 0,0,1
 -676.457730439 708.759765625 -676.457730439 708.759765625 -654.240234375 708.759765625 c 0,2,3
 -643.799804688 708.759765625 -643.799804688 708.759765625 -626.399902344 713.979980469 c 128,-1,4
 -609 719.200195312 -609 719.200195312 -597.400390625 729.639648438 c 0,5,6
 -596.240234375 731.959960938 -596.240234375 731.959960938 -592.759765625 736.01953125 c 0,7,8
 -587.053182829 742.679079738 -587.053182829 742.679079738 -589.280273438 749.360351562 c 0,9,10
 -589.280273438 776.040039062 -589.280273438 776.040039062 -613.059570312 790.540039062 c 128,-1,11
 -636.83984375 805.040039062 -636.83984375 805.040039062 -674.540039062 805.040039062 c 128,-1,12
 -712.240234375 805.040039062 -712.240234375 805.040039062 -735.439941406 800.979980469 c 128,-1,13
 -758.639648438 796.919921875 -758.639648438 796.919921875 -770.240234375 796.919921875 c 0,14,15
 -772.559570312 800.400390625 -772.559570312 800.400390625 -759.219726562 815.48046875 c 128,-1,16
 -745.879882812 830.559570312 -745.879882812 830.559570312 -730.219726562 843.319824219 c 128,-1,17
 -714.559570312 856.080078125 -714.559570312 856.080078125 -698.900390625 867.6796875 c 128,-1,18
 -683.240234375 879.280273438 -683.240234375 879.280273438 -678.599609375 883.919921875 c 0,19,20
 -654.240234375 899 -654.240234375 899 -651.919921875 914.080078125 c 0,21,22
 -651.919921875 923.745876675 -651.919921875 923.745876675 -656.559570312 926.83984375 c 0,23,24
 -660.040039062 932.639648438 -660.040039062 932.639648438 -662.940429688 933.219726562 c 128,-1,25
 -665.83984375 933.799804688 -665.83984375 933.799804688 -683.819824219 932.060058594 c 128,-1,26
 -701.799804688 930.3203125 -701.799804688 930.3203125 -719.200195312 930.3203125 c 1,27,-1
 -737.759765625 926.83984375 l 1,28,-1
 -726.16015625 934.959960938 l 1,29,30
 -641.48046875 988.3203125 -641.48046875 988.3203125 -649.599609375 1006.87988281 c 0,31,32
 -649.599609375 1008.04003906 -649.599609375 1008.04003906 -657.719726562 1013.83984375 c 128,-1,33
 -665.83984375 1019.63964844 -665.83984375 1019.63964844 -675.700195312 1020.21972656 c 128,-1,34
 -685.559570312 1020.79980469 -685.559570312 1020.79980469 -717.459960938 1021.37988281 c 128,-1,35
 -749.360351562 1021.95996094 -749.360351562 1021.95996094 -745.880371094 1024.85986328 c 128,-1,36
 -742.400390625 1027.75976562 -742.400390625 1027.75976562 -732.540039062 1033.55957031 c 128,-1,37
 -722.6796875 1039.36035156 -722.6796875 1039.36035156 -706.440429688 1050.95996094 c 1,38,-1
 -672.799804688 1071.83984375 l 1,39,-1
 -643.799804688 1059.08007812 l 2,40,41
 -616.153347443 1046.3203125 -616.153347443 1046.3203125 -604.456556534 1046.3203125 c 128,-1,42
 -592.759765625 1046.3203125 -592.759765625 1046.3203125 -589.280273438 1049.79980469 c 256,43,44
 -580 1059.08007812 -580 1059.08007812 -580 1064.87988281 c 1,45,-1
 -628.719726562 1088.08007812 l 1,46,47
 -636.83984375 1090.40039062 -636.83984375 1090.40039062 -636.83984375 1092.71972656 c 0,48,49
 -634.51953125 1097.36035156 -634.51953125 1097.36035156 -629.879882812 1099.6796875 c 2,50,-1
 -610.16015625 1113.59960938 l 1,51,52
 -603.200195312 1120.55957031 -603.200195312 1120.55957031 -603.200195312 1122.87988281 c 256,53,54
 -603.200195312 1126.359375 -603.200195312 1126.359375 -613.060058594 1130.99951172 c 128,-1,55
 -622.919921875 1135.63964844 -622.919921875 1135.63964844 -631.040039062 1135.63964844 c 128,-1,56
 -639.16015625 1135.63964844 -639.16015625 1135.63964844 -658.300292969 1124.61962891 c 128,-1,57
 -677.440429688 1113.59960938 -677.440429688 1113.59960938 -680.920410156 1113.59960938 c 0,58,59
 -686.71875 1113.59960938 -686.71875 1113.59960938 -708.759277344 1124.04003906 c 128,-1,60
 -730.799804688 1134.48046875 -730.799804688 1134.48046875 -736.599609375 1134.48046875 c 256,61,62
 -742.400390625 1134.48046875 -742.400390625 1134.48046875 -755.740234375 1127.51953125 c 128,-1,63
 -769.080078125 1120.55957031 -769.080078125 1120.55957031 -769.080078125 1117.08007812 c 256,64,65
 -769.080078125 1113.59960938 -769.080078125 1113.59960938 -760.959960938 1108.95996094 c 128,-1,66
 -752.83984375 1104.3203125 -752.83984375 1104.3203125 -736.020019531 1099.68017578 c 128,-1,67
 -719.200195312 1095.04003906 -719.200195312 1095.04003906 -719.200195312 1092.71972656 c 256,68,69
 -719.200195312 1090.40039062 -719.200195312 1090.40039062 -737.759765625 1079.95996094 c 0,70,71
 -770.240234375 1057.91992188 -770.240234375 1057.91992188 -806.200195312 1028.91992188 c 0,72,73
 -816.639648438 1020.79980469 -816.639648438 1020.79980469 -816.639648438 1010.36035156 c 0,74,75
 -816.639648438 996.440429688 -816.639648438 996.440429688 -794.599609375 989.48046875 c 0,76,77
 -785.3203125 986 -785.3203125 986 -747.040039062 986 c 2,78,-1
 -712.240234375 986 l 1,79,-1
 -757.48046875 955.83984375 l 2,80,81
 -801.559570312 926.83984375 -801.559570312 926.83984375 -815.48046875 910.599609375 c 0,82,83
 -844.48046875 879.280273438 -844.48046875 879.280273438 -831.719726562 870 c 0,84,85
 -829.400390625 868.83984375 -829.400390625 868.83984375 -814.900390625 868.83984375 c 128,-1,86
 -800.400390625 868.83984375 -800.400390625 868.83984375 -774.300292969 876.959960938 c 128,-1,87
 -748.200195312 885.080078125 -748.200195312 885.080078125 -738.919921875 885.080078125 c 0,88,89
 -736.599609375 885.080078125 -736.599609375 885.080078125 -757.48046875 867.6796875 c 0,90,91
 -834.040039062 798.080078125 -834.040039062 798.080078125 -834.040039062 767.919921875 c 0,92,93
 -834.040039062 759.799804688 -834.040039062 759.799804688 -826.5 757.48046875 c 128,-1,94
 -818.959960938 755.16015625 -818.959960938 755.16015625 -798.080078125 755.16015625 c 128,-1,95
 -777.200195312 755.16015625 -777.200195312 755.16015625 -752.260253906 760.959960938 c 128,-1,96
 -727.3203125 766.759765625 -727.3203125 766.759765625 -699.479980469 766.759765625 c 128,-1,97
 -671.639648438 766.759765625 -671.639648438 766.759765625 -671.639648438 758.639648438 c 0,98,99
 -671.639648438 756.3203125 -671.639648438 756.3203125 -676.859863281 749.360351562 c 128,-1,100
 -682.080078125 742.400390625 -682.080078125 742.400390625 -682.080078125 733.120117188 c 0,0,1
EndSplineSet
EndChar

StartChar: one
Encoding: 49 49 36
Width: 46
VWidth: 1392
GlyphClass: 1
Flags: W
LayerCount: 2
Back
SplineSet
-1056 253 m 0,1,2
 -1053 253 -1053 253 -1045 256 c 0,3,4
 -1039 259 -1039 259 -1039 264 c 0,5,6
 -1039 268 -1039 268 -1043 276 c 0,7,8
 -1057 309 -1057 309 -1055 354 c 1,9,-1
 -1053 368 l 1,10,-1
 -1031 368 l 2,11,12
 -1019 368 -1019 368 -1013.5 369 c 128,-1,13
 -1008 370 -1008 370 -1006 372 c 0,14,15
 -1003 375 -1003 375 -1004 381 c 0,16,17
 -1004 382 -1004 382 -1004.5 386 c 128,-1,18
 -1005 390 -1005 390 -1023 390.5 c 128,-1,19
 -1041 391 -1041 391 -1070 391 c 2,20,-1
 -1117 391 l 1,21,-1
 -1223 391 l 1,22,-1
 -1226 388 l 2,23,24
 -1233 381 -1233 381 -1233 370 c 0,25,26
 -1233 363 -1233 363 -1230 361 c 128,-1,27
 -1227 359 -1227 359 -1217 358 c 2,28,-1
 -1212 358 l 2,29,30
 -1207 358 -1207 358 -1205.5 359.5 c 128,-1,31
 -1204 361 -1204 361 -1204 366 c 2,32,-1
 -1204 369 l 1,33,-1
 -1182 369 l 2,34,35
 -1163 369 -1163 369 -1159 367 c 128,-1,36
 -1155 365 -1155 365 -1155 357 c 0,37,38
 -1155 344 -1155 344 -1166 289 c 0,39,40
 -1172 273 -1172 273 -1172 265 c 0,41,42
 -1171 264 -1171 264 -1164 264 c 0,43,44
 -1146 264 -1146 264 -1140.5 266 c 128,-1,45
 -1135 268 -1135 268 -1130 276 c 0,46,47
 -1126 283 -1126 283 -1125 292 c 128,-1,48
 -1124 301 -1124 301 -1124 323 c 2,49,-1
 -1122 359 l 1,50,-1
 -1121 369 l 1,51,-1
 -1099 369 l 1,52,-1
 -1099 343 l 2,53,54
 -1100 335 -1100 335 -1100 321 c 0,55,56
 -1100 294 -1100 294 -1094 283 c 0,57,58
 -1085 262 -1085 262 -1062 254 c 0,59,0
 -1060 253 -1060 253 -1056 253 c 0,1,2
EndSplineSet
Fore
SplineSet
-1372.28027344 685.559570312 m 1,0,1
 -1383.87988281 673.959960938 -1383.87988281 673.959960938 -1383.87988281 663.520019531 c 128,-1,2
 -1383.87988281 653.080078125 -1383.87988281 653.080078125 -1380.40039062 650.759765625 c 128,-1,3
 -1376.91992188 648.440429688 -1376.91992188 648.440429688 -1365.3203125 647.280273438 c 1,4,-1
 -1359.51953125 647.280273438 l 2,5,6
 -1353.71972656 647.280273438 -1353.71972656 647.280273438 -1351.98046875 649.01953125 c 128,-1,7
 -1350.24023438 650.759765625 -1350.24023438 650.759765625 -1350.24023438 656.559570312 c 2,8,-1
 -1350.24023438 660.040039062 l 1,9,-1
 -1324.71972656 660.040039062 l 2,10,11
 -1302.6796875 660.040039062 -1302.6796875 660.040039062 -1298.04003906 657.719726562 c 128,-1,12
 -1293.40039062 655.400390625 -1293.40039062 655.400390625 -1293.40039062 643.220214844 c 128,-1,13
 -1293.40039062 631.040039062 -1293.40039062 631.040039062 -1306.16015625 567.240234375 c 0,14,15
 -1313.12011719 548.6796875 -1313.12011719 548.6796875 -1313.12011719 539.400390625 c 0,16,17
 -1311.95996094 538.240234375 -1311.95996094 538.240234375 -1297.45996094 538.240234375 c 128,-1,18
 -1282.95996094 538.240234375 -1282.95996094 538.240234375 -1276.58007812 540.559570312 c 128,-1,19
 -1270.20019531 542.879882812 -1270.20019531 542.879882812 -1264.97998047 551.580078125 c 0,20,21
 -1257.44042969 564.145761019 -1257.44042969 564.145761019 -1257.44042969 606.6796875 c 1,22,-1
 -1255.12011719 648.440429688 l 1,23,-1
 -1253.95996094 660.040039062 l 1,24,-1
 -1228.44042969 660.040039062 l 1,25,-1
 -1228.44042969 629.879882812 l 1,26,27
 -1229.59960938 620.599609375 -1229.59960938 620.599609375 -1229.59960938 596.819824219 c 0,28,29
 -1229.59960938 541.971919673 -1229.59960938 541.971919673 -1185.51953125 526.639648438 c 0,30,31
 -1183.20019531 525.48046875 -1183.20019531 525.48046875 -1179.14013672 525.48046875 c 128,-1,32
 -1175.08007812 525.48046875 -1175.08007812 525.48046875 -1165.79980469 528.959960938 c 0,33,34
 -1158.83984375 532.440429688 -1158.83984375 532.440429688 -1158.83984375 537.66015625 c 128,-1,35
 -1158.83984375 542.879882812 -1158.83984375 542.879882812 -1163.48046875 552.16015625 c 0,36,37
 -1179.71972656 590.440429688 -1179.71972656 590.440429688 -1177.40039062 642.639648438 c 1,38,-1
 -1175.08007812 658.879882812 l 1,39,-1
 -1149.55957031 658.879882812 l 2,40,41
 -1125.20117229 658.879882812 -1125.20117229 658.879882812 -1121.14062521 662.939941406 c 128,-1,42
 -1117.08007812 667 -1117.08007812 667 -1117.66015625 671.060058594 c 128,-1,43
 -1118.24023438 675.120117188 -1118.24023438 675.120117188 -1118.8203125 679.759765625 c 128,-1,44
 -1119.40039062 684.400390625 -1119.40039062 684.400390625 -1140.28027344 684.98046875 c 128,-1,45
 -1161.16015625 685.559570312 -1161.16015625 685.559570312 -1194.79980469 685.559570312 c 2,46,-1
 -1249.3203125 685.559570312 l 1,47,-1
 -1372.28027344 685.559570312 l 1,0,1
EndSplineSet
EndChar

StartChar: two
Encoding: 50 50 37
Width: 46
VWidth: 1392
GlyphClass: 1
Flags: W
LayerCount: 2
Back
SplineSet
-1119 216 m 0,1,2
 -1132 216 -1132 216 -1135.5 217 c 128,-1,3
 -1139 218 -1139 218 -1144 225 c 0,4,5
 -1153 241 -1153 241 -1157 262 c 0,6,7
 -1159 278 -1159 278 -1159 305 c 0,8,9
 -1159 331 -1159 331 -1158 332 c 256,10,11
 -1157 333 -1157 333 -1163 336 c 0,12,13
 -1175 340 -1175 340 -1179 347 c 0,14,15
 -1181 351 -1181 351 -1181 354 c 0,16,17
 -1181 359 -1181 359 -1178.5 361 c 128,-1,18
 -1176 363 -1176 363 -1169 365 c 0,19,20
 -1161 367 -1161 367 -1161 369 c 1,21,22
 -1159 369 -1159 369 -1157 376 c 0,23,24
 -1155 384 -1155 384 -1149.5 392.5 c 128,-1,25
 -1144 401 -1144 401 -1139 406 c 0,26,27
 -1123 422 -1123 422 -1101 422 c 0,28,29
 -1086 422 -1086 422 -1070 414 c 0,30,31
 -1050 403 -1050 403 -1050 382 c 0,32,33
 -1050 376 -1050 376 -1051 372 c 0,34,35
 -1058 344 -1058 344 -1083 341 c 0,36,37
 -1110 337 -1110 337 -1110 336 c 0,38,39
 -1110 334 -1110 334 -1098 325 c 0,40,41
 -1081 311 -1081 311 -1078 309 c 0,42,43
 -1072 304 -1072 304 -1069.5 299 c 128,-1,44
 -1067 294 -1067 294 -1062 284 c 0,45,46
 -1055 266 -1055 266 -1055 260 c 0,47,48
 -1055 255 -1055 255 -1056 251 c 0,49,50
 -1060 237 -1060 237 -1067 230 c 0,51,52
 -1072 225 -1072 225 -1094 218 c 0,53,0
 -1103 216 -1103 216 -1119 216 c 0,1,2
-1126.5 364.5 m 128,-1,55
 -1115 365 -1115 365 -1105 366 c 0,56,57
 -1086 369 -1086 369 -1083 377 c 0,58,59
 -1081 379 -1081 379 -1081 381 c 0,60,61
 -1081 382 -1081 382 -1085 388 c 0,62,63
 -1087 390 -1087 390 -1089 390.5 c 128,-1,64
 -1091 391 -1091 391 -1096 391 c 0,65,66
 -1103 391 -1103 391 -1118 387 c 0,67,68
 -1131 383 -1131 383 -1135.5 379 c 128,-1,69
 -1140 375 -1140 375 -1141 374 c 0,70,71
 -1147 369 -1147 369 -1143 365 c 0,72,54
 -1138 364 -1138 364 -1126.5 364.5 c 128,-1,55
-1116 253.5 m 128,-1,74
 -1114 253 -1114 253 -1109 253 c 0,75,76
 -1101 253 -1101 253 -1099 255 c 256,77,78
 -1097 257 -1097 257 -1097 259 c 0,79,80
 -1097 273 -1097 273 -1099.5 281 c 128,-1,81
 -1102 289 -1102 289 -1110 295 c 0,82,83
 -1120 303 -1120 303 -1122 302 c 0,84,85
 -1123 296 -1123 296 -1123 283.5 c 128,-1,86
 -1123 271 -1123 271 -1122 262 c 0,87,88
 -1122 258 -1122 258 -1119 255 c 0,89,73
 -1118 254 -1118 254 -1116 253.5 c 128,-1,74
EndSplineSet
Fore
SplineSet
-1194.21972656 578.83984375 m 128,-1,1
 -1191.3203125 573.040039062 -1191.3203125 573.040039062 -1184.36035156 556.799804688 c 128,-1,2
 -1177.40039062 540.559570312 -1177.40039062 540.559570312 -1177.40039062 526.639648438 c 128,-1,3
 -1177.40039062 512.719726562 -1177.40039062 512.719726562 -1187.26025391 502.859863281 c 128,-1,4
 -1197.12011719 493 -1197.12011719 493 -1215.10009766 487.779785156 c 128,-1,5
 -1233.08007812 482.559570312 -1233.08007812 482.559570312 -1249.89990234 482.559570312 c 128,-1,6
 -1266.71972656 482.559570312 -1266.71972656 482.559570312 -1270.78027344 483.719726562 c 128,-1,7
 -1274.83984375 484.879882812 -1274.83984375 484.879882812 -1280.63964844 493 c 0,8,9
 -1298.04003906 523.932038521 -1298.04003906 523.932038521 -1298.04003906 569.945999729 c 128,-1,10
 -1298.04003906 615.959960938 -1298.04003906 615.959960938 -1296.87988281 617.120117188 c 256,11,12
 -1295.71972656 618.280273438 -1295.71972656 618.280273438 -1302.6796875 621.759765625 c 0,13,14
 -1323.55957031 628.720703125 -1323.55957031 628.720703125 -1323.55957031 642.639648438 c 0,15,16
 -1323.55957031 648.440429688 -1323.55957031 648.440429688 -1320.66015625 650.759765625 c 128,-1,17
 -1317.75976562 653.080078125 -1317.75976562 653.080078125 -1309.06005859 655.399902344 c 128,-1,18
 -1300.36035156 657.719726562 -1300.36035156 657.719726562 -1300.36035156 660.040039062 c 1,19,20
 -1298.04003906 660.040039062 -1298.04003906 660.040039062 -1295.72021484 668.740234375 c 0,21,22
 -1290.87018976 686.929614932 -1290.87018976 686.929614932 -1273.5752316 704.224573091 c 128,-1,23
 -1256.28027344 721.51953125 -1256.28027344 721.51953125 -1234.8203125 721.51953125 c 128,-1,24
 -1213.36035156 721.51953125 -1213.36035156 721.51953125 -1192.47998047 710.5 c 128,-1,25
 -1171.59960938 699.48046875 -1171.59960938 699.48046875 -1171.59960938 675.120117188 c 0,26,27
 -1171.59960938 668.16015625 -1171.59960938 668.16015625 -1172.75976562 663.51953125 c 0,28,29
 -1180.87988281 631.040039062 -1180.87988281 631.040039062 -1211.04003906 626.979980469 c 128,-1,30
 -1241.20019531 622.919921875 -1241.20019531 622.919921875 -1241.20019531 621.180175781 c 128,-1,31
 -1241.20019531 619.440429688 -1241.20019531 619.440429688 -1224.37988281 606.100097656 c 128,-1,32
 -1207.55957031 592.759765625 -1207.55957031 592.759765625 -1204.08007812 590.440429688 c 0,33,0
 -1197.12011719 584.639648438 -1197.12011719 584.639648438 -1194.21972656 578.83984375 c 128,-1,1
-1279.48046875 655.400390625 m 0,34,35
 -1268.65850827 653.235998529 -1268.65850827 653.235998529 -1241.00942992 656.638018796 c 128,-1,36
 -1213.36035156 660.040039062 -1213.36035156 660.040039062 -1209.87988281 669.3203125 c 0,37,38
 -1207.55957031 671.639648438 -1207.55957031 671.639648438 -1207.55957031 673.379882812 c 128,-1,39
 -1207.55957031 675.120117188 -1207.55957031 675.120117188 -1212.20019531 682.080078125 c 0,40,41
 -1219.3402701 689.223159263 -1219.3402701 689.223159263 -1242.44992021 682.75171635 c 0,42,43
 -1267.17097019 675.829029812 -1267.17097019 675.829029812 -1275.64554369 667.934534437 c 128,-1,44
 -1284.12011719 660.040039062 -1284.12011719 660.040039062 -1279.48046875 655.400390625 c 0,34,35
-1255.12011719 535.919921875 m 0,45,46
 -1255.12011719 525.48046875 -1255.12011719 525.48046875 -1240.62011719 525.48046875 c 128,-1,47
 -1226.12011719 525.48046875 -1226.12011719 525.48046875 -1226.12011719 532.440429688 c 0,48,49
 -1226.12011719 562.890533438 -1226.12011719 562.890533438 -1239.45996094 573.185501094 c 128,-1,50
 -1252.79980469 583.48046875 -1252.79980469 583.48046875 -1255.12011719 582.3203125 c 0,51,52
 -1256.28027344 575.360351562 -1256.28027344 575.360351562 -1256.28027344 560.860351562 c 128,-1,53
 -1256.28027344 546.360351562 -1256.28027344 546.360351562 -1255.12011719 535.919921875 c 0,45,46
EndSplineSet
EndChar

StartChar: three
Encoding: 51 51 38
Width: 46
VWidth: 1392
GlyphClass: 1
Flags: W
LayerCount: 2
Back
SplineSet
-1133 238 m 0,1,2
 -1127 238 -1127 238 -1125.5 242 c 128,-1,3
 -1124 246 -1124 246 -1124 262 c 0,4,5
 -1124 288 -1124 288 -1125 309 c 2,6,-1
 -1126 373 l 1,7,-1
 -1091 372 l 2,8,9
 -1079 371 -1079 371 -1065 371 c 0,10,11
 -1053 371 -1053 371 -1048 375 c 0,12,13
 -1042 377 -1042 377 -1041 379 c 128,-1,14
 -1040 381 -1040 381 -1042 386 c 0,15,16
 -1042 389 -1042 389 -1043.5 392.5 c 128,-1,17
 -1045 396 -1045 396 -1048 398 c 0,18,19
 -1051 402 -1051 402 -1057.5 403.5 c 128,-1,20
 -1064 405 -1064 405 -1075 405 c 0,21,22
 -1115 405 -1115 405 -1138 407 c 0,23,24
 -1161 407 -1161 407 -1172 406.5 c 128,-1,25
 -1183 406 -1183 406 -1184 405 c 0,26,27
 -1187 401 -1187 401 -1187 396 c 256,28,29
 -1187 391 -1187 391 -1182 384 c 0,30,31
 -1177 378 -1177 378 -1176 368 c 128,-1,32
 -1175 358 -1175 358 -1175 313 c 0,33,34
 -1174 248 -1174 248 -1171 244 c 0,35,36
 -1169 241 -1169 241 -1151 239 c 0,37,0
 -1135 239 -1135 239 -1133 238 c 0,1,2
EndSplineSet
Fore
SplineSet
-1162.3203125 679.759765625 m 0,0,1
 -1162.3203125 701.799804688 -1162.3203125 701.799804688 -1204.66015625 701.799804688 c 128,-1,2
 -1247 701.799804688 -1247 701.799804688 -1273.6796875 704.120117188 c 0,3,4
 -1324.71972656 704.120117188 -1324.71972656 704.120117188 -1327.61962891 700.640136719 c 128,-1,5
 -1330.51953125 697.16015625 -1330.51953125 697.16015625 -1330.51953125 691.360351562 c 256,6,7
 -1330.51953125 685.559570312 -1330.51953125 685.559570312 -1324.71972656 678.020019531 c 128,-1,8
 -1318.91992188 670.48046875 -1318.91992188 670.48046875 -1317.75976562 658.879882812 c 128,-1,9
 -1316.59960938 647.280273438 -1316.59960938 647.280273438 -1316.02001953 583.479980469 c 128,-1,10
 -1315.44042969 519.6796875 -1315.44042969 519.6796875 -1312.54003906 515.619628906 c 128,-1,11
 -1309.63964844 511.559570312 -1309.63964844 511.559570312 -1288.75976562 509.240234375 c 0,12,13
 -1270.20019531 509.240234375 -1270.20019531 509.240234375 -1265.56005859 508.66015625 c 128,-1,14
 -1260.91992188 508.080078125 -1260.91992188 508.080078125 -1259.1796875 512.719726562 c 128,-1,15
 -1257.44042969 517.360351562 -1257.44042969 517.360351562 -1257.44042969 541.720214844 c 128,-1,16
 -1257.44042969 566.080078125 -1257.44042969 566.080078125 -1258.59960938 590.440429688 c 2,17,-1
 -1259.75976562 664.6796875 l 1,18,-1
 -1219.16015625 663.51953125 l 2,19,20
 -1205.24023438 662.360351562 -1205.24023438 662.360351562 -1190.16015625 662.360351562 c 128,-1,21
 -1175.08007812 662.360351562 -1175.08007812 662.360351562 -1169.28027344 667 c 0,22,23
 -1162.3203125 669.3203125 -1162.3203125 669.3203125 -1161.16015625 671.639648438 c 128,-1,24
 -1160 673.959960938 -1160 673.959960938 -1162.3203125 679.759765625 c 0,0,1
EndSplineSet
EndChar

StartChar: four
Encoding: 52 52 39
Width: 46
VWidth: 1392
GlyphClass: 1
Flags: W
LayerCount: 2
Back
SplineSet
-1104 231 m 2,0,1
 -1062 231 -1062 231 -1041.5 231.5 c 128,-1,2
 -1021 232 -1021 232 -1021 233 c 0,3,4
 -1021 237 -1021 237 -1026 245 c 0,5,6
 -1035 261 -1035 261 -1043 282 c 128,-1,7
 -1051 303 -1051 303 -1069 358 c 0,8,9
 -1078 385 -1078 385 -1086 405 c 0,10,11
 -1088 409 -1088 409 -1090 411 c 128,-1,12
 -1092 413 -1092 413 -1096 413 c 256,13,14
 -1100 413 -1100 413 -1103 409 c 0,15,16
 -1108 399 -1108 399 -1133 334 c 2,17,-1
 -1162 262 l 1,18,-1
 -1180 262 l 2,19,20
 -1198 261 -1198 261 -1202 258 c 0,21,22
 -1206 254 -1206 254 -1206 252 c 0,23,24
 -1206 249 -1206 249 -1196 240 c 2,25,-1
 -1186 231 l 1,26,-1
 -1104 231 l 2,0,1
-1104 272 m 1,27,-1
 -1123 270 l 1,28,-1
 -1123 275 l 2,29,30
 -1123 279 -1123 279 -1110.5 306 c 128,-1,31
 -1098 333 -1098 333 -1096 333 c 0,32,33
 -1095 332 -1095 332 -1090.5 307.5 c 128,-1,34
 -1086 283 -1086 283 -1085 273 c 1,35,-1
 -1104 272 l 1,27,-1
EndSplineSet
Fore
SplineSet
-1322.40039062 535.919921875 m 1,0,1
 -1352.55957031 534.244176799 -1352.55957031 534.244176799 -1352.55957031 524.3203125 c 0,2,3
 -1352.55957031 520.83984375 -1352.55957031 520.83984375 -1340.95996094 510.400390625 c 2,4,-1
 -1329.36035156 499.959960938 l 1,5,-1
 -1234.24023438 499.959960938 l 2,6,7
 -1137.95996094 499.959960938 -1137.95996094 499.959960938 -1137.95996094 502.280273438 c 0,8,9
 -1137.95996094 506.919921875 -1137.95996094 506.919921875 -1146.08007812 520.83984375 c 0,10,11
 -1160.15648269 544.970339326 -1160.15648269 544.970339326 -1182.11828041 611.784974351 c 128,-1,12
 -1204.08007812 678.599609375 -1204.08007812 678.599609375 -1209.87988281 692.520019531 c 128,-1,13
 -1215.6796875 706.440429688 -1215.6796875 706.440429688 -1218 708.759765625 c 128,-1,14
 -1220.3203125 711.080078125 -1220.3203125 711.080078125 -1224.95996094 711.080078125 c 256,15,16
 -1229.59960938 711.080078125 -1229.59960938 711.080078125 -1233.08007812 706.440429688 c 0,17,18
 -1238.87988281 694.83984375 -1238.87988281 694.83984375 -1267.87988281 619.440429688 c 1,19,-1
 -1301.51953125 535.919921875 l 1,20,-1
 -1322.40039062 535.919921875 l 1,0,1
-1234.24023438 547.51953125 m 1,21,-1
 -1256.28027344 545.200195312 l 1,22,-1
 -1256.28027344 551 l 2,23,24
 -1256.28027344 555.639648438 -1256.28027344 555.639648438 -1241.78027344 586.959960938 c 128,-1,25
 -1227.28027344 618.280273438 -1227.28027344 618.280273438 -1224.95996094 618.280273438 c 0,26,27
 -1223.79980469 617.120117188 -1223.79980469 617.120117188 -1218.58007812 588.700195312 c 128,-1,28
 -1213.36035156 560.280273438 -1213.36035156 560.280273438 -1212.20019531 548.6796875 c 1,29,-1
 -1234.24023438 547.51953125 l 1,21,-1
EndSplineSet
EndChar

StartChar: five
Encoding: 53 53 40
Width: 46
VWidth: 1392
GlyphClass: 1
Flags: W
LayerCount: 2
Back
SplineSet
-1196 229.5 m 128,-1,1
 -1193 229 -1193 229 -1187 229 c 0,2,3
 -1169 229 -1169 229 -1154 236 c 0,4,5
 -1136 245 -1136 245 -1133 259 c 2,6,-1
 -1131 265 l 2,7,8
 -1129 265 -1129 265 -1118.5 262 c 128,-1,9
 -1108 259 -1108 259 -1085 254 c 0,10,11
 -1037 243 -1037 243 -1034 243 c 0,12,13
 -1029 243 -1029 243 -1026 247 c 0,14,15
 -1023 249 -1023 249 -1022.5 251.5 c 128,-1,16
 -1022 254 -1022 254 -1022 259 c 0,17,18
 -1022 271 -1022 271 -1028 279 c 0,19,20
 -1030 282 -1030 282 -1040 284.5 c 128,-1,21
 -1050 287 -1050 287 -1075 290 c 0,22,23
 -1128 301 -1128 301 -1136 304 c 0,24,25
 -1139 305 -1139 305 -1138 308 c 0,26,27
 -1138 310 -1138 310 -1137 310 c 0,28,29
 -1135 313 -1135 313 -1098.5 325.5 c 128,-1,30
 -1062 338 -1062 338 -1053 339 c 0,31,32
 -1042 342 -1042 342 -1041 343 c 0,33,34
 -1037 344 -1037 344 -1033.5 348.5 c 128,-1,35
 -1030 353 -1030 353 -1029 356 c 2,36,-1
 -1029 359 l 2,37,38
 -1029 373 -1029 373 -1033 381 c 0,39,40
 -1034 383 -1034 383 -1036.5 384 c 128,-1,41
 -1039 385 -1039 385 -1044 385 c 0,42,43
 -1050 385 -1050 385 -1060.5 381.5 c 128,-1,44
 -1071 378 -1071 378 -1097 369 c 2,45,-1
 -1142 354 l 1,46,-1
 -1144 356 l 1,47,48
 -1144 366 -1144 366 -1141 385 c 2,49,-1
 -1138 410 l 1,50,-1
 -1140 413 l 2,51,52
 -1142 415 -1142 415 -1146 415 c 2,53,-1
 -1159 414 l 2,54,55
 -1184 409 -1184 409 -1195 399 c 2,56,-1
 -1200 394 l 1,57,-1
 -1200 385 l 2,58,59
 -1200 376 -1200 376 -1190 336 c 0,60,61
 -1181 297 -1181 297 -1181 292 c 256,62,63
 -1181 287 -1181 287 -1186 275.5 c 128,-1,64
 -1191 264 -1191 264 -1198 254 c 0,65,66
 -1202 249 -1202 249 -1204 245.5 c 128,-1,67
 -1206 242 -1206 242 -1205 239 c 0,68,69
 -1205 236 -1205 236 -1201 232 c 0,70,0
 -1199 230 -1199 230 -1196 229.5 c 128,-1,1
EndSplineSet
Fore
SplineSet
-1273.6796875 707.599609375 m 1,0,1
 -1277.546875 713.400390625 -1277.546875 713.400390625 -1282.95996094 713.400390625 c 2,2,-1
 -1298.04003906 712.240234375 l 1,3,4
 -1328.48900147 706.150646964 -1328.48900147 706.150646964 -1345.59960938 689.040039062 c 1,5,-1
 -1345.59960938 678.599609375 l 2,6,7
 -1345.59960938 668.16015625 -1345.59960938 668.16015625 -1334.57958984 622.33984375 c 128,-1,8
 -1323.55957031 576.51953125 -1323.55957031 576.51953125 -1323.55957031 570.719726562 c 256,9,10
 -1323.55957031 554.813097917 -1323.55957031 554.813097917 -1335.73974609 537.826470833 c 0,11,12
 -1352.93479624 513.846036577 -1352.93479624 513.846036577 -1352.16759343 509.802901101 c 128,-1,13
 -1351.40039062 505.759765625 -1351.40039062 505.759765625 -1347.92041016 502.279785156 c 0,14,15
 -1343.28027344 497.639648438 -1343.28027344 497.639648438 -1326.45996094 497.639648438 c 128,-1,16
 -1309.63964844 497.639648438 -1309.63964844 497.639648438 -1290.5 506.919921875 c 128,-1,17
 -1271.36035156 516.200195312 -1271.36035156 516.200195312 -1267.87988281 532.440429688 c 1,18,-1
 -1265.55957031 539.400390625 l 1,19,20
 -1265.55957031 539.400390625 -1265.55957031 539.400390625 -1153.04003906 513.879882812 c 1,21,22
 -1147.24023438 513.879882812 -1147.24023438 513.879882812 -1143.75976562 518.51953125 c 0,23,24
 -1139.12011719 521.613498325 -1139.12011719 521.613498325 -1139.12011719 533.986924944 c 128,-1,25
 -1139.12011719 546.360351562 -1139.12011719 546.360351562 -1143.76025391 552.740234375 c 128,-1,26
 -1148.40039062 559.120117188 -1148.40039062 559.120117188 -1160 562.01953125 c 128,-1,27
 -1171.59960938 564.919921875 -1171.59960938 564.919921875 -1200.59960938 568.400390625 c 0,28,29
 -1262.08007812 581.16015625 -1262.08007812 581.16015625 -1268.45996094 583.479980469 c 128,-1,30
 -1274.83984375 585.799804688 -1274.83984375 585.799804688 -1273.6796875 589.280273438 c 0,31,32
 -1273.6796875 591.599609375 -1273.6796875 591.599609375 -1272.51953125 591.599609375 c 0,33,34
 -1270.20019531 595.080078125 -1270.20019531 595.080078125 -1227.86035156 609.580078125 c 128,-1,35
 -1185.51953125 624.080078125 -1185.51953125 624.080078125 -1173.91992188 626.399902344 c 128,-1,36
 -1162.3203125 628.719726562 -1162.3203125 628.719726562 -1159.41992188 629.879882812 c 0,37,38
 -1151.16773788 633.180756412 -1151.16773788 633.180756412 -1147.24023438 644.959960938 c 1,39,-1
 -1147.24023438 648.440429688 l 2,40,41
 -1147.24023438 673.960351563 -1147.24023438 673.960351563 -1155.94042969 677.440429688 c 0,42,43
 -1158.83984375 678.599609375 -1158.83984375 678.599609375 -1165.21972656 678.599609375 c 0,44,45
 -1172.50550962 678.599609375 -1172.50550962 678.599609375 -1226.12011719 660.040039062 c 2,46,-1
 -1278.3203125 642.639648438 l 1,47,-1
 -1280.63964844 644.959960938 l 1,48,49
 -1280.63964844 656.559570312 -1280.63964844 656.559570312 -1277.16015625 678.599609375 c 2,50,-1
 -1273.6796875 707.599609375 l 1,0,1
EndSplineSet
EndChar

